<ttFont>
    <TTGlyph name=".notdef" xMin="59" yMin="-220" xMax="626" yMax="1030">
      <contour>
        <pt x="59" y="1030" on="1"/>
        <pt x="626" y="1030" on="1"/>
        <pt x="626" y="-220" on="1"/>
        <pt x="59" y="-220" on="1"/>
      </contour>
      <contour>
        <pt x="473" y="-78" on="1"/>
        <pt x="473" y="889" on="1"/>
        <pt x="211" y="889" on="1"/>
        <pt x="211" y="-78" on="1"/>
      </contour>
    </TTGlyph>
    <TTGlyph name="A" xMin="-4" yMin="0" xMax="648" yMax="740">
      <contour>
        <pt x="-4" y="7" on="1"/>
        <pt x="173" y="740" on="1"/>
        <pt x="471" y="740" on="1"/>
        <pt x="648" y="7" on="1"/>
        <pt x="648" y="0" on="1"/>
        <pt x="465" y="0" on="1"/>
        <pt x="427" y="159" on="1"/>
        <pt x="216" y="159" on="1"/>
        <pt x="179" y="0" on="1"/>
        <pt x="-4" y="0" on="1"/>
      </contour>
      <contour>
        <pt x="391" y="314" on="1"/>
        <pt x="352" y="490" on="1"/>
        <pt x="328" y="598" on="1"/>
        <pt x="316" y="598" on="1"/>
        <pt x="292" y="490" on="1"/>
        <pt x="252" y="314" on="1"/>
      </contour>
    </TTGlyph>
    <TTGlyph name="A.sc" xMin="-2" yMin="0" xMax="601" yMax="577">
      <contour>
        <pt x="-2" y="6" on="1"/>
        <pt x="160" y="577" on="1"/>
        <pt x="439" y="577" on="1"/>
        <pt x="601" y="6" on="1"/>
        <pt x="601" y="0" on="1"/>
        <pt x="428" y="0" on="1"/>
        <pt x="396" y="104" on="1"/>
        <pt x="202" y="104" on="1"/>
        <pt x="170" y="0" on="1"/>
        <pt x="-2" y="0" on="1"/>
      </contour>
      <contour>
        <pt x="369" y="225" on="1"/>
        <pt x="326" y="370" on="1"/>
        <pt x="307" y="448" on="1"/>
        <pt x="292" y="448" on="1"/>
        <pt x="272" y="370" on="1"/>
        <pt x="229" y="225" on="1"/>
      </contour>
    </TTGlyph>
    <TTGlyph name="AE" xMin="-5" yMin="0" xMax="820" yMax="740">
      <contour>
        <pt x="-5" y="6" on="1"/>
        <pt x="205" y="740" on="1"/>
        <pt x="811" y="740" on="1"/>
        <pt x="811" y="578" on="1"/>
        <pt x="576" y="578" on="1"/>
        <pt x="585" y="451" on="1"/>
        <pt x="803" y="451" on="1"/>
        <pt x="803" y="289" on="1"/>
        <pt x="597" y="289" on="1"/>
        <pt x="606" y="162" on="1"/>
        <pt x="820" y="162" on="1"/>
        <pt x="820" y="0" on="1"/>
        <pt x="418" y="0" on="1"/>
        <pt x="411" y="156" on="1"/>
        <pt x="237" y="156" on="1"/>
        <pt x="195" y="0" on="1"/>
        <pt x="-5" y="0" on="1"/>
      </contour>
      <contour>
        <pt x="282" y="318" on="1"/>
        <pt x="405" y="318" on="1"/>
        <pt x="394" y="593" on="1"/>
        <pt x="357" y="593" on="1"/>
      </contour>
    </TTGlyph>
    <TTGlyph name="AE.sc" xMin="-3" yMin="0" xMax="760" yMax="577">
      <contour>
        <pt x="-3" y="5" on="1"/>
        <pt x="192" y="577" on="1"/>
        <pt x="752" y="577" on="1"/>
        <pt x="752" y="432" on="1"/>
        <pt x="537" y="432" on="1"/>
        <pt x="543" y="358" on="1"/>
        <pt x="745" y="358" on="1"/>
        <pt x="745" y="218" on="1"/>
        <pt x="558" y="218" on="1"/>
        <pt x="564" y="145" on="1"/>
        <pt x="760" y="145" on="1"/>
        <pt x="760" y="0" on="1"/>
        <pt x="387" y="0" on="1"/>
        <pt x="382" y="104" on="1"/>
        <pt x="219" y="104" on="1"/>
        <pt x="184" y="0" on="1"/>
        <pt x="-3" y="0" on="1"/>
      </contour>
      <contour>
        <pt x="262" y="235" on="1"/>
        <pt x="375" y="235" on="1"/>
        <pt x="366" y="442" on="1"/>
        <pt x="333" y="442" on="1"/>
      </contour>
    </TTGlyph>
    <TTGlyph name="AEacute" xMin="-5" yMin="0" xMax="820" yMax="988">
      <contour>
        <pt x="414" y="800" on="1"/>
        <pt x="478" y="988" on="1"/>
        <pt x="672" y="988" on="1"/>
        <pt x="549" y="790" on="1"/>
      </contour>
      <contour>
        <pt x="-5" y="6" on="1"/>
        <pt x="205" y="740" on="1"/>
        <pt x="811" y="740" on="1"/>
        <pt x="811" y="578" on="1"/>
        <pt x="576" y="578" on="1"/>
        <pt x="585" y="451" on="1"/>
        <pt x="803" y="451" on="1"/>
        <pt x="803" y="289" on="1"/>
        <pt x="597" y="289" on="1"/>
        <pt x="606" y="162" on="1"/>
        <pt x="820" y="162" on="1"/>
        <pt x="820" y="0" on="1"/>
        <pt x="418" y="0" on="1"/>
        <pt x="411" y="156" on="1"/>
        <pt x="237" y="156" on="1"/>
        <pt x="195" y="0" on="1"/>
        <pt x="-5" y="0" on="1"/>
      </contour>
      <contour>
        <pt x="282" y="318" on="1"/>
        <pt x="405" y="318" on="1"/>
        <pt x="394" y="593" on="1"/>
        <pt x="357" y="593" on="1"/>
      </contour>
    </TTGlyph>
    <TTGlyph name="AEacute.sc" xMin="-3" yMin="0" xMax="760" yMax="786">
      <contour>
        <pt x="-3" y="5" on="1"/>
        <pt x="192" y="577" on="1"/>
        <pt x="752" y="577" on="1"/>
        <pt x="752" y="432" on="1"/>
        <pt x="537" y="432" on="1"/>
        <pt x="543" y="358" on="1"/>
        <pt x="745" y="358" on="1"/>
        <pt x="745" y="218" on="1"/>
        <pt x="558" y="218" on="1"/>
        <pt x="564" y="145" on="1"/>
        <pt x="760" y="145" on="1"/>
        <pt x="760" y="0" on="1"/>
        <pt x="387" y="0" on="1"/>
        <pt x="382" y="104" on="1"/>
        <pt x="219" y="104" on="1"/>
        <pt x="184" y="0" on="1"/>
        <pt x="-3" y="0" on="1"/>
      </contour>
      <contour>
        <pt x="375" y="235" on="1"/>
        <pt x="366" y="442" on="1"/>
        <pt x="333" y="442" on="1"/>
        <pt x="262" y="235" on="1"/>
      </contour>
      <contour>
        <pt x="380" y="627" on="1"/>
        <pt x="437" y="786" on="1"/>
        <pt x="619" y="786" on="1"/>
        <pt x="506" y="618" on="1"/>
      </contour>
    </TTGlyph>
    <TTGlyph name="Aacute" xMin="-4" yMin="0" xMax="648" yMax="988">
      <contour>
        <pt x="-4" y="7" on="1"/>
        <pt x="173" y="740" on="1"/>
        <pt x="471" y="740" on="1"/>
        <pt x="648" y="7" on="1"/>
        <pt x="648" y="0" on="1"/>
        <pt x="465" y="0" on="1"/>
        <pt x="427" y="159" on="1"/>
        <pt x="216" y="159" on="1"/>
        <pt x="179" y="0" on="1"/>
        <pt x="-4" y="0" on="1"/>
      </contour>
      <contour>
        <pt x="391" y="314" on="1"/>
        <pt x="352" y="490" on="1"/>
        <pt x="328" y="598" on="1"/>
        <pt x="316" y="598" on="1"/>
        <pt x="292" y="490" on="1"/>
        <pt x="252" y="314" on="1"/>
      </contour>
      <contour>
        <pt x="249" y="800" on="1"/>
        <pt x="313" y="988" on="1"/>
        <pt x="507" y="988" on="1"/>
        <pt x="384" y="790" on="1"/>
      </contour>
    </TTGlyph>
    <TTGlyph name="Aacute.sc" xMin="-2" yMin="0" xMax="601" yMax="786">
      <contour>
        <pt x="-2" y="6" on="1"/>
        <pt x="160" y="577" on="1"/>
        <pt x="439" y="577" on="1"/>
        <pt x="601" y="6" on="1"/>
        <pt x="601" y="0" on="1"/>
        <pt x="428" y="0" on="1"/>
        <pt x="396" y="104" on="1"/>
        <pt x="202" y="104" on="1"/>
        <pt x="170" y="0" on="1"/>
        <pt x="-2" y="0" on="1"/>
      </contour>
      <contour>
        <pt x="369" y="225" on="1"/>
        <pt x="326" y="370" on="1"/>
        <pt x="307" y="448" on="1"/>
        <pt x="292" y="448" on="1"/>
        <pt x="272" y="370" on="1"/>
        <pt x="229" y="225" on="1"/>
      </contour>
      <contour>
        <pt x="232" y="627" on="1"/>
        <pt x="289" y="786" on="1"/>
        <pt x="471" y="786" on="1"/>
        <pt x="359" y="618" on="1"/>
      </contour>
    </TTGlyph>
    <TTGlyph name="Abreve" xMin="-4" yMin="0" xMax="648" yMax="976">
      <contour>
        <pt x="-4" y="7" on="1"/>
        <pt x="173" y="740" on="1"/>
        <pt x="471" y="740" on="1"/>
        <pt x="648" y="7" on="1"/>
        <pt x="648" y="0" on="1"/>
        <pt x="465" y="0" on="1"/>
        <pt x="427" y="159" on="1"/>
        <pt x="216" y="159" on="1"/>
        <pt x="179" y="0" on="1"/>
        <pt x="-4" y="0" on="1"/>
      </contour>
      <contour>
        <pt x="391" y="314" on="1"/>
        <pt x="352" y="490" on="1"/>
        <pt x="328" y="598" on="1"/>
        <pt x="316" y="598" on="1"/>
        <pt x="292" y="490" on="1"/>
        <pt x="252" y="314" on="1"/>
      </contour>
      <contour>
        <pt x="324" y="790" on="1"/>
        <pt x="230" y="790" on="0"/>
        <pt x="135" y="888" on="0"/>
        <pt x="135" y="976" on="1"/>
        <pt x="262" y="976" on="1"/>
        <pt x="262" y="947" on="0"/>
        <pt x="267" y="909" on="0"/>
        <pt x="281" y="886" on="0"/>
        <pt x="305" y="876" on="0"/>
        <pt x="324" y="876" on="1"/>
        <pt x="360" y="876" on="0"/>
        <pt x="385" y="919" on="0"/>
        <pt x="385" y="976" on="1"/>
        <pt x="513" y="976" on="1"/>
        <pt x="513" y="889" on="0"/>
        <pt x="416" y="790" on="0"/>
      </contour>
    </TTGlyph>
    <TTGlyph name="Abreve.sc" xMin="-2" yMin="0" xMax="601" yMax="768">
      <contour>
        <pt x="300" y="613" on="1"/>
        <pt x="212" y="613" on="0"/>
        <pt x="124" y="696" on="0"/>
        <pt x="124" y="768" on="1"/>
        <pt x="243" y="768" on="1"/>
        <pt x="243" y="722" on="0"/>
        <pt x="265" y="690" on="0"/>
        <pt x="300" y="690" on="1"/>
        <pt x="334" y="690" on="0"/>
        <pt x="356" y="722" on="0"/>
        <pt x="356" y="768" on="1"/>
        <pt x="476" y="768" on="1"/>
        <pt x="476" y="696" on="0"/>
        <pt x="388" y="613" on="0"/>
      </contour>
      <contour>
        <pt x="-2" y="6" on="1"/>
        <pt x="160" y="577" on="1"/>
        <pt x="439" y="577" on="1"/>
        <pt x="601" y="6" on="1"/>
        <pt x="601" y="0" on="1"/>
        <pt x="428" y="0" on="1"/>
        <pt x="396" y="104" on="1"/>
        <pt x="202" y="104" on="1"/>
        <pt x="170" y="0" on="1"/>
        <pt x="-2" y="0" on="1"/>
      </contour>
      <contour>
        <pt x="369" y="225" on="1"/>
        <pt x="326" y="370" on="1"/>
        <pt x="307" y="448" on="1"/>
        <pt x="292" y="448" on="1"/>
        <pt x="272" y="370" on="1"/>
        <pt x="229" y="225" on="1"/>
      </contour>
    </TTGlyph>
    <TTGlyph name="Acircumflex" xMin="-4" yMin="0" xMax="648" yMax="981">
      <contour>
        <pt x="-4" y="7" on="1"/>
        <pt x="173" y="740" on="1"/>
        <pt x="471" y="740" on="1"/>
        <pt x="648" y="7" on="1"/>
        <pt x="648" y="0" on="1"/>
        <pt x="465" y="0" on="1"/>
        <pt x="427" y="159" on="1"/>
        <pt x="216" y="159" on="1"/>
        <pt x="179" y="0" on="1"/>
        <pt x="-4" y="0" on="1"/>
      </contour>
      <contour>
        <pt x="391" y="314" on="1"/>
        <pt x="352" y="490" on="1"/>
        <pt x="328" y="598" on="1"/>
        <pt x="316" y="598" on="1"/>
        <pt x="292" y="490" on="1"/>
        <pt x="252" y="314" on="1"/>
      </contour>
      <contour>
        <pt x="153" y="910" on="1"/>
        <pt x="325" y="981" on="1"/>
        <pt x="495" y="910" on="1"/>
        <pt x="495" y="786" on="1"/>
        <pt x="324" y="857" on="1"/>
        <pt x="153" y="786" on="1"/>
      </contour>
    </TTGlyph>
    <TTGlyph name="Acircumflex.sc" xMin="-2" yMin="0" xMax="601" yMax="777">
      <contour>
        <pt x="-2" y="6" on="1"/>
        <pt x="160" y="577" on="1"/>
        <pt x="439" y="577" on="1"/>
        <pt x="601" y="6" on="1"/>
        <pt x="601" y="0" on="1"/>
        <pt x="428" y="0" on="1"/>
        <pt x="396" y="104" on="1"/>
        <pt x="202" y="104" on="1"/>
        <pt x="170" y="0" on="1"/>
        <pt x="-2" y="0" on="1"/>
      </contour>
      <contour>
        <pt x="369" y="225" on="1"/>
        <pt x="326" y="370" on="1"/>
        <pt x="307" y="448" on="1"/>
        <pt x="292" y="448" on="1"/>
        <pt x="272" y="370" on="1"/>
        <pt x="229" y="225" on="1"/>
      </contour>
      <contour>
        <pt x="142" y="721" on="1"/>
        <pt x="302" y="777" on="1"/>
        <pt x="461" y="721" on="1"/>
        <pt x="461" y="608" on="1"/>
        <pt x="301" y="664" on="1"/>
        <pt x="142" y="608" on="1"/>
      </contour>
    </TTGlyph>
    <TTGlyph name="Adblgrave" xMin="-4" yMin="0" xMax="648" yMax="988">
      <contour>
        <pt x="-4" y="7" on="1"/>
        <pt x="173" y="740" on="1"/>
        <pt x="471" y="740" on="1"/>
        <pt x="648" y="7" on="1"/>
        <pt x="648" y="0" on="1"/>
        <pt x="465" y="0" on="1"/>
        <pt x="427" y="159" on="1"/>
        <pt x="216" y="159" on="1"/>
        <pt x="179" y="0" on="1"/>
        <pt x="-4" y="0" on="1"/>
      </contour>
      <contour>
        <pt x="391" y="314" on="1"/>
        <pt x="352" y="490" on="1"/>
        <pt x="328" y="598" on="1"/>
        <pt x="316" y="598" on="1"/>
        <pt x="292" y="490" on="1"/>
        <pt x="252" y="314" on="1"/>
      </contour>
      <contour>
        <pt x="188" y="790" on="1"/>
        <pt x="64" y="988" on="1"/>
        <pt x="221" y="988" on="1"/>
        <pt x="285" y="800" on="1"/>
      </contour>
      <contour>
        <pt x="386" y="790" on="1"/>
        <pt x="262" y="988" on="1"/>
        <pt x="419" y="988" on="1"/>
        <pt x="483" y="800" on="1"/>
      </contour>
    </TTGlyph>
    <TTGlyph name="Adblgrave.sc" xMin="-2" yMin="0" xMax="601" yMax="786">
      <contour>
        <pt x="-2" y="6" on="1"/>
        <pt x="160" y="577" on="1"/>
        <pt x="439" y="577" on="1"/>
        <pt x="601" y="6" on="1"/>
        <pt x="601" y="0" on="1"/>
        <pt x="428" y="0" on="1"/>
        <pt x="396" y="104" on="1"/>
        <pt x="202" y="104" on="1"/>
        <pt x="170" y="0" on="1"/>
        <pt x="-2" y="0" on="1"/>
      </contour>
      <contour>
        <pt x="369" y="225" on="1"/>
        <pt x="326" y="370" on="1"/>
        <pt x="307" y="448" on="1"/>
        <pt x="292" y="448" on="1"/>
        <pt x="272" y="370" on="1"/>
        <pt x="229" y="225" on="1"/>
      </contour>
      <contour>
        <pt x="58" y="786" on="1"/>
        <pt x="208" y="786" on="1"/>
        <pt x="265" y="625" on="1"/>
        <pt x="172" y="618" on="1"/>
      </contour>
      <contour>
        <pt x="242" y="786" on="1"/>
        <pt x="391" y="786" on="1"/>
        <pt x="448" y="625" on="1"/>
        <pt x="355" y="618" on="1"/>
      </contour>
    </TTGlyph>
    <TTGlyph name="Adieresis" xMin="-4" yMin="0" xMax="648" yMax="997">
      <contour>
        <pt x="-4" y="7" on="1"/>
        <pt x="173" y="740" on="1"/>
        <pt x="471" y="740" on="1"/>
        <pt x="648" y="7" on="1"/>
        <pt x="648" y="0" on="1"/>
        <pt x="465" y="0" on="1"/>
        <pt x="427" y="159" on="1"/>
        <pt x="216" y="159" on="1"/>
        <pt x="179" y="0" on="1"/>
        <pt x="-4" y="0" on="1"/>
      </contour>
      <contour>
        <pt x="391" y="314" on="1"/>
        <pt x="352" y="490" on="1"/>
        <pt x="328" y="598" on="1"/>
        <pt x="316" y="598" on="1"/>
        <pt x="292" y="490" on="1"/>
        <pt x="252" y="314" on="1"/>
      </contour>
      <contour>
        <pt x="191" y="798" on="1"/>
        <pt x="136" y="798" on="0"/>
        <pt x="89" y="845" on="0"/>
        <pt x="89" y="898" on="1"/>
        <pt x="89" y="951" on="0"/>
        <pt x="136" y="997" on="0"/>
        <pt x="191" y="997" on="1"/>
        <pt x="245" y="997" on="0"/>
        <pt x="294" y="951" on="0"/>
        <pt x="294" y="898" on="1"/>
        <pt x="294" y="844" on="0"/>
        <pt x="245" y="798" on="0"/>
      </contour>
      <contour>
        <pt x="455" y="798" on="1"/>
        <pt x="400" y="798" on="0"/>
        <pt x="353" y="845" on="0"/>
        <pt x="353" y="898" on="1"/>
        <pt x="353" y="951" on="0"/>
        <pt x="400" y="997" on="0"/>
        <pt x="455" y="997" on="1"/>
        <pt x="509" y="997" on="0"/>
        <pt x="558" y="951" on="0"/>
        <pt x="558" y="898" on="1"/>
        <pt x="558" y="844" on="0"/>
        <pt x="509" y="798" on="0"/>
      </contour>
    </TTGlyph>
    <TTGlyph name="Adieresis.sc" xMin="-2" yMin="0" xMax="601" yMax="802">
      <contour>
        <pt x="179" y="619" on="1"/>
        <pt x="128" y="619" on="0"/>
        <pt x="84" y="663" on="0"/>
        <pt x="84" y="711" on="1"/>
        <pt x="84" y="759" on="0"/>
        <pt x="128" y="802" on="0"/>
        <pt x="179" y="802" on="1"/>
        <pt x="230" y="802" on="0"/>
        <pt x="275" y="759" on="0"/>
        <pt x="275" y="711" on="1"/>
        <pt x="275" y="662" on="0"/>
        <pt x="230" y="619" on="0"/>
      </contour>
      <contour>
        <pt x="423" y="619" on="1"/>
        <pt x="372" y="619" on="0"/>
        <pt x="328" y="663" on="0"/>
        <pt x="328" y="711" on="1"/>
        <pt x="328" y="759" on="0"/>
        <pt x="372" y="802" on="0"/>
        <pt x="423" y="802" on="1"/>
        <pt x="474" y="802" on="0"/>
        <pt x="519" y="759" on="0"/>
        <pt x="519" y="711" on="1"/>
        <pt x="519" y="662" on="0"/>
        <pt x="474" y="619" on="0"/>
      </contour>
      <contour>
        <pt x="-2" y="6" on="1"/>
        <pt x="160" y="577" on="1"/>
        <pt x="439" y="577" on="1"/>
        <pt x="601" y="6" on="1"/>
        <pt x="601" y="0" on="1"/>
        <pt x="428" y="0" on="1"/>
        <pt x="396" y="104" on="1"/>
        <pt x="202" y="104" on="1"/>
        <pt x="170" y="0" on="1"/>
        <pt x="-2" y="0" on="1"/>
      </contour>
      <contour>
        <pt x="369" y="225" on="1"/>
        <pt x="326" y="370" on="1"/>
        <pt x="307" y="448" on="1"/>
        <pt x="292" y="448" on="1"/>
        <pt x="272" y="370" on="1"/>
        <pt x="229" y="225" on="1"/>
      </contour>
    </TTGlyph>
    <TTGlyph name="Agrave" xMin="-4" yMin="0" xMax="648" yMax="988">
      <contour>
        <pt x="-4" y="7" on="1"/>
        <pt x="173" y="740" on="1"/>
        <pt x="471" y="740" on="1"/>
        <pt x="648" y="7" on="1"/>
        <pt x="648" y="0" on="1"/>
        <pt x="465" y="0" on="1"/>
        <pt x="427" y="159" on="1"/>
        <pt x="216" y="159" on="1"/>
        <pt x="179" y="0" on="1"/>
        <pt x="-4" y="0" on="1"/>
      </contour>
      <contour>
        <pt x="391" y="314" on="1"/>
        <pt x="352" y="490" on="1"/>
        <pt x="328" y="598" on="1"/>
        <pt x="316" y="598" on="1"/>
        <pt x="292" y="490" on="1"/>
        <pt x="252" y="314" on="1"/>
      </contour>
      <contour>
        <pt x="253" y="790" on="1"/>
        <pt x="130" y="988" on="1"/>
        <pt x="324" y="988" on="1"/>
        <pt x="388" y="800" on="1"/>
      </contour>
    </TTGlyph>
    <TTGlyph name="Agrave.sc" xMin="-2" yMin="0" xMax="601" yMax="786">
      <contour>
        <pt x="-2" y="6" on="1"/>
        <pt x="160" y="577" on="1"/>
        <pt x="439" y="577" on="1"/>
        <pt x="601" y="6" on="1"/>
        <pt x="601" y="0" on="1"/>
        <pt x="428" y="0" on="1"/>
        <pt x="396" y="104" on="1"/>
        <pt x="202" y="104" on="1"/>
        <pt x="170" y="0" on="1"/>
        <pt x="-2" y="0" on="1"/>
      </contour>
      <contour>
        <pt x="369" y="225" on="1"/>
        <pt x="326" y="370" on="1"/>
        <pt x="307" y="448" on="1"/>
        <pt x="292" y="448" on="1"/>
        <pt x="272" y="370" on="1"/>
        <pt x="229" y="225" on="1"/>
      </contour>
      <contour>
        <pt x="234" y="618" on="1"/>
        <pt x="122" y="786" on="1"/>
        <pt x="304" y="786" on="1"/>
        <pt x="361" y="625" on="1"/>
      </contour>
    </TTGlyph>
    <TTGlyph name="Ainvertedbreve" xMin="-4" yMin="0" xMax="648" yMax="986">
      <contour>
        <pt x="-4" y="7" on="1"/>
        <pt x="173" y="740" on="1"/>
        <pt x="471" y="740" on="1"/>
        <pt x="648" y="7" on="1"/>
        <pt x="648" y="0" on="1"/>
        <pt x="465" y="0" on="1"/>
        <pt x="427" y="159" on="1"/>
        <pt x="216" y="159" on="1"/>
        <pt x="179" y="0" on="1"/>
        <pt x="-4" y="0" on="1"/>
      </contour>
      <contour>
        <pt x="391" y="314" on="1"/>
        <pt x="352" y="490" on="1"/>
        <pt x="328" y="598" on="1"/>
        <pt x="316" y="598" on="1"/>
        <pt x="292" y="490" on="1"/>
        <pt x="252" y="314" on="1"/>
      </contour>
      <contour>
        <pt x="386" y="800" on="1"/>
        <pt x="386" y="857" on="0"/>
        <pt x="361" y="900" on="0"/>
        <pt x="325" y="900" on="1"/>
        <pt x="306" y="900" on="0"/>
        <pt x="282" y="890" on="0"/>
        <pt x="268" y="867" on="0"/>
        <pt x="263" y="828" on="0"/>
        <pt x="263" y="800" on="1"/>
        <pt x="136" y="800" on="1"/>
        <pt x="136" y="888" on="0"/>
        <pt x="231" y="986" on="0"/>
        <pt x="325" y="986" on="1"/>
        <pt x="417" y="986" on="0"/>
        <pt x="514" y="888" on="0"/>
        <pt x="514" y="800" on="1"/>
      </contour>
    </TTGlyph>
    <TTGlyph name="Ainvertedbreve.sc" xMin="-2" yMin="0" xMax="601" yMax="776">
      <contour>
        <pt x="127" y="621" on="1"/>
        <pt x="127" y="693" on="0"/>
        <pt x="215" y="776" on="0"/>
        <pt x="303" y="776" on="1"/>
        <pt x="391" y="776" on="0"/>
        <pt x="479" y="693" on="0"/>
        <pt x="479" y="621" on="1"/>
        <pt x="359" y="621" on="1"/>
        <pt x="359" y="666" on="0"/>
        <pt x="337" y="698" on="0"/>
        <pt x="303" y="698" on="1"/>
        <pt x="268" y="698" on="0"/>
        <pt x="246" y="666" on="0"/>
        <pt x="246" y="621" on="1"/>
      </contour>
      <contour>
        <pt x="-2" y="6" on="1"/>
        <pt x="160" y="577" on="1"/>
        <pt x="439" y="577" on="1"/>
        <pt x="601" y="6" on="1"/>
        <pt x="601" y="0" on="1"/>
        <pt x="428" y="0" on="1"/>
        <pt x="396" y="104" on="1"/>
        <pt x="202" y="104" on="1"/>
        <pt x="170" y="0" on="1"/>
        <pt x="-2" y="0" on="1"/>
      </contour>
      <contour>
        <pt x="369" y="225" on="1"/>
        <pt x="326" y="370" on="1"/>
        <pt x="307" y="448" on="1"/>
        <pt x="292" y="448" on="1"/>
        <pt x="272" y="370" on="1"/>
        <pt x="229" y="225" on="1"/>
      </contour>
    </TTGlyph>
    <TTGlyph name="Amacron" xMin="-4" yMin="0" xMax="648" yMax="960">
      <contour>
        <pt x="-4" y="7" on="1"/>
        <pt x="173" y="740" on="1"/>
        <pt x="471" y="740" on="1"/>
        <pt x="648" y="7" on="1"/>
        <pt x="648" y="0" on="1"/>
        <pt x="465" y="0" on="1"/>
        <pt x="427" y="159" on="1"/>
        <pt x="216" y="159" on="1"/>
        <pt x="179" y="0" on="1"/>
        <pt x="-4" y="0" on="1"/>
      </contour>
      <contour>
        <pt x="391" y="314" on="1"/>
        <pt x="352" y="490" on="1"/>
        <pt x="328" y="598" on="1"/>
        <pt x="316" y="598" on="1"/>
        <pt x="292" y="490" on="1"/>
        <pt x="252" y="314" on="1"/>
      </contour>
      <contour>
        <pt x="152" y="960" on="1"/>
        <pt x="495" y="960" on="1"/>
        <pt x="495" y="836" on="1"/>
        <pt x="152" y="836" on="1"/>
      </contour>
    </TTGlyph>
    <TTGlyph name="Amacron.sc" xMin="-2" yMin="0" xMax="601" yMax="766">
      <contour>
        <pt x="-2" y="6" on="1"/>
        <pt x="160" y="577" on="1"/>
        <pt x="439" y="577" on="1"/>
        <pt x="601" y="6" on="1"/>
        <pt x="601" y="0" on="1"/>
        <pt x="428" y="0" on="1"/>
        <pt x="396" y="104" on="1"/>
        <pt x="202" y="104" on="1"/>
        <pt x="170" y="0" on="1"/>
        <pt x="-2" y="0" on="1"/>
      </contour>
      <contour>
        <pt x="369" y="225" on="1"/>
        <pt x="326" y="370" on="1"/>
        <pt x="307" y="448" on="1"/>
        <pt x="292" y="448" on="1"/>
        <pt x="272" y="370" on="1"/>
        <pt x="229" y="225" on="1"/>
      </contour>
      <contour>
        <pt x="142" y="766" on="1"/>
        <pt x="462" y="766" on="1"/>
        <pt x="462" y="651" on="1"/>
        <pt x="142" y="651" on="1"/>
      </contour>
    </TTGlyph>
    <TTGlyph name="Aogonek" xMin="-4" yMin="-220" xMax="648" yMax="740">
      <contour>
        <pt x="553" y="-220" on="1"/>
        <pt x="419" y="-220" on="0"/>
        <pt x="419" y="-116" on="1"/>
        <pt x="419" y="-84" on="0"/>
        <pt x="450" y="-32" on="0"/>
        <pt x="491" y="0" on="1"/>
        <pt x="465" y="0" on="1"/>
        <pt x="427" y="159" on="1"/>
        <pt x="216" y="159" on="1"/>
        <pt x="179" y="0" on="1"/>
        <pt x="-4" y="0" on="1"/>
        <pt x="-4" y="7" on="1"/>
        <pt x="173" y="740" on="1"/>
        <pt x="471" y="740" on="1"/>
        <pt x="648" y="7" on="1"/>
        <pt x="648" y="-5" on="1"/>
        <pt x="585" y="-30" on="0"/>
        <pt x="539" y="-82" on="0"/>
        <pt x="539" y="-95" on="1"/>
        <pt x="539" y="-105" on="0"/>
        <pt x="558" y="-113" on="0"/>
        <pt x="574" y="-113" on="1"/>
        <pt x="593" y="-113" on="0"/>
        <pt x="634" y="-105" on="0"/>
        <pt x="648" y="-100" on="1"/>
        <pt x="648" y="-208" on="1"/>
        <pt x="622" y="-213" on="0"/>
        <pt x="579" y="-220" on="0"/>
      </contour>
      <contour>
        <pt x="391" y="314" on="1"/>
        <pt x="352" y="490" on="1"/>
        <pt x="328" y="598" on="1"/>
        <pt x="316" y="598" on="1"/>
        <pt x="292" y="490" on="1"/>
        <pt x="252" y="314" on="1"/>
      </contour>
    </TTGlyph>
    <TTGlyph name="Aogonek.sc" xMin="-2" yMin="-165" xMax="601" yMax="577">
      <contour>
        <pt x="513" y="-165" on="1"/>
        <pt x="389" y="-165" on="0"/>
        <pt x="389" y="-81" on="1"/>
        <pt x="389" y="-58" on="0"/>
        <pt x="413" y="-22" on="0"/>
        <pt x="442" y="0" on="1"/>
        <pt x="428" y="0" on="1"/>
        <pt x="396" y="104" on="1"/>
        <pt x="202" y="104" on="1"/>
        <pt x="170" y="0" on="1"/>
        <pt x="-2" y="0" on="1"/>
        <pt x="-2" y="6" on="1"/>
        <pt x="160" y="577" on="1"/>
        <pt x="439" y="577" on="1"/>
        <pt x="601" y="6" on="1"/>
        <pt x="601" y="0" on="1"/>
        <pt x="570" y="-10" on="0"/>
        <pt x="531" y="-29" on="0"/>
        <pt x="509" y="-45" on="0"/>
        <pt x="501" y="-56" on="0"/>
        <pt x="501" y="-59" on="1"/>
        <pt x="501" y="-64" on="0"/>
        <pt x="517" y="-68" on="0"/>
        <pt x="531" y="-68" on="1"/>
        <pt x="548" y="-68" on="0"/>
        <pt x="587" y="-61" on="0"/>
        <pt x="601" y="-57" on="1"/>
        <pt x="601" y="-156" on="1"/>
        <pt x="577" y="-160" on="0"/>
        <pt x="536" y="-165" on="0"/>
      </contour>
      <contour>
        <pt x="368" y="225" on="1"/>
        <pt x="326" y="373" on="1"/>
        <pt x="307" y="448" on="1"/>
        <pt x="292" y="448" on="1"/>
        <pt x="272" y="373" on="1"/>
        <pt x="228" y="225" on="1"/>
      </contour>
    </TTGlyph>
    <TTGlyph name="Aring" xMin="-4" yMin="0" xMax="648" yMax="998">
      <contour>
        <pt x="-4" y="7" on="1"/>
        <pt x="173" y="740" on="1"/>
        <pt x="471" y="740" on="1"/>
        <pt x="648" y="7" on="1"/>
        <pt x="648" y="0" on="1"/>
        <pt x="465" y="0" on="1"/>
        <pt x="427" y="159" on="1"/>
        <pt x="216" y="159" on="1"/>
        <pt x="179" y="0" on="1"/>
        <pt x="-4" y="0" on="1"/>
      </contour>
      <contour>
        <pt x="391" y="314" on="1"/>
        <pt x="352" y="490" on="1"/>
        <pt x="328" y="598" on="1"/>
        <pt x="316" y="598" on="1"/>
        <pt x="292" y="490" on="1"/>
        <pt x="252" y="314" on="1"/>
      </contour>
      <contour>
        <pt x="320" y="767" on="1"/>
        <pt x="266" y="767" on="0"/>
        <pt x="197" y="832" on="0"/>
        <pt x="197" y="882" on="1"/>
        <pt x="197" y="933" on="0"/>
        <pt x="266" y="998" on="0"/>
        <pt x="320" y="998" on="1"/>
        <pt x="347" y="998" on="0"/>
        <pt x="392" y="981" on="0"/>
        <pt x="425" y="950" on="0"/>
        <pt x="443" y="907" on="0"/>
        <pt x="443" y="882" on="1"/>
        <pt x="443" y="857" on="0"/>
        <pt x="425" y="815" on="0"/>
        <pt x="392" y="784" on="0"/>
        <pt x="347" y="767" on="0"/>
      </contour>
      <contour>
        <pt x="320" y="829" on="1"/>
        <pt x="351" y="829" on="0"/>
        <pt x="375" y="853" on="0"/>
        <pt x="375" y="882" on="1"/>
        <pt x="375" y="911" on="0"/>
        <pt x="351" y="937" on="0"/>
        <pt x="320" y="937" on="1"/>
        <pt x="288" y="937" on="0"/>
        <pt x="265" y="911" on="0"/>
        <pt x="265" y="882" on="1"/>
        <pt x="265" y="853" on="0"/>
        <pt x="288" y="829" on="0"/>
      </contour>
    </TTGlyph>
    <TTGlyph name="Aring.sc" xMin="-2" yMin="0" xMax="601" yMax="796">
      <contour>
        <pt x="-2" y="6" on="1"/>
        <pt x="160" y="577" on="1"/>
        <pt x="439" y="577" on="1"/>
        <pt x="601" y="6" on="1"/>
        <pt x="601" y="0" on="1"/>
        <pt x="428" y="0" on="1"/>
        <pt x="396" y="104" on="1"/>
        <pt x="202" y="104" on="1"/>
        <pt x="170" y="0" on="1"/>
        <pt x="-2" y="0" on="1"/>
      </contour>
      <contour>
        <pt x="368" y="225" on="1"/>
        <pt x="326" y="370" on="1"/>
        <pt x="307" y="448" on="1"/>
        <pt x="292" y="448" on="1"/>
        <pt x="272" y="370" on="1"/>
        <pt x="228" y="225" on="1"/>
      </contour>
      <contour>
        <pt x="298" y="610" on="1"/>
        <pt x="249" y="610" on="0"/>
        <pt x="184" y="662" on="0"/>
        <pt x="184" y="702" on="1"/>
        <pt x="184" y="744" on="0"/>
        <pt x="249" y="796" on="0"/>
        <pt x="298" y="796" on="1"/>
        <pt x="348" y="796" on="0"/>
        <pt x="411" y="744" on="0"/>
        <pt x="411" y="702" on="1"/>
        <pt x="411" y="662" on="0"/>
        <pt x="348" y="610" on="0"/>
      </contour>
      <contour>
        <pt x="298" y="664" on="1"/>
        <pt x="326" y="664" on="0"/>
        <pt x="348" y="679" on="0"/>
        <pt x="348" y="702" on="1"/>
        <pt x="348" y="725" on="0"/>
        <pt x="326" y="743" on="0"/>
        <pt x="298" y="743" on="1"/>
        <pt x="269" y="743" on="0"/>
        <pt x="248" y="725" on="0"/>
        <pt x="248" y="702" on="1"/>
        <pt x="248" y="679" on="0"/>
        <pt x="269" y="664" on="0"/>
      </contour>
    </TTGlyph>
    <TTGlyph name="Aringacute" xMin="-5" yMin="0" xMax="647" yMax="1030">
      <contour>
        <pt x="-5" y="7" on="1"/>
        <pt x="169" y="677" on="1"/>
        <pt x="146" y="714" on="0"/>
        <pt x="146" y="760" on="1"/>
        <pt x="146" y="820" on="0"/>
        <pt x="214" y="900" on="0"/>
        <pt x="274" y="911" on="1"/>
        <pt x="315" y="1030" on="1"/>
        <pt x="509" y="1030" on="1"/>
        <pt x="421" y="889" on="1"/>
        <pt x="455" y="869" on="0"/>
        <pt x="493" y="803" on="0"/>
        <pt x="493" y="760" on="1"/>
        <pt x="493" y="714" on="0"/>
        <pt x="472" y="681" on="1"/>
        <pt x="647" y="7" on="1"/>
        <pt x="647" y="0" on="1"/>
        <pt x="464" y="0" on="1"/>
        <pt x="427" y="156" on="1"/>
        <pt x="214" y="156" on="1"/>
        <pt x="178" y="0" on="1"/>
        <pt x="-5" y="0" on="1"/>
      </contour>
      <contour>
        <pt x="319" y="694" on="1"/>
        <pt x="351" y="694" on="0"/>
        <pt x="389" y="731" on="0"/>
        <pt x="389" y="760" on="1"/>
        <pt x="389" y="790" on="0"/>
        <pt x="351" y="826" on="0"/>
        <pt x="319" y="826" on="1"/>
        <pt x="287" y="826" on="0"/>
        <pt x="250" y="790" on="0"/>
        <pt x="250" y="760" on="1"/>
        <pt x="250" y="730" on="0"/>
        <pt x="288" y="694" on="0"/>
      </contour>
      <contour>
        <pt x="389" y="318" on="1"/>
        <pt x="351" y="490" on="1"/>
        <pt x="329" y="598" on="1"/>
        <pt x="313" y="598" on="1"/>
        <pt x="291" y="490" on="1"/>
        <pt x="252" y="318" on="1"/>
      </contour>
    </TTGlyph>
    <TTGlyph name="Aringacute.sc" xMin="-3" yMin="0" xMax="600" yMax="825">
      <contour>
        <pt x="-3" y="6" on="1"/>
        <pt x="156" y="536" on="1"/>
        <pt x="146" y="551" on="0"/>
        <pt x="136" y="582" on="0"/>
        <pt x="136" y="600" on="1"/>
        <pt x="136" y="651" on="0"/>
        <pt x="199" y="717" on="0"/>
        <pt x="254" y="727" on="1"/>
        <pt x="290" y="825" on="1"/>
        <pt x="472" y="825" on="1"/>
        <pt x="392" y="707" on="1"/>
        <pt x="424" y="690" on="0"/>
        <pt x="459" y="635" on="0"/>
        <pt x="459" y="600" on="1"/>
        <pt x="459" y="565" on="0"/>
        <pt x="440" y="539" on="1"/>
        <pt x="600" y="6" on="1"/>
        <pt x="600" y="0" on="1"/>
        <pt x="427" y="0" on="1"/>
        <pt x="395" y="104" on="1"/>
        <pt x="201" y="104" on="1"/>
        <pt x="169" y="0" on="1"/>
        <pt x="-3" y="0" on="1"/>
      </contour>
      <contour>
        <pt x="297" y="549" on="1"/>
        <pt x="326" y="549" on="0"/>
        <pt x="361" y="577" on="0"/>
        <pt x="361" y="600" on="1"/>
        <pt x="361" y="624" on="0"/>
        <pt x="326" y="651" on="0"/>
        <pt x="297" y="651" on="1"/>
        <pt x="268" y="651" on="0"/>
        <pt x="233" y="624" on="0"/>
        <pt x="233" y="600" on="1"/>
        <pt x="233" y="577" on="0"/>
        <pt x="268" y="549" on="0"/>
      </contour>
      <contour>
        <pt x="368" y="225" on="1"/>
        <pt x="325" y="370" on="1"/>
        <pt x="305" y="461" on="1"/>
        <pt x="291" y="461" on="1"/>
        <pt x="271" y="370" on="1"/>
        <pt x="228" y="225" on="1"/>
      </contour>
    </TTGlyph>
    <TTGlyph name="Atilde" xMin="-4" yMin="0" xMax="648" yMax="965">
      <contour>
        <pt x="-4" y="7" on="1"/>
        <pt x="173" y="740" on="1"/>
        <pt x="471" y="740" on="1"/>
        <pt x="648" y="7" on="1"/>
        <pt x="648" y="0" on="1"/>
        <pt x="465" y="0" on="1"/>
        <pt x="427" y="159" on="1"/>
        <pt x="216" y="159" on="1"/>
        <pt x="179" y="0" on="1"/>
        <pt x="-4" y="0" on="1"/>
      </contour>
      <contour>
        <pt x="391" y="314" on="1"/>
        <pt x="352" y="490" on="1"/>
        <pt x="328" y="598" on="1"/>
        <pt x="316" y="598" on="1"/>
        <pt x="292" y="490" on="1"/>
        <pt x="252" y="314" on="1"/>
      </contour>
      <contour>
        <pt x="135" y="833" on="1"/>
        <pt x="167" y="900" on="0"/>
        <pt x="246" y="965" on="0"/>
        <pt x="284" y="965" on="1"/>
        <pt x="303" y="965" on="0"/>
        <pt x="342" y="953" on="0"/>
        <pt x="381" y="939" on="0"/>
        <pt x="420" y="927" on="0"/>
        <pt x="440" y="927" on="1"/>
        <pt x="460" y="927" on="0"/>
        <pt x="496" y="943" on="0"/>
        <pt x="519" y="965" on="1"/>
        <pt x="542" y="944" on="1"/>
        <pt x="510" y="876" on="0"/>
        <pt x="432" y="812" on="0"/>
        <pt x="393" y="812" on="1"/>
        <pt x="373" y="812" on="0"/>
        <pt x="334" y="824" on="0"/>
        <pt x="295" y="837" on="0"/>
        <pt x="256" y="849" on="0"/>
        <pt x="237" y="849" on="1"/>
        <pt x="217" y="849" on="0"/>
        <pt x="180" y="834" on="0"/>
        <pt x="157" y="812" on="1"/>
      </contour>
    </TTGlyph>
    <TTGlyph name="Atilde.sc" xMin="-2" yMin="0" xMax="601" yMax="768">
      <contour>
        <pt x="-2" y="6" on="1"/>
        <pt x="160" y="577" on="1"/>
        <pt x="439" y="577" on="1"/>
        <pt x="601" y="6" on="1"/>
        <pt x="601" y="0" on="1"/>
        <pt x="428" y="0" on="1"/>
        <pt x="396" y="104" on="1"/>
        <pt x="202" y="104" on="1"/>
        <pt x="170" y="0" on="1"/>
        <pt x="-2" y="0" on="1"/>
      </contour>
      <contour>
        <pt x="368" y="225" on="1"/>
        <pt x="326" y="370" on="1"/>
        <pt x="307" y="448" on="1"/>
        <pt x="292" y="448" on="1"/>
        <pt x="272" y="370" on="1"/>
        <pt x="228" y="225" on="1"/>
      </contour>
      <contour>
        <pt x="125" y="648" on="1"/>
        <pt x="154" y="710" on="0"/>
        <pt x="228" y="767" on="0"/>
        <pt x="263" y="767" on="1"/>
        <pt x="281" y="767" on="0"/>
        <pt x="317" y="758" on="0"/>
        <pt x="353" y="748" on="0"/>
        <pt x="390" y="739" on="0"/>
        <pt x="409" y="739" on="1"/>
        <pt x="427" y="739" on="0"/>
        <pt x="461" y="750" on="0"/>
        <pt x="483" y="768" on="1"/>
        <pt x="503" y="750" on="1"/>
        <pt x="474" y="689" on="0"/>
        <pt x="400" y="632" on="0"/>
        <pt x="365" y="632" on="1"/>
        <pt x="347" y="632" on="0"/>
        <pt x="310" y="641" on="0"/>
        <pt x="273" y="651" on="0"/>
        <pt x="236" y="660" on="0"/>
        <pt x="218" y="660" on="1"/>
        <pt x="200" y="660" on="0"/>
        <pt x="166" y="650" on="0"/>
        <pt x="144" y="632" on="1"/>
      </contour>
    </TTGlyph>
    <TTGlyph name="B" xMin="50" yMin="-10" xMax="583" yMax="750">
      <contour>
        <pt x="245" y="-10" on="1"/>
        <pt x="197" y="-10" on="0"/>
        <pt x="98" y="-3" on="0"/>
        <pt x="50" y="5" on="1"/>
        <pt x="50" y="735" on="1"/>
        <pt x="177" y="750" on="0"/>
        <pt x="261" y="750" on="1"/>
        <pt x="420" y="750" on="0"/>
        <pt x="565" y="648" on="0"/>
        <pt x="565" y="537" on="1"/>
        <pt x="565" y="413" on="0"/>
        <pt x="459" y="383" on="1"/>
        <pt x="459" y="379" on="1"/>
        <pt x="583" y="351" on="0"/>
        <pt x="583" y="205" on="1"/>
        <pt x="583" y="-10" on="0"/>
      </contour>
      <contour>
        <pt x="279" y="138" on="1"/>
        <pt x="330" y="138" on="0"/>
        <pt x="383" y="178" on="0"/>
        <pt x="383" y="216" on="1"/>
        <pt x="383" y="263" on="0"/>
        <pt x="337" y="300" on="0"/>
        <pt x="277" y="300" on="1"/>
        <pt x="228" y="300" on="1"/>
        <pt x="228" y="142" on="1"/>
        <pt x="237" y="140" on="0"/>
        <pt x="259" y="138" on="0"/>
      </contour>
      <contour>
        <pt x="276" y="440" on="1"/>
        <pt x="326" y="440" on="0"/>
        <pt x="365" y="476" on="0"/>
        <pt x="365" y="524" on="1"/>
        <pt x="365" y="602" on="0"/>
        <pt x="283" y="602" on="1"/>
        <pt x="272" y="602" on="0"/>
        <pt x="245" y="599" on="0"/>
        <pt x="228" y="597" on="1"/>
        <pt x="228" y="440" on="1"/>
      </contour>
    </TTGlyph>
    <TTGlyph name="B.sc" xMin="48" yMin="-8" xMax="542" yMax="585">
      <contour>
        <pt x="234" y="-8" on="1"/>
        <pt x="141" y="-8" on="0"/>
        <pt x="48" y="4" on="1"/>
        <pt x="48" y="573" on="1"/>
        <pt x="165" y="585" on="0"/>
        <pt x="246" y="585" on="1"/>
        <pt x="392" y="585" on="0"/>
        <pt x="525" y="504" on="0"/>
        <pt x="525" y="416" on="1"/>
        <pt x="525" y="324" on="0"/>
        <pt x="429" y="299" on="1"/>
        <pt x="429" y="296" on="1"/>
        <pt x="542" y="273" on="0"/>
        <pt x="542" y="162" on="1"/>
        <pt x="542" y="-8" on="0"/>
      </contour>
      <contour>
        <pt x="267" y="126" on="1"/>
        <pt x="315" y="126" on="0"/>
        <pt x="366" y="151" on="0"/>
        <pt x="366" y="175" on="1"/>
        <pt x="366" y="207" on="0"/>
        <pt x="321" y="229" on="0"/>
        <pt x="266" y="229" on="1"/>
        <pt x="216" y="229" on="1"/>
        <pt x="216" y="128" on="1"/>
        <pt x="224" y="126" on="0"/>
        <pt x="243" y="126" on="0"/>
      </contour>
      <contour>
        <pt x="263" y="349" on="1"/>
        <pt x="310" y="349" on="0"/>
        <pt x="345" y="371" on="0"/>
        <pt x="345" y="403" on="1"/>
        <pt x="345" y="429" on="0"/>
        <pt x="308" y="451" on="0"/>
        <pt x="269" y="451" on="1"/>
        <pt x="246" y="451" on="0"/>
        <pt x="216" y="448" on="1"/>
        <pt x="216" y="349" on="1"/>
      </contour>
    </TTGlyph>
    <TTGlyph name="C" xMin="26" yMin="-9" xMax="484" yMax="749">
      <contour>
        <pt x="330" y="-9" on="1"/>
        <pt x="181" y="-9" on="0"/>
        <pt x="26" y="176" on="0"/>
        <pt x="26" y="370" on="1"/>
        <pt x="26" y="563" on="0"/>
        <pt x="183" y="749" on="0"/>
        <pt x="329" y="749" on="1"/>
        <pt x="403" y="749" on="0"/>
        <pt x="484" y="731" on="1"/>
        <pt x="484" y="578" on="1"/>
        <pt x="450" y="584" on="0"/>
        <pt x="385" y="590" on="0"/>
        <pt x="359" y="590" on="1"/>
        <pt x="322" y="590" on="0"/>
        <pt x="271" y="573" on="0"/>
        <pt x="240" y="524" on="0"/>
        <pt x="226" y="438" on="0"/>
        <pt x="226" y="369" on="1"/>
        <pt x="226" y="300" on="0"/>
        <pt x="240" y="214" on="0"/>
        <pt x="271" y="167" on="0"/>
        <pt x="322" y="150" on="0"/>
        <pt x="359" y="150" on="1"/>
        <pt x="394" y="150" on="0"/>
        <pt x="455" y="157" on="0"/>
        <pt x="484" y="165" on="1"/>
        <pt x="484" y="16" on="1"/>
        <pt x="473" y="11" on="0"/>
        <pt x="440" y="2" on="0"/>
        <pt x="398" y="-5" on="0"/>
        <pt x="352" y="-9" on="0"/>
      </contour>
    </TTGlyph>
    <TTGlyph name="C.sc" xMin="25" yMin="-7" xMax="447" yMax="585">
      <contour>
        <pt x="306" y="-7" on="1"/>
        <pt x="167" y="-7" on="0"/>
        <pt x="25" y="137" on="0"/>
        <pt x="25" y="289" on="1"/>
        <pt x="25" y="438" on="0"/>
        <pt x="168" y="585" on="0"/>
        <pt x="304" y="585" on="1"/>
        <pt x="337" y="585" on="0"/>
        <pt x="408" y="577" on="0"/>
        <pt x="447" y="569" on="1"/>
        <pt x="447" y="427" on="1"/>
        <pt x="413" y="432" on="0"/>
        <pt x="354" y="437" on="0"/>
        <pt x="331" y="437" on="1"/>
        <pt x="298" y="437" on="0"/>
        <pt x="253" y="427" on="0"/>
        <pt x="225" y="395" on="0"/>
        <pt x="213" y="337" on="0"/>
        <pt x="213" y="288" on="1"/>
        <pt x="213" y="238" on="0"/>
        <pt x="225" y="180" on="0"/>
        <pt x="252" y="150" on="0"/>
        <pt x="298" y="141" on="0"/>
        <pt x="331" y="141" on="1"/>
        <pt x="396" y="141" on="0"/>
        <pt x="447" y="154" on="1"/>
        <pt x="447" y="15" on="1"/>
        <pt x="437" y="10" on="0"/>
        <pt x="405" y="2" on="0"/>
        <pt x="368" y="-4" on="0"/>
        <pt x="326" y="-7" on="0"/>
      </contour>
    </TTGlyph>
    <TTGlyph name="Cacute" xMin="26" yMin="-9" xMax="484" yMax="988">
      <contour>
        <pt x="330" y="-9" on="1"/>
        <pt x="181" y="-9" on="0"/>
        <pt x="26" y="176" on="0"/>
        <pt x="26" y="370" on="1"/>
        <pt x="26" y="563" on="0"/>
        <pt x="183" y="749" on="0"/>
        <pt x="329" y="749" on="1"/>
        <pt x="403" y="749" on="0"/>
        <pt x="484" y="731" on="1"/>
        <pt x="484" y="578" on="1"/>
        <pt x="450" y="584" on="0"/>
        <pt x="385" y="590" on="0"/>
        <pt x="359" y="590" on="1"/>
        <pt x="322" y="590" on="0"/>
        <pt x="271" y="573" on="0"/>
        <pt x="240" y="524" on="0"/>
        <pt x="226" y="438" on="0"/>
        <pt x="226" y="369" on="1"/>
        <pt x="226" y="300" on="0"/>
        <pt x="240" y="214" on="0"/>
        <pt x="271" y="167" on="0"/>
        <pt x="322" y="150" on="0"/>
        <pt x="359" y="150" on="1"/>
        <pt x="394" y="150" on="0"/>
        <pt x="455" y="157" on="0"/>
        <pt x="484" y="165" on="1"/>
        <pt x="484" y="16" on="1"/>
        <pt x="473" y="11" on="0"/>
        <pt x="440" y="2" on="0"/>
        <pt x="398" y="-5" on="0"/>
        <pt x="352" y="-9" on="0"/>
      </contour>
      <contour>
        <pt x="208" y="800" on="1"/>
        <pt x="272" y="988" on="1"/>
        <pt x="466" y="988" on="1"/>
        <pt x="343" y="790" on="1"/>
      </contour>
    </TTGlyph>
    <TTGlyph name="Cacute.sc" xMin="25" yMin="-7" xMax="447" yMax="786">
      <contour>
        <pt x="306" y="-7" on="1"/>
        <pt x="167" y="-7" on="0"/>
        <pt x="25" y="137" on="0"/>
        <pt x="25" y="289" on="1"/>
        <pt x="25" y="438" on="0"/>
        <pt x="168" y="585" on="0"/>
        <pt x="304" y="585" on="1"/>
        <pt x="337" y="585" on="0"/>
        <pt x="408" y="577" on="0"/>
        <pt x="447" y="569" on="1"/>
        <pt x="447" y="427" on="1"/>
        <pt x="413" y="432" on="0"/>
        <pt x="354" y="437" on="0"/>
        <pt x="331" y="437" on="1"/>
        <pt x="298" y="437" on="0"/>
        <pt x="253" y="427" on="0"/>
        <pt x="225" y="395" on="0"/>
        <pt x="213" y="337" on="0"/>
        <pt x="213" y="288" on="1"/>
        <pt x="213" y="238" on="0"/>
        <pt x="225" y="180" on="0"/>
        <pt x="252" y="150" on="0"/>
        <pt x="298" y="141" on="0"/>
        <pt x="331" y="141" on="1"/>
        <pt x="396" y="141" on="0"/>
        <pt x="447" y="154" on="1"/>
        <pt x="447" y="15" on="1"/>
        <pt x="437" y="10" on="0"/>
        <pt x="405" y="2" on="0"/>
        <pt x="368" y="-4" on="0"/>
        <pt x="326" y="-7" on="0"/>
      </contour>
      <contour>
        <pt x="191" y="627" on="1"/>
        <pt x="248" y="786" on="1"/>
        <pt x="430" y="786" on="1"/>
        <pt x="317" y="618" on="1"/>
      </contour>
    </TTGlyph>
    <TTGlyph name="Ccaron" xMin="26" yMin="-9" xMax="484" yMax="981">
      <contour>
        <pt x="330" y="-9" on="1"/>
        <pt x="181" y="-9" on="0"/>
        <pt x="26" y="176" on="0"/>
        <pt x="26" y="370" on="1"/>
        <pt x="26" y="563" on="0"/>
        <pt x="183" y="749" on="0"/>
        <pt x="329" y="749" on="1"/>
        <pt x="403" y="749" on="0"/>
        <pt x="484" y="731" on="1"/>
        <pt x="484" y="578" on="1"/>
        <pt x="450" y="584" on="0"/>
        <pt x="385" y="590" on="0"/>
        <pt x="359" y="590" on="1"/>
        <pt x="322" y="590" on="0"/>
        <pt x="271" y="573" on="0"/>
        <pt x="240" y="524" on="0"/>
        <pt x="226" y="438" on="0"/>
        <pt x="226" y="369" on="1"/>
        <pt x="226" y="300" on="0"/>
        <pt x="240" y="214" on="0"/>
        <pt x="271" y="167" on="0"/>
        <pt x="322" y="150" on="0"/>
        <pt x="359" y="150" on="1"/>
        <pt x="394" y="150" on="0"/>
        <pt x="455" y="157" on="0"/>
        <pt x="484" y="165" on="1"/>
        <pt x="484" y="16" on="1"/>
        <pt x="473" y="11" on="0"/>
        <pt x="440" y="2" on="0"/>
        <pt x="398" y="-5" on="0"/>
        <pt x="352" y="-9" on="0"/>
      </contour>
      <contour>
        <pt x="122" y="981" on="1"/>
        <pt x="293" y="910" on="1"/>
        <pt x="464" y="981" on="1"/>
        <pt x="464" y="857" on="1"/>
        <pt x="294" y="786" on="1"/>
        <pt x="122" y="857" on="1"/>
      </contour>
    </TTGlyph>
    <TTGlyph name="Ccaron.sc" xMin="25" yMin="-7" xMax="447" yMax="780">
      <contour>
        <pt x="306" y="-7" on="1"/>
        <pt x="167" y="-7" on="0"/>
        <pt x="25" y="137" on="0"/>
        <pt x="25" y="289" on="1"/>
        <pt x="25" y="438" on="0"/>
        <pt x="168" y="585" on="0"/>
        <pt x="304" y="585" on="1"/>
        <pt x="337" y="585" on="0"/>
        <pt x="408" y="577" on="0"/>
        <pt x="447" y="569" on="1"/>
        <pt x="447" y="427" on="1"/>
        <pt x="413" y="432" on="0"/>
        <pt x="354" y="437" on="0"/>
        <pt x="331" y="437" on="1"/>
        <pt x="298" y="437" on="0"/>
        <pt x="253" y="427" on="0"/>
        <pt x="225" y="395" on="0"/>
        <pt x="213" y="337" on="0"/>
        <pt x="213" y="288" on="1"/>
        <pt x="213" y="238" on="0"/>
        <pt x="225" y="180" on="0"/>
        <pt x="252" y="150" on="0"/>
        <pt x="298" y="141" on="0"/>
        <pt x="331" y="141" on="1"/>
        <pt x="396" y="141" on="0"/>
        <pt x="447" y="154" on="1"/>
        <pt x="447" y="15" on="1"/>
        <pt x="437" y="10" on="0"/>
        <pt x="405" y="2" on="0"/>
        <pt x="368" y="-4" on="0"/>
        <pt x="326" y="-7" on="0"/>
      </contour>
      <contour>
        <pt x="110" y="780" on="1"/>
        <pt x="270" y="724" on="1"/>
        <pt x="429" y="780" on="1"/>
        <pt x="429" y="667" on="1"/>
        <pt x="270" y="611" on="1"/>
        <pt x="110" y="667" on="1"/>
      </contour>
    </TTGlyph>
    <TTGlyph name="Ccedilla" xMin="26" yMin="-220" xMax="484" yMax="749">
      <contour>
        <pt x="268" y="-220" on="1"/>
        <pt x="252" y="-220" on="0"/>
        <pt x="206" y="-215" on="0"/>
        <pt x="179" y="-208" on="1"/>
        <pt x="179" y="-100" on="1"/>
        <pt x="199" y="-104" on="0"/>
        <pt x="235" y="-106" on="0"/>
        <pt x="238" y="-106" on="1"/>
        <pt x="255" y="-106" on="0"/>
        <pt x="268" y="-90" on="0"/>
        <pt x="268" y="-80" on="1"/>
        <pt x="268" y="-65" on="0"/>
        <pt x="251" y="-23" on="0"/>
        <pt x="236" y="1" on="1"/>
        <pt x="132" y="27" on="0"/>
        <pt x="26" y="209" on="0"/>
        <pt x="26" y="370" on="1"/>
        <pt x="26" y="563" on="0"/>
        <pt x="183" y="749" on="0"/>
        <pt x="329" y="749" on="1"/>
        <pt x="403" y="749" on="0"/>
        <pt x="484" y="731" on="1"/>
        <pt x="484" y="578" on="1"/>
        <pt x="450" y="584" on="0"/>
        <pt x="385" y="590" on="0"/>
        <pt x="359" y="590" on="1"/>
        <pt x="322" y="590" on="0"/>
        <pt x="271" y="573" on="0"/>
        <pt x="240" y="524" on="0"/>
        <pt x="226" y="438" on="0"/>
        <pt x="226" y="369" on="1"/>
        <pt x="226" y="300" on="0"/>
        <pt x="240" y="214" on="0"/>
        <pt x="271" y="167" on="0"/>
        <pt x="322" y="150" on="0"/>
        <pt x="359" y="150" on="1"/>
        <pt x="394" y="150" on="0"/>
        <pt x="455" y="157" on="0"/>
        <pt x="484" y="165" on="1"/>
        <pt x="484" y="16" on="1"/>
        <pt x="466" y="7" on="0"/>
        <pt x="396" y="-6" on="0"/>
        <pt x="358" y="-8" on="1"/>
        <pt x="375" y="-36" on="0"/>
        <pt x="390" y="-85" on="0"/>
        <pt x="390" y="-114" on="1"/>
        <pt x="390" y="-162" on="0"/>
        <pt x="328" y="-220" on="0"/>
      </contour>
    </TTGlyph>
    <TTGlyph name="Ccedilla.sc" xMin="25" yMin="-172" xMax="447" yMax="585">
      <contour>
        <pt x="250" y="-172" on="1"/>
        <pt x="235" y="-172" on="0"/>
        <pt x="192" y="-167" on="0"/>
        <pt x="167" y="-162" on="1"/>
        <pt x="167" y="-64" on="1"/>
        <pt x="186" y="-66" on="0"/>
        <pt x="219" y="-68" on="0"/>
        <pt x="222" y="-68" on="1"/>
        <pt x="236" y="-68" on="0"/>
        <pt x="248" y="-59" on="0"/>
        <pt x="248" y="-57" on="1"/>
        <pt x="248" y="-47" on="0"/>
        <pt x="234" y="-17" on="0"/>
        <pt x="222" y="1" on="1"/>
        <pt x="125" y="21" on="0"/>
        <pt x="25" y="162" on="0"/>
        <pt x="25" y="289" on="1"/>
        <pt x="25" y="438" on="0"/>
        <pt x="168" y="585" on="0"/>
        <pt x="304" y="585" on="1"/>
        <pt x="337" y="585" on="0"/>
        <pt x="408" y="577" on="0"/>
        <pt x="447" y="569" on="1"/>
        <pt x="447" y="427" on="1"/>
        <pt x="413" y="432" on="0"/>
        <pt x="354" y="437" on="0"/>
        <pt x="331" y="437" on="1"/>
        <pt x="298" y="437" on="0"/>
        <pt x="253" y="427" on="0"/>
        <pt x="225" y="395" on="0"/>
        <pt x="213" y="337" on="0"/>
        <pt x="213" y="288" on="1"/>
        <pt x="213" y="238" on="0"/>
        <pt x="225" y="180" on="0"/>
        <pt x="252" y="150" on="0"/>
        <pt x="298" y="141" on="0"/>
        <pt x="331" y="141" on="1"/>
        <pt x="396" y="141" on="0"/>
        <pt x="447" y="154" on="1"/>
        <pt x="447" y="15" on="1"/>
        <pt x="430" y="7" on="0"/>
        <pt x="368" y="-4" on="0"/>
        <pt x="334" y="-6" on="1"/>
        <pt x="348" y="-28" on="0"/>
        <pt x="361" y="-66" on="0"/>
        <pt x="361" y="-89" on="1"/>
        <pt x="361" y="-125" on="0"/>
        <pt x="305" y="-172" on="0"/>
      </contour>
    </TTGlyph>
    <TTGlyph name="Ccircumflex" xMin="26" yMin="-9" xMax="484" yMax="981">
      <contour>
        <pt x="330" y="-9" on="1"/>
        <pt x="181" y="-9" on="0"/>
        <pt x="26" y="176" on="0"/>
        <pt x="26" y="370" on="1"/>
        <pt x="26" y="563" on="0"/>
        <pt x="183" y="749" on="0"/>
        <pt x="329" y="749" on="1"/>
        <pt x="403" y="749" on="0"/>
        <pt x="484" y="731" on="1"/>
        <pt x="484" y="578" on="1"/>
        <pt x="450" y="584" on="0"/>
        <pt x="385" y="590" on="0"/>
        <pt x="359" y="590" on="1"/>
        <pt x="322" y="590" on="0"/>
        <pt x="271" y="573" on="0"/>
        <pt x="240" y="524" on="0"/>
        <pt x="226" y="438" on="0"/>
        <pt x="226" y="369" on="1"/>
        <pt x="226" y="300" on="0"/>
        <pt x="240" y="214" on="0"/>
        <pt x="271" y="167" on="0"/>
        <pt x="322" y="150" on="0"/>
        <pt x="359" y="150" on="1"/>
        <pt x="394" y="150" on="0"/>
        <pt x="455" y="157" on="0"/>
        <pt x="484" y="165" on="1"/>
        <pt x="484" y="16" on="1"/>
        <pt x="473" y="11" on="0"/>
        <pt x="440" y="2" on="0"/>
        <pt x="398" y="-5" on="0"/>
        <pt x="352" y="-9" on="0"/>
      </contour>
      <contour>
        <pt x="112" y="910" on="1"/>
        <pt x="284" y="981" on="1"/>
        <pt x="454" y="910" on="1"/>
        <pt x="454" y="786" on="1"/>
        <pt x="283" y="857" on="1"/>
        <pt x="112" y="786" on="1"/>
      </contour>
    </TTGlyph>
    <TTGlyph name="Ccircumflex.sc" xMin="25" yMin="-7" xMax="447" yMax="777">
      <contour>
        <pt x="306" y="-7" on="1"/>
        <pt x="167" y="-7" on="0"/>
        <pt x="25" y="137" on="0"/>
        <pt x="25" y="289" on="1"/>
        <pt x="25" y="438" on="0"/>
        <pt x="168" y="585" on="0"/>
        <pt x="304" y="585" on="1"/>
        <pt x="337" y="585" on="0"/>
        <pt x="408" y="577" on="0"/>
        <pt x="447" y="569" on="1"/>
        <pt x="447" y="427" on="1"/>
        <pt x="413" y="432" on="0"/>
        <pt x="354" y="437" on="0"/>
        <pt x="331" y="437" on="1"/>
        <pt x="298" y="437" on="0"/>
        <pt x="253" y="427" on="0"/>
        <pt x="225" y="395" on="0"/>
        <pt x="213" y="337" on="0"/>
        <pt x="213" y="288" on="1"/>
        <pt x="213" y="238" on="0"/>
        <pt x="225" y="180" on="0"/>
        <pt x="252" y="150" on="0"/>
        <pt x="298" y="141" on="0"/>
        <pt x="331" y="141" on="1"/>
        <pt x="396" y="141" on="0"/>
        <pt x="447" y="154" on="1"/>
        <pt x="447" y="15" on="1"/>
        <pt x="437" y="10" on="0"/>
        <pt x="405" y="2" on="0"/>
        <pt x="368" y="-4" on="0"/>
        <pt x="326" y="-7" on="0"/>
      </contour>
      <contour>
        <pt x="101" y="721" on="1"/>
        <pt x="262" y="777" on="1"/>
        <pt x="420" y="721" on="1"/>
        <pt x="420" y="608" on="1"/>
        <pt x="261" y="664" on="1"/>
        <pt x="101" y="608" on="1"/>
      </contour>
    </TTGlyph>
    <TTGlyph name="Cdotaccent" xMin="26" yMin="-9" xMax="484" yMax="997">
      <contour>
        <pt x="283" y="798" on="1"/>
        <pt x="228" y="798" on="0"/>
        <pt x="181" y="845" on="0"/>
        <pt x="181" y="898" on="1"/>
        <pt x="181" y="951" on="0"/>
        <pt x="228" y="997" on="0"/>
        <pt x="283" y="997" on="1"/>
        <pt x="337" y="997" on="0"/>
        <pt x="386" y="951" on="0"/>
        <pt x="386" y="898" on="1"/>
        <pt x="386" y="844" on="0"/>
        <pt x="337" y="798" on="0"/>
      </contour>
      <contour>
        <pt x="330" y="-9" on="1"/>
        <pt x="181" y="-9" on="0"/>
        <pt x="26" y="176" on="0"/>
        <pt x="26" y="370" on="1"/>
        <pt x="26" y="563" on="0"/>
        <pt x="183" y="749" on="0"/>
        <pt x="329" y="749" on="1"/>
        <pt x="403" y="749" on="0"/>
        <pt x="484" y="731" on="1"/>
        <pt x="484" y="578" on="1"/>
        <pt x="450" y="584" on="0"/>
        <pt x="385" y="590" on="0"/>
        <pt x="359" y="590" on="1"/>
        <pt x="322" y="590" on="0"/>
        <pt x="271" y="573" on="0"/>
        <pt x="240" y="524" on="0"/>
        <pt x="226" y="438" on="0"/>
        <pt x="226" y="369" on="1"/>
        <pt x="226" y="300" on="0"/>
        <pt x="240" y="214" on="0"/>
        <pt x="271" y="167" on="0"/>
        <pt x="322" y="150" on="0"/>
        <pt x="359" y="150" on="1"/>
        <pt x="394" y="150" on="0"/>
        <pt x="455" y="157" on="0"/>
        <pt x="484" y="165" on="1"/>
        <pt x="484" y="16" on="1"/>
        <pt x="473" y="11" on="0"/>
        <pt x="440" y="2" on="0"/>
        <pt x="398" y="-5" on="0"/>
        <pt x="352" y="-9" on="0"/>
      </contour>
    </TTGlyph>
    <TTGlyph name="Cdotaccent.sc" xMin="25" yMin="-7" xMax="447" yMax="804">
      <contour>
        <pt x="306" y="-7" on="1"/>
        <pt x="167" y="-7" on="0"/>
        <pt x="25" y="137" on="0"/>
        <pt x="25" y="289" on="1"/>
        <pt x="25" y="438" on="0"/>
        <pt x="168" y="585" on="0"/>
        <pt x="304" y="585" on="1"/>
        <pt x="337" y="585" on="0"/>
        <pt x="408" y="577" on="0"/>
        <pt x="447" y="569" on="1"/>
        <pt x="447" y="427" on="1"/>
        <pt x="413" y="432" on="0"/>
        <pt x="354" y="437" on="0"/>
        <pt x="331" y="437" on="1"/>
        <pt x="298" y="437" on="0"/>
        <pt x="253" y="427" on="0"/>
        <pt x="225" y="395" on="0"/>
        <pt x="213" y="337" on="0"/>
        <pt x="213" y="288" on="1"/>
        <pt x="213" y="238" on="0"/>
        <pt x="225" y="180" on="0"/>
        <pt x="252" y="150" on="0"/>
        <pt x="298" y="141" on="0"/>
        <pt x="331" y="141" on="1"/>
        <pt x="396" y="141" on="0"/>
        <pt x="447" y="154" on="1"/>
        <pt x="447" y="15" on="1"/>
        <pt x="437" y="10" on="0"/>
        <pt x="405" y="2" on="0"/>
        <pt x="368" y="-4" on="0"/>
        <pt x="326" y="-7" on="0"/>
      </contour>
      <contour>
        <pt x="263" y="622" on="1"/>
        <pt x="211" y="622" on="0"/>
        <pt x="167" y="665" on="0"/>
        <pt x="167" y="714" on="1"/>
        <pt x="167" y="762" on="0"/>
        <pt x="211" y="804" on="0"/>
        <pt x="263" y="804" on="1"/>
        <pt x="313" y="804" on="0"/>
        <pt x="359" y="762" on="0"/>
        <pt x="359" y="714" on="1"/>
        <pt x="359" y="665" on="0"/>
        <pt x="313" y="622" on="0"/>
      </contour>
    </TTGlyph>
    <TTGlyph name="D" xMin="50" yMin="-12" xMax="628" yMax="749">
      <contour>
        <pt x="245" y="-12" on="1"/>
        <pt x="207" y="-12" on="0"/>
        <pt x="116" y="-6" on="0"/>
        <pt x="50" y="0" on="1"/>
        <pt x="50" y="740" on="1"/>
        <pt x="118" y="744" on="0"/>
        <pt x="209" y="749" on="0"/>
        <pt x="247" y="749" on="1"/>
        <pt x="352" y="749" on="0"/>
        <pt x="497" y="709" on="0"/>
        <pt x="588" y="619" on="0"/>
        <pt x="628" y="474" on="0"/>
        <pt x="628" y="369" on="1"/>
        <pt x="628" y="264" on="0"/>
        <pt x="587" y="119" on="0"/>
        <pt x="496" y="29" on="0"/>
        <pt x="350" y="-12" on="0"/>
      </contour>
      <contour>
        <pt x="314" y="144" on="1"/>
        <pt x="349" y="144" on="0"/>
        <pt x="394" y="162" on="0"/>
        <pt x="419" y="212" on="0"/>
        <pt x="428" y="300" on="0"/>
        <pt x="428" y="370" on="1"/>
        <pt x="428" y="439" on="0"/>
        <pt x="416" y="526" on="0"/>
        <pt x="385" y="576" on="0"/>
        <pt x="329" y="595" on="0"/>
        <pt x="285" y="595" on="1"/>
        <pt x="268" y="595" on="0"/>
        <pt x="249" y="593" on="0"/>
        <pt x="241" y="591" on="1"/>
        <pt x="241" y="149" on="1"/>
        <pt x="268" y="146" on="0"/>
        <pt x="300" y="144" on="0"/>
      </contour>
    </TTGlyph>
    <TTGlyph name="D.sc" xMin="48" yMin="-8" xMax="583" yMax="584">
      <contour>
        <pt x="230" y="-8" on="1"/>
        <pt x="194" y="-8" on="0"/>
        <pt x="108" y="-3" on="0"/>
        <pt x="48" y="2" on="1"/>
        <pt x="48" y="579" on="1"/>
        <pt x="113" y="581" on="0"/>
        <pt x="198" y="584" on="0"/>
        <pt x="233" y="584" on="1"/>
        <pt x="329" y="584" on="0"/>
        <pt x="463" y="553" on="0"/>
        <pt x="546" y="484" on="0"/>
        <pt x="583" y="370" on="0"/>
        <pt x="583" y="288" on="1"/>
        <pt x="583" y="205" on="0"/>
        <pt x="546" y="92" on="0"/>
        <pt x="462" y="23" on="0"/>
        <pt x="327" y="-8" on="0"/>
      </contour>
      <contour>
        <pt x="296" y="137" on="1"/>
        <pt x="327" y="137" on="0"/>
        <pt x="366" y="146" on="0"/>
        <pt x="388" y="178" on="0"/>
        <pt x="396" y="238" on="0"/>
        <pt x="396" y="289" on="1"/>
        <pt x="396" y="338" on="0"/>
        <pt x="386" y="398" on="0"/>
        <pt x="357" y="430" on="0"/>
        <pt x="308" y="441" on="0"/>
        <pt x="269" y="441" on="1"/>
        <pt x="253" y="441" on="0"/>
        <pt x="236" y="440" on="0"/>
        <pt x="228" y="439" on="1"/>
        <pt x="228" y="141" on="1"/>
        <pt x="252" y="138" on="0"/>
        <pt x="282" y="137" on="0"/>
      </contour>
    </TTGlyph>
    <TTGlyph name="Dcaron" xMin="50" yMin="-12" xMax="628" yMax="981">
      <contour>
        <pt x="149" y="981" on="1"/>
        <pt x="320" y="910" on="1"/>
        <pt x="491" y="981" on="1"/>
        <pt x="491" y="857" on="1"/>
        <pt x="321" y="786" on="1"/>
        <pt x="149" y="857" on="1"/>
      </contour>
      <contour>
        <pt x="245" y="-12" on="1"/>
        <pt x="207" y="-12" on="0"/>
        <pt x="116" y="-6" on="0"/>
        <pt x="50" y="0" on="1"/>
        <pt x="50" y="740" on="1"/>
        <pt x="118" y="744" on="0"/>
        <pt x="209" y="749" on="0"/>
        <pt x="247" y="749" on="1"/>
        <pt x="352" y="749" on="0"/>
        <pt x="497" y="709" on="0"/>
        <pt x="588" y="619" on="0"/>
        <pt x="628" y="474" on="0"/>
        <pt x="628" y="369" on="1"/>
        <pt x="628" y="264" on="0"/>
        <pt x="587" y="119" on="0"/>
        <pt x="496" y="29" on="0"/>
        <pt x="350" y="-12" on="0"/>
      </contour>
      <contour>
        <pt x="314" y="144" on="1"/>
        <pt x="349" y="144" on="0"/>
        <pt x="394" y="162" on="0"/>
        <pt x="419" y="212" on="0"/>
        <pt x="428" y="300" on="0"/>
        <pt x="428" y="370" on="1"/>
        <pt x="428" y="439" on="0"/>
        <pt x="416" y="526" on="0"/>
        <pt x="385" y="576" on="0"/>
        <pt x="329" y="595" on="0"/>
        <pt x="285" y="595" on="1"/>
        <pt x="268" y="595" on="0"/>
        <pt x="249" y="593" on="0"/>
        <pt x="241" y="591" on="1"/>
        <pt x="241" y="149" on="1"/>
        <pt x="268" y="146" on="0"/>
        <pt x="300" y="144" on="0"/>
      </contour>
    </TTGlyph>
    <TTGlyph name="Dcaron.sc" xMin="48" yMin="-8" xMax="583" yMax="780">
      <contour>
        <pt x="230" y="-8" on="1"/>
        <pt x="194" y="-8" on="0"/>
        <pt x="108" y="-3" on="0"/>
        <pt x="48" y="2" on="1"/>
        <pt x="48" y="579" on="1"/>
        <pt x="113" y="581" on="0"/>
        <pt x="198" y="584" on="0"/>
        <pt x="233" y="584" on="1"/>
        <pt x="329" y="584" on="0"/>
        <pt x="463" y="553" on="0"/>
        <pt x="546" y="484" on="0"/>
        <pt x="583" y="370" on="0"/>
        <pt x="583" y="288" on="1"/>
        <pt x="583" y="205" on="0"/>
        <pt x="546" y="92" on="0"/>
        <pt x="462" y="23" on="0"/>
        <pt x="327" y="-8" on="0"/>
      </contour>
      <contour>
        <pt x="296" y="137" on="1"/>
        <pt x="327" y="137" on="0"/>
        <pt x="366" y="146" on="0"/>
        <pt x="388" y="178" on="0"/>
        <pt x="396" y="238" on="0"/>
        <pt x="396" y="289" on="1"/>
        <pt x="396" y="338" on="0"/>
        <pt x="386" y="398" on="0"/>
        <pt x="357" y="430" on="0"/>
        <pt x="308" y="441" on="0"/>
        <pt x="269" y="441" on="1"/>
        <pt x="253" y="441" on="0"/>
        <pt x="236" y="440" on="0"/>
        <pt x="228" y="439" on="1"/>
        <pt x="228" y="141" on="1"/>
        <pt x="252" y="138" on="0"/>
        <pt x="282" y="137" on="0"/>
      </contour>
      <contour>
        <pt x="140" y="667" on="1"/>
        <pt x="140" y="780" on="1"/>
        <pt x="300" y="724" on="1"/>
        <pt x="459" y="780" on="1"/>
        <pt x="459" y="667" on="1"/>
        <pt x="300" y="611" on="1"/>
      </contour>
    </TTGlyph>
    <TTGlyph name="Dcroat" xMin="-2" yMin="-12" xMax="655" yMax="749">
      <contour>
        <pt x="-2" y="446" on="1"/>
        <pt x="77" y="446" on="1"/>
        <pt x="77" y="740" on="1"/>
        <pt x="145" y="744" on="0"/>
        <pt x="236" y="749" on="0"/>
        <pt x="274" y="749" on="1"/>
        <pt x="379" y="749" on="0"/>
        <pt x="524" y="709" on="0"/>
        <pt x="615" y="619" on="0"/>
        <pt x="655" y="474" on="0"/>
        <pt x="655" y="369" on="1"/>
        <pt x="655" y="264" on="0"/>
        <pt x="614" y="119" on="0"/>
        <pt x="523" y="29" on="0"/>
        <pt x="377" y="-12" on="0"/>
        <pt x="272" y="-12" on="1"/>
        <pt x="234" y="-12" on="0"/>
        <pt x="143" y="-6" on="0"/>
        <pt x="77" y="0" on="1"/>
        <pt x="77" y="301" on="1"/>
        <pt x="-2" y="301" on="1"/>
      </contour>
      <contour>
        <pt x="341" y="144" on="1"/>
        <pt x="376" y="144" on="0"/>
        <pt x="421" y="162" on="0"/>
        <pt x="446" y="212" on="0"/>
        <pt x="455" y="300" on="0"/>
        <pt x="455" y="370" on="1"/>
        <pt x="455" y="439" on="0"/>
        <pt x="443" y="526" on="0"/>
        <pt x="412" y="576" on="0"/>
        <pt x="356" y="595" on="0"/>
        <pt x="312" y="595" on="1"/>
        <pt x="295" y="595" on="0"/>
        <pt x="276" y="593" on="0"/>
        <pt x="268" y="591" on="1"/>
        <pt x="268" y="446" on="1"/>
        <pt x="339" y="446" on="1"/>
        <pt x="339" y="301" on="1"/>
        <pt x="268" y="301" on="1"/>
        <pt x="268" y="149" on="1"/>
        <pt x="295" y="146" on="0"/>
        <pt x="327" y="144" on="0"/>
      </contour>
    </TTGlyph>
    <TTGlyph name="Dcroat.sc" xMin="2" yMin="-8" xMax="609" yMax="584">
      <contour>
        <pt x="2" y="360" on="1"/>
        <pt x="73" y="360" on="1"/>
        <pt x="73" y="579" on="1"/>
        <pt x="138" y="581" on="0"/>
        <pt x="223" y="584" on="0"/>
        <pt x="259" y="584" on="1"/>
        <pt x="355" y="584" on="0"/>
        <pt x="488" y="553" on="0"/>
        <pt x="572" y="484" on="0"/>
        <pt x="609" y="370" on="0"/>
        <pt x="609" y="288" on="1"/>
        <pt x="609" y="205" on="0"/>
        <pt x="571" y="92" on="0"/>
        <pt x="487" y="23" on="0"/>
        <pt x="352" y="-8" on="0"/>
        <pt x="255" y="-8" on="1"/>
        <pt x="219" y="-8" on="0"/>
        <pt x="133" y="-3" on="0"/>
        <pt x="73" y="2" on="1"/>
        <pt x="73" y="225" on="1"/>
        <pt x="2" y="225" on="1"/>
      </contour>
      <contour>
        <pt x="321" y="137" on="1"/>
        <pt x="352" y="137" on="0"/>
        <pt x="391" y="146" on="0"/>
        <pt x="413" y="178" on="0"/>
        <pt x="421" y="238" on="0"/>
        <pt x="421" y="289" on="1"/>
        <pt x="421" y="338" on="0"/>
        <pt x="411" y="398" on="0"/>
        <pt x="382" y="430" on="0"/>
        <pt x="333" y="441" on="0"/>
        <pt x="294" y="441" on="1"/>
        <pt x="279" y="441" on="0"/>
        <pt x="261" y="440" on="0"/>
        <pt x="253" y="439" on="1"/>
        <pt x="253" y="360" on="1"/>
        <pt x="315" y="360" on="1"/>
        <pt x="315" y="225" on="1"/>
        <pt x="253" y="225" on="1"/>
        <pt x="253" y="141" on="1"/>
        <pt x="277" y="138" on="0"/>
        <pt x="307" y="137" on="0"/>
      </contour>
    </TTGlyph>
    <TTGlyph name="Ddotbelow" xMin="50" yMin="-220" xMax="628" yMax="749">
      <contour>
        <pt x="320" y="-220" on="1"/>
        <pt x="277" y="-220" on="0"/>
        <pt x="241" y="-184" on="0"/>
        <pt x="241" y="-143" on="1"/>
        <pt x="241" y="-102" on="0"/>
        <pt x="277" y="-67" on="0"/>
        <pt x="320" y="-67" on="1"/>
        <pt x="362" y="-67" on="0"/>
        <pt x="400" y="-101" on="0"/>
        <pt x="400" y="-143" on="1"/>
        <pt x="400" y="-185" on="0"/>
        <pt x="362" y="-220" on="0"/>
      </contour>
      <contour>
        <pt x="245" y="-12" on="1"/>
        <pt x="207" y="-12" on="0"/>
        <pt x="116" y="-6" on="0"/>
        <pt x="50" y="0" on="1"/>
        <pt x="50" y="740" on="1"/>
        <pt x="118" y="744" on="0"/>
        <pt x="209" y="749" on="0"/>
        <pt x="247" y="749" on="1"/>
        <pt x="352" y="749" on="0"/>
        <pt x="497" y="709" on="0"/>
        <pt x="588" y="619" on="0"/>
        <pt x="628" y="474" on="0"/>
        <pt x="628" y="369" on="1"/>
        <pt x="628" y="264" on="0"/>
        <pt x="587" y="119" on="0"/>
        <pt x="496" y="29" on="0"/>
        <pt x="350" y="-12" on="0"/>
      </contour>
      <contour>
        <pt x="314" y="144" on="1"/>
        <pt x="349" y="144" on="0"/>
        <pt x="394" y="162" on="0"/>
        <pt x="419" y="212" on="0"/>
        <pt x="428" y="300" on="0"/>
        <pt x="428" y="370" on="1"/>
        <pt x="428" y="439" on="0"/>
        <pt x="416" y="526" on="0"/>
        <pt x="385" y="576" on="0"/>
        <pt x="329" y="595" on="0"/>
        <pt x="285" y="595" on="1"/>
        <pt x="268" y="595" on="0"/>
        <pt x="249" y="593" on="0"/>
        <pt x="241" y="591" on="1"/>
        <pt x="241" y="149" on="1"/>
        <pt x="268" y="146" on="0"/>
        <pt x="300" y="144" on="0"/>
      </contour>
    </TTGlyph>
    <TTGlyph name="Ddotbelow.sc" xMin="48" yMin="-182" xMax="583" yMax="584">
      <contour>
        <pt x="230" y="-8" on="1"/>
        <pt x="194" y="-8" on="0"/>
        <pt x="108" y="-3" on="0"/>
        <pt x="48" y="2" on="1"/>
        <pt x="48" y="579" on="1"/>
        <pt x="113" y="581" on="0"/>
        <pt x="198" y="584" on="0"/>
        <pt x="233" y="584" on="1"/>
        <pt x="329" y="584" on="0"/>
        <pt x="463" y="553" on="0"/>
        <pt x="546" y="484" on="0"/>
        <pt x="583" y="370" on="0"/>
        <pt x="583" y="288" on="1"/>
        <pt x="583" y="205" on="0"/>
        <pt x="546" y="92" on="0"/>
        <pt x="462" y="23" on="0"/>
        <pt x="327" y="-8" on="0"/>
      </contour>
      <contour>
        <pt x="296" y="137" on="1"/>
        <pt x="327" y="137" on="0"/>
        <pt x="366" y="146" on="0"/>
        <pt x="388" y="178" on="0"/>
        <pt x="396" y="238" on="0"/>
        <pt x="396" y="289" on="1"/>
        <pt x="396" y="338" on="0"/>
        <pt x="386" y="398" on="0"/>
        <pt x="357" y="430" on="0"/>
        <pt x="308" y="441" on="0"/>
        <pt x="269" y="441" on="1"/>
        <pt x="253" y="441" on="0"/>
        <pt x="236" y="440" on="0"/>
        <pt x="228" y="439" on="1"/>
        <pt x="228" y="141" on="1"/>
        <pt x="252" y="138" on="0"/>
        <pt x="282" y="137" on="0"/>
      </contour>
      <contour>
        <pt x="299" y="-182" on="1"/>
        <pt x="259" y="-182" on="0"/>
        <pt x="226" y="-150" on="0"/>
        <pt x="226" y="-114" on="1"/>
        <pt x="226" y="-79" on="0"/>
        <pt x="259" y="-47" on="0"/>
        <pt x="299" y="-47" on="1"/>
        <pt x="338" y="-47" on="0"/>
        <pt x="373" y="-78" on="0"/>
        <pt x="373" y="-114" on="1"/>
        <pt x="373" y="-151" on="0"/>
        <pt x="338" y="-182" on="0"/>
      </contour>
    </TTGlyph>
    <TTGlyph name="Delta" xMin="16" yMin="0" xMax="724" yMax="740">
      <contour>
        <pt x="245" y="740" on="1"/>
        <pt x="495" y="740" on="1"/>
        <pt x="724" y="0" on="1"/>
        <pt x="16" y="0" on="1"/>
      </contour>
      <contour>
        <pt x="499" y="162" on="1"/>
        <pt x="370" y="578" on="1"/>
        <pt x="241" y="162" on="1"/>
      </contour>
    </TTGlyph>
    <TTGlyph name="E" xMin="50" yMin="0" xMax="530" yMax="740">
      <contour>
        <pt x="50" y="740" on="1"/>
        <pt x="521" y="740" on="1"/>
        <pt x="521" y="578" on="1"/>
        <pt x="245" y="578" on="1"/>
        <pt x="245" y="451" on="1"/>
        <pt x="490" y="451" on="1"/>
        <pt x="490" y="289" on="1"/>
        <pt x="245" y="289" on="1"/>
        <pt x="245" y="162" on="1"/>
        <pt x="530" y="162" on="1"/>
        <pt x="530" y="0" on="1"/>
        <pt x="50" y="0" on="1"/>
      </contour>
    </TTGlyph>
    <TTGlyph name="E.sc" xMin="48" yMin="0" xMax="492" yMax="577">
      <contour>
        <pt x="48" y="577" on="1"/>
        <pt x="484" y="577" on="1"/>
        <pt x="484" y="432" on="1"/>
        <pt x="231" y="432" on="1"/>
        <pt x="231" y="358" on="1"/>
        <pt x="456" y="358" on="1"/>
        <pt x="456" y="218" on="1"/>
        <pt x="231" y="218" on="1"/>
        <pt x="231" y="145" on="1"/>
        <pt x="492" y="145" on="1"/>
        <pt x="492" y="0" on="1"/>
        <pt x="48" y="0" on="1"/>
      </contour>
    </TTGlyph>
    <TTGlyph name="Eacute" xMin="50" yMin="0" xMax="530" yMax="988">
      <contour>
        <pt x="217" y="800" on="1"/>
        <pt x="281" y="988" on="1"/>
        <pt x="475" y="988" on="1"/>
        <pt x="352" y="790" on="1"/>
      </contour>
      <contour>
        <pt x="50" y="740" on="1"/>
        <pt x="521" y="740" on="1"/>
        <pt x="521" y="578" on="1"/>
        <pt x="245" y="578" on="1"/>
        <pt x="245" y="451" on="1"/>
        <pt x="490" y="451" on="1"/>
        <pt x="490" y="289" on="1"/>
        <pt x="245" y="289" on="1"/>
        <pt x="245" y="162" on="1"/>
        <pt x="530" y="162" on="1"/>
        <pt x="530" y="0" on="1"/>
        <pt x="50" y="0" on="1"/>
      </contour>
    </TTGlyph>
    <TTGlyph name="Eacute.sc" xMin="48" yMin="0" xMax="492" yMax="786">
      <contour>
        <pt x="48" y="577" on="1"/>
        <pt x="484" y="577" on="1"/>
        <pt x="484" y="432" on="1"/>
        <pt x="231" y="432" on="1"/>
        <pt x="231" y="358" on="1"/>
        <pt x="456" y="358" on="1"/>
        <pt x="456" y="218" on="1"/>
        <pt x="231" y="218" on="1"/>
        <pt x="231" y="145" on="1"/>
        <pt x="492" y="145" on="1"/>
        <pt x="492" y="0" on="1"/>
        <pt x="48" y="0" on="1"/>
      </contour>
      <contour>
        <pt x="201" y="627" on="1"/>
        <pt x="258" y="786" on="1"/>
        <pt x="440" y="786" on="1"/>
        <pt x="328" y="618" on="1"/>
      </contour>
    </TTGlyph>
    <TTGlyph name="Ebreve" xMin="50" yMin="0" xMax="530" yMax="976">
      <contour>
        <pt x="292" y="790" on="1"/>
        <pt x="198" y="790" on="0"/>
        <pt x="103" y="888" on="0"/>
        <pt x="103" y="976" on="1"/>
        <pt x="230" y="976" on="1"/>
        <pt x="230" y="947" on="0"/>
        <pt x="235" y="909" on="0"/>
        <pt x="249" y="886" on="0"/>
        <pt x="273" y="876" on="0"/>
        <pt x="292" y="876" on="1"/>
        <pt x="328" y="876" on="0"/>
        <pt x="353" y="919" on="0"/>
        <pt x="353" y="976" on="1"/>
        <pt x="481" y="976" on="1"/>
        <pt x="481" y="889" on="0"/>
        <pt x="384" y="790" on="0"/>
      </contour>
      <contour>
        <pt x="50" y="740" on="1"/>
        <pt x="521" y="740" on="1"/>
        <pt x="521" y="578" on="1"/>
        <pt x="245" y="578" on="1"/>
        <pt x="245" y="451" on="1"/>
        <pt x="490" y="451" on="1"/>
        <pt x="490" y="289" on="1"/>
        <pt x="245" y="289" on="1"/>
        <pt x="245" y="162" on="1"/>
        <pt x="530" y="162" on="1"/>
        <pt x="530" y="0" on="1"/>
        <pt x="50" y="0" on="1"/>
      </contour>
    </TTGlyph>
    <TTGlyph name="Ebreve.sc" xMin="48" yMin="0" xMax="492" yMax="768">
      <contour>
        <pt x="271" y="613" on="1"/>
        <pt x="183" y="613" on="0"/>
        <pt x="95" y="696" on="0"/>
        <pt x="95" y="768" on="1"/>
        <pt x="214" y="768" on="1"/>
        <pt x="214" y="722" on="0"/>
        <pt x="236" y="690" on="0"/>
        <pt x="271" y="690" on="1"/>
        <pt x="305" y="690" on="0"/>
        <pt x="328" y="722" on="0"/>
        <pt x="328" y="768" on="1"/>
        <pt x="447" y="768" on="1"/>
        <pt x="447" y="696" on="0"/>
        <pt x="359" y="613" on="0"/>
      </contour>
      <contour>
        <pt x="48" y="577" on="1"/>
        <pt x="484" y="577" on="1"/>
        <pt x="484" y="432" on="1"/>
        <pt x="231" y="432" on="1"/>
        <pt x="231" y="358" on="1"/>
        <pt x="456" y="358" on="1"/>
        <pt x="456" y="218" on="1"/>
        <pt x="231" y="218" on="1"/>
        <pt x="231" y="145" on="1"/>
        <pt x="492" y="145" on="1"/>
        <pt x="492" y="0" on="1"/>
        <pt x="48" y="0" on="1"/>
      </contour>
    </TTGlyph>
    <TTGlyph name="Ecaron" xMin="50" yMin="0" xMax="530" yMax="981">
      <contour>
        <pt x="131" y="981" on="1"/>
        <pt x="302" y="910" on="1"/>
        <pt x="473" y="981" on="1"/>
        <pt x="473" y="857" on="1"/>
        <pt x="303" y="786" on="1"/>
        <pt x="131" y="857" on="1"/>
      </contour>
      <contour>
        <pt x="50" y="740" on="1"/>
        <pt x="521" y="740" on="1"/>
        <pt x="521" y="578" on="1"/>
        <pt x="245" y="578" on="1"/>
        <pt x="245" y="451" on="1"/>
        <pt x="490" y="451" on="1"/>
        <pt x="490" y="289" on="1"/>
        <pt x="245" y="289" on="1"/>
        <pt x="245" y="162" on="1"/>
        <pt x="530" y="162" on="1"/>
        <pt x="530" y="0" on="1"/>
        <pt x="50" y="0" on="1"/>
      </contour>
    </TTGlyph>
    <TTGlyph name="Ecaron.sc" xMin="48" yMin="0" xMax="492" yMax="780">
      <contour>
        <pt x="48" y="577" on="1"/>
        <pt x="484" y="577" on="1"/>
        <pt x="484" y="432" on="1"/>
        <pt x="231" y="432" on="1"/>
        <pt x="231" y="358" on="1"/>
        <pt x="456" y="358" on="1"/>
        <pt x="456" y="218" on="1"/>
        <pt x="231" y="218" on="1"/>
        <pt x="231" y="145" on="1"/>
        <pt x="492" y="145" on="1"/>
        <pt x="492" y="0" on="1"/>
        <pt x="48" y="0" on="1"/>
      </contour>
      <contour>
        <pt x="121" y="667" on="1"/>
        <pt x="121" y="780" on="1"/>
        <pt x="280" y="724" on="1"/>
        <pt x="440" y="780" on="1"/>
        <pt x="440" y="667" on="1"/>
        <pt x="281" y="611" on="1"/>
      </contour>
    </TTGlyph>
    <TTGlyph name="Ecircumflex" xMin="50" yMin="0" xMax="530" yMax="981">
      <contour>
        <pt x="50" y="740" on="1"/>
        <pt x="521" y="740" on="1"/>
        <pt x="521" y="578" on="1"/>
        <pt x="245" y="578" on="1"/>
        <pt x="245" y="451" on="1"/>
        <pt x="490" y="451" on="1"/>
        <pt x="490" y="289" on="1"/>
        <pt x="245" y="289" on="1"/>
        <pt x="245" y="162" on="1"/>
        <pt x="530" y="162" on="1"/>
        <pt x="530" y="0" on="1"/>
        <pt x="50" y="0" on="1"/>
      </contour>
      <contour>
        <pt x="121" y="910" on="1"/>
        <pt x="293" y="981" on="1"/>
        <pt x="463" y="910" on="1"/>
        <pt x="463" y="786" on="1"/>
        <pt x="292" y="857" on="1"/>
        <pt x="121" y="786" on="1"/>
      </contour>
    </TTGlyph>
    <TTGlyph name="Ecircumflex.sc" xMin="48" yMin="0" xMax="492" yMax="777">
      <contour>
        <pt x="48" y="577" on="1"/>
        <pt x="484" y="577" on="1"/>
        <pt x="484" y="432" on="1"/>
        <pt x="231" y="432" on="1"/>
        <pt x="231" y="358" on="1"/>
        <pt x="456" y="358" on="1"/>
        <pt x="456" y="218" on="1"/>
        <pt x="231" y="218" on="1"/>
        <pt x="231" y="145" on="1"/>
        <pt x="492" y="145" on="1"/>
        <pt x="492" y="0" on="1"/>
        <pt x="48" y="0" on="1"/>
      </contour>
      <contour>
        <pt x="114" y="721" on="1"/>
        <pt x="274" y="777" on="1"/>
        <pt x="432" y="721" on="1"/>
        <pt x="432" y="608" on="1"/>
        <pt x="273" y="664" on="1"/>
        <pt x="114" y="608" on="1"/>
      </contour>
    </TTGlyph>
    <TTGlyph name="Edblgrave" xMin="32" yMin="0" xMax="530" yMax="988">
      <contour>
        <pt x="50" y="740" on="1"/>
        <pt x="521" y="740" on="1"/>
        <pt x="521" y="578" on="1"/>
        <pt x="245" y="578" on="1"/>
        <pt x="245" y="451" on="1"/>
        <pt x="490" y="451" on="1"/>
        <pt x="490" y="289" on="1"/>
        <pt x="245" y="289" on="1"/>
        <pt x="245" y="162" on="1"/>
        <pt x="530" y="162" on="1"/>
        <pt x="530" y="0" on="1"/>
        <pt x="50" y="0" on="1"/>
      </contour>
      <contour>
        <pt x="156" y="790" on="1"/>
        <pt x="32" y="988" on="1"/>
        <pt x="189" y="988" on="1"/>
        <pt x="253" y="800" on="1"/>
      </contour>
      <contour>
        <pt x="354" y="790" on="1"/>
        <pt x="230" y="988" on="1"/>
        <pt x="387" y="988" on="1"/>
        <pt x="451" y="800" on="1"/>
      </contour>
    </TTGlyph>
    <TTGlyph name="Edblgrave.sc" xMin="30" yMin="0" xMax="492" yMax="786">
      <contour>
        <pt x="48" y="577" on="1"/>
        <pt x="484" y="577" on="1"/>
        <pt x="484" y="432" on="1"/>
        <pt x="231" y="432" on="1"/>
        <pt x="231" y="358" on="1"/>
        <pt x="456" y="358" on="1"/>
        <pt x="456" y="218" on="1"/>
        <pt x="231" y="218" on="1"/>
        <pt x="231" y="145" on="1"/>
        <pt x="492" y="145" on="1"/>
        <pt x="492" y="0" on="1"/>
        <pt x="48" y="0" on="1"/>
      </contour>
      <contour>
        <pt x="30" y="786" on="1"/>
        <pt x="180" y="786" on="1"/>
        <pt x="236" y="625" on="1"/>
        <pt x="143" y="618" on="1"/>
      </contour>
      <contour>
        <pt x="214" y="786" on="1"/>
        <pt x="363" y="786" on="1"/>
        <pt x="420" y="625" on="1"/>
        <pt x="327" y="618" on="1"/>
      </contour>
    </TTGlyph>
    <TTGlyph name="Edieresis" xMin="50" yMin="0" xMax="530" yMax="997">
      <contour>
        <pt x="159" y="798" on="1"/>
        <pt x="104" y="798" on="0"/>
        <pt x="57" y="845" on="0"/>
        <pt x="57" y="898" on="1"/>
        <pt x="57" y="951" on="0"/>
        <pt x="104" y="997" on="0"/>
        <pt x="159" y="997" on="1"/>
        <pt x="213" y="997" on="0"/>
        <pt x="262" y="951" on="0"/>
        <pt x="262" y="898" on="1"/>
        <pt x="262" y="844" on="0"/>
        <pt x="213" y="798" on="0"/>
      </contour>
      <contour>
        <pt x="423" y="798" on="1"/>
        <pt x="368" y="798" on="0"/>
        <pt x="321" y="845" on="0"/>
        <pt x="321" y="898" on="1"/>
        <pt x="321" y="951" on="0"/>
        <pt x="368" y="997" on="0"/>
        <pt x="423" y="997" on="1"/>
        <pt x="477" y="997" on="0"/>
        <pt x="526" y="951" on="0"/>
        <pt x="526" y="898" on="1"/>
        <pt x="526" y="844" on="0"/>
        <pt x="477" y="798" on="0"/>
      </contour>
      <contour>
        <pt x="50" y="740" on="1"/>
        <pt x="521" y="740" on="1"/>
        <pt x="521" y="578" on="1"/>
        <pt x="245" y="578" on="1"/>
        <pt x="245" y="451" on="1"/>
        <pt x="490" y="451" on="1"/>
        <pt x="490" y="289" on="1"/>
        <pt x="245" y="289" on="1"/>
        <pt x="245" y="162" on="1"/>
        <pt x="530" y="162" on="1"/>
        <pt x="530" y="0" on="1"/>
        <pt x="50" y="0" on="1"/>
      </contour>
    </TTGlyph>
    <TTGlyph name="Edieresis.sc" xMin="48" yMin="0" xMax="492" yMax="802">
      <contour>
        <pt x="150" y="619" on="1"/>
        <pt x="98" y="619" on="0"/>
        <pt x="54" y="663" on="0"/>
        <pt x="54" y="711" on="1"/>
        <pt x="54" y="759" on="0"/>
        <pt x="98" y="802" on="0"/>
        <pt x="150" y="802" on="1"/>
        <pt x="200" y="802" on="0"/>
        <pt x="246" y="759" on="0"/>
        <pt x="246" y="711" on="1"/>
        <pt x="246" y="662" on="0"/>
        <pt x="200" y="619" on="0"/>
      </contour>
      <contour>
        <pt x="394" y="619" on="1"/>
        <pt x="342" y="619" on="0"/>
        <pt x="299" y="663" on="0"/>
        <pt x="299" y="711" on="1"/>
        <pt x="299" y="759" on="0"/>
        <pt x="342" y="802" on="0"/>
        <pt x="394" y="802" on="1"/>
        <pt x="445" y="802" on="0"/>
        <pt x="490" y="759" on="0"/>
        <pt x="490" y="711" on="1"/>
        <pt x="490" y="662" on="0"/>
        <pt x="445" y="619" on="0"/>
      </contour>
      <contour>
        <pt x="48" y="577" on="1"/>
        <pt x="484" y="577" on="1"/>
        <pt x="484" y="432" on="1"/>
        <pt x="231" y="432" on="1"/>
        <pt x="231" y="358" on="1"/>
        <pt x="456" y="358" on="1"/>
        <pt x="456" y="218" on="1"/>
        <pt x="231" y="218" on="1"/>
        <pt x="231" y="145" on="1"/>
        <pt x="492" y="145" on="1"/>
        <pt x="492" y="0" on="1"/>
        <pt x="48" y="0" on="1"/>
      </contour>
    </TTGlyph>
    <TTGlyph name="Edotaccent" xMin="50" yMin="0" xMax="530" yMax="997">
      <contour>
        <pt x="292" y="798" on="1"/>
        <pt x="237" y="798" on="0"/>
        <pt x="190" y="845" on="0"/>
        <pt x="190" y="898" on="1"/>
        <pt x="190" y="951" on="0"/>
        <pt x="237" y="997" on="0"/>
        <pt x="292" y="997" on="1"/>
        <pt x="346" y="997" on="0"/>
        <pt x="395" y="951" on="0"/>
        <pt x="395" y="898" on="1"/>
        <pt x="395" y="844" on="0"/>
        <pt x="346" y="798" on="0"/>
      </contour>
      <contour>
        <pt x="50" y="740" on="1"/>
        <pt x="521" y="740" on="1"/>
        <pt x="521" y="578" on="1"/>
        <pt x="245" y="578" on="1"/>
        <pt x="245" y="451" on="1"/>
        <pt x="490" y="451" on="1"/>
        <pt x="490" y="289" on="1"/>
        <pt x="245" y="289" on="1"/>
        <pt x="245" y="162" on="1"/>
        <pt x="530" y="162" on="1"/>
        <pt x="530" y="0" on="1"/>
        <pt x="50" y="0" on="1"/>
      </contour>
    </TTGlyph>
    <TTGlyph name="Edotaccent.sc" xMin="48" yMin="0" xMax="492" yMax="804">
      <contour>
        <pt x="271" y="622" on="1"/>
        <pt x="220" y="622" on="0"/>
        <pt x="176" y="665" on="0"/>
        <pt x="176" y="714" on="1"/>
        <pt x="176" y="762" on="0"/>
        <pt x="220" y="804" on="0"/>
        <pt x="271" y="804" on="1"/>
        <pt x="322" y="804" on="0"/>
        <pt x="367" y="762" on="0"/>
        <pt x="367" y="714" on="1"/>
        <pt x="367" y="665" on="0"/>
        <pt x="322" y="622" on="0"/>
      </contour>
      <contour>
        <pt x="48" y="577" on="1"/>
        <pt x="484" y="577" on="1"/>
        <pt x="484" y="432" on="1"/>
        <pt x="231" y="432" on="1"/>
        <pt x="231" y="358" on="1"/>
        <pt x="456" y="358" on="1"/>
        <pt x="456" y="218" on="1"/>
        <pt x="231" y="218" on="1"/>
        <pt x="231" y="145" on="1"/>
        <pt x="492" y="145" on="1"/>
        <pt x="492" y="0" on="1"/>
        <pt x="48" y="0" on="1"/>
      </contour>
    </TTGlyph>
    <TTGlyph name="Edotbelow" xMin="50" yMin="-220" xMax="530" yMax="740">
      <contour>
        <pt x="50" y="740" on="1"/>
        <pt x="521" y="740" on="1"/>
        <pt x="521" y="578" on="1"/>
        <pt x="245" y="578" on="1"/>
        <pt x="245" y="451" on="1"/>
        <pt x="490" y="451" on="1"/>
        <pt x="490" y="289" on="1"/>
        <pt x="245" y="289" on="1"/>
        <pt x="245" y="162" on="1"/>
        <pt x="530" y="162" on="1"/>
        <pt x="530" y="0" on="1"/>
        <pt x="50" y="0" on="1"/>
      </contour>
      <contour>
        <pt x="294" y="-220" on="1"/>
        <pt x="251" y="-220" on="0"/>
        <pt x="215" y="-184" on="0"/>
        <pt x="215" y="-143" on="1"/>
        <pt x="215" y="-102" on="0"/>
        <pt x="251" y="-67" on="0"/>
        <pt x="294" y="-67" on="1"/>
        <pt x="336" y="-67" on="0"/>
        <pt x="374" y="-101" on="0"/>
        <pt x="374" y="-143" on="1"/>
        <pt x="374" y="-185" on="0"/>
        <pt x="336" y="-220" on="0"/>
      </contour>
    </TTGlyph>
    <TTGlyph name="Edotbelow.sc" xMin="48" yMin="-182" xMax="492" yMax="577">
      <contour>
        <pt x="274" y="-182" on="1"/>
        <pt x="235" y="-182" on="0"/>
        <pt x="201" y="-151" on="0"/>
        <pt x="201" y="-114" on="1"/>
        <pt x="201" y="-78" on="0"/>
        <pt x="235" y="-47" on="0"/>
        <pt x="274" y="-47" on="1"/>
        <pt x="314" y="-47" on="0"/>
        <pt x="348" y="-78" on="0"/>
        <pt x="348" y="-114" on="1"/>
        <pt x="348" y="-150" on="0"/>
        <pt x="314" y="-182" on="0"/>
      </contour>
      <contour>
        <pt x="48" y="577" on="1"/>
        <pt x="484" y="577" on="1"/>
        <pt x="484" y="432" on="1"/>
        <pt x="231" y="432" on="1"/>
        <pt x="231" y="358" on="1"/>
        <pt x="456" y="358" on="1"/>
        <pt x="456" y="218" on="1"/>
        <pt x="231" y="218" on="1"/>
        <pt x="231" y="145" on="1"/>
        <pt x="492" y="145" on="1"/>
        <pt x="492" y="0" on="1"/>
        <pt x="48" y="0" on="1"/>
      </contour>
    </TTGlyph>
    <TTGlyph name="Egrave" xMin="50" yMin="0" xMax="530" yMax="988">
      <contour>
        <pt x="221" y="790" on="1"/>
        <pt x="98" y="988" on="1"/>
        <pt x="292" y="988" on="1"/>
        <pt x="356" y="800" on="1"/>
      </contour>
      <contour>
        <pt x="50" y="740" on="1"/>
        <pt x="521" y="740" on="1"/>
        <pt x="521" y="578" on="1"/>
        <pt x="245" y="578" on="1"/>
        <pt x="245" y="451" on="1"/>
        <pt x="490" y="451" on="1"/>
        <pt x="490" y="289" on="1"/>
        <pt x="245" y="289" on="1"/>
        <pt x="245" y="162" on="1"/>
        <pt x="530" y="162" on="1"/>
        <pt x="530" y="0" on="1"/>
        <pt x="50" y="0" on="1"/>
      </contour>
    </TTGlyph>
    <TTGlyph name="Egrave.sc" xMin="48" yMin="0" xMax="492" yMax="786">
      <contour>
        <pt x="48" y="577" on="1"/>
        <pt x="484" y="577" on="1"/>
        <pt x="484" y="432" on="1"/>
        <pt x="231" y="432" on="1"/>
        <pt x="231" y="358" on="1"/>
        <pt x="456" y="358" on="1"/>
        <pt x="456" y="218" on="1"/>
        <pt x="231" y="218" on="1"/>
        <pt x="231" y="145" on="1"/>
        <pt x="492" y="145" on="1"/>
        <pt x="492" y="0" on="1"/>
        <pt x="48" y="0" on="1"/>
      </contour>
      <contour>
        <pt x="95" y="786" on="1"/>
        <pt x="277" y="786" on="1"/>
        <pt x="334" y="625" on="1"/>
        <pt x="207" y="618" on="1"/>
      </contour>
    </TTGlyph>
    <TTGlyph name="Einvertedbreve" xMin="50" yMin="0" xMax="530" yMax="986">
      <contour>
        <pt x="50" y="740" on="1"/>
        <pt x="521" y="740" on="1"/>
        <pt x="521" y="578" on="1"/>
        <pt x="245" y="578" on="1"/>
        <pt x="245" y="451" on="1"/>
        <pt x="490" y="451" on="1"/>
        <pt x="490" y="289" on="1"/>
        <pt x="245" y="289" on="1"/>
        <pt x="245" y="162" on="1"/>
        <pt x="530" y="162" on="1"/>
        <pt x="530" y="0" on="1"/>
        <pt x="50" y="0" on="1"/>
      </contour>
      <contour>
        <pt x="354" y="800" on="1"/>
        <pt x="354" y="857" on="0"/>
        <pt x="329" y="900" on="0"/>
        <pt x="293" y="900" on="1"/>
        <pt x="274" y="900" on="0"/>
        <pt x="250" y="890" on="0"/>
        <pt x="236" y="867" on="0"/>
        <pt x="231" y="828" on="0"/>
        <pt x="231" y="800" on="1"/>
        <pt x="104" y="800" on="1"/>
        <pt x="104" y="888" on="0"/>
        <pt x="199" y="986" on="0"/>
        <pt x="293" y="986" on="1"/>
        <pt x="385" y="986" on="0"/>
        <pt x="482" y="888" on="0"/>
        <pt x="482" y="800" on="1"/>
      </contour>
    </TTGlyph>
    <TTGlyph name="Einvertedbreve.sc" xMin="48" yMin="0" xMax="492" yMax="776">
      <contour>
        <pt x="97" y="621" on="1"/>
        <pt x="97" y="693" on="0"/>
        <pt x="184" y="776" on="0"/>
        <pt x="273" y="776" on="1"/>
        <pt x="360" y="776" on="0"/>
        <pt x="449" y="693" on="0"/>
        <pt x="449" y="621" on="1"/>
        <pt x="329" y="621" on="1"/>
        <pt x="329" y="666" on="0"/>
        <pt x="307" y="698" on="0"/>
        <pt x="273" y="698" on="1"/>
        <pt x="238" y="698" on="0"/>
        <pt x="215" y="666" on="0"/>
        <pt x="215" y="621" on="1"/>
      </contour>
      <contour>
        <pt x="48" y="577" on="1"/>
        <pt x="484" y="577" on="1"/>
        <pt x="484" y="432" on="1"/>
        <pt x="231" y="432" on="1"/>
        <pt x="231" y="358" on="1"/>
        <pt x="456" y="358" on="1"/>
        <pt x="456" y="218" on="1"/>
        <pt x="231" y="218" on="1"/>
        <pt x="231" y="145" on="1"/>
        <pt x="492" y="145" on="1"/>
        <pt x="492" y="0" on="1"/>
        <pt x="48" y="0" on="1"/>
      </contour>
    </TTGlyph>
    <TTGlyph name="Emacron" xMin="50" yMin="0" xMax="530" yMax="960">
      <contour>
        <pt x="120" y="960" on="1"/>
        <pt x="463" y="960" on="1"/>
        <pt x="463" y="836" on="1"/>
        <pt x="120" y="836" on="1"/>
      </contour>
      <contour>
        <pt x="50" y="740" on="1"/>
        <pt x="521" y="740" on="1"/>
        <pt x="521" y="578" on="1"/>
        <pt x="245" y="578" on="1"/>
        <pt x="245" y="451" on="1"/>
        <pt x="490" y="451" on="1"/>
        <pt x="490" y="289" on="1"/>
        <pt x="245" y="289" on="1"/>
        <pt x="245" y="162" on="1"/>
        <pt x="530" y="162" on="1"/>
        <pt x="530" y="0" on="1"/>
        <pt x="50" y="0" on="1"/>
      </contour>
    </TTGlyph>
    <TTGlyph name="Emacron.sc" xMin="48" yMin="0" xMax="492" yMax="766">
      <contour>
        <pt x="48" y="577" on="1"/>
        <pt x="484" y="577" on="1"/>
        <pt x="484" y="432" on="1"/>
        <pt x="231" y="432" on="1"/>
        <pt x="231" y="358" on="1"/>
        <pt x="456" y="358" on="1"/>
        <pt x="456" y="218" on="1"/>
        <pt x="231" y="218" on="1"/>
        <pt x="231" y="145" on="1"/>
        <pt x="492" y="145" on="1"/>
        <pt x="492" y="0" on="1"/>
        <pt x="48" y="0" on="1"/>
      </contour>
      <contour>
        <pt x="112" y="766" on="1"/>
        <pt x="432" y="766" on="1"/>
        <pt x="432" y="651" on="1"/>
        <pt x="112" y="651" on="1"/>
      </contour>
    </TTGlyph>
    <TTGlyph name="Eng" xMin="50" yMin="-212" xMax="639" yMax="740">
      <contour>
        <pt x="382" y="-171" on="1"/>
        <pt x="423" y="-45" on="0"/>
        <pt x="435" y="72" on="1"/>
        <pt x="267" y="327" on="1"/>
        <pt x="234" y="405" on="1"/>
        <pt x="223" y="405" on="1"/>
        <pt x="223" y="0" on="1"/>
        <pt x="50" y="0" on="1"/>
        <pt x="50" y="740" on="1"/>
        <pt x="208" y="740" on="1"/>
        <pt x="420" y="418" on="1"/>
        <pt x="455" y="338" on="1"/>
        <pt x="466" y="338" on="1"/>
        <pt x="466" y="740" on="1"/>
        <pt x="639" y="740" on="1"/>
        <pt x="639" y="132" on="1"/>
        <pt x="639" y="103" on="0"/>
        <pt x="619" y="21" on="0"/>
        <pt x="583" y="-71" on="0"/>
        <pt x="534" y="-168" on="0"/>
        <pt x="506" y="-212" on="1"/>
      </contour>
    </TTGlyph>
    <TTGlyph name="Eng.sc" xMin="49" yMin="-172" xMax="592" yMax="577">
      <contour>
        <pt x="354" y="-134" on="1"/>
        <pt x="393" y="-30" on="0"/>
        <pt x="403" y="68" on="1"/>
        <pt x="253" y="207" on="1"/>
        <pt x="221" y="267" on="1"/>
        <pt x="211" y="268" on="1"/>
        <pt x="211" y="0" on="1"/>
        <pt x="49" y="0" on="1"/>
        <pt x="49" y="577" on="1"/>
        <pt x="196" y="577" on="1"/>
        <pt x="387" y="375" on="1"/>
        <pt x="420" y="313" on="1"/>
        <pt x="430" y="313" on="1"/>
        <pt x="430" y="577" on="1"/>
        <pt x="592" y="577" on="1"/>
        <pt x="592" y="119" on="1"/>
        <pt x="592" y="94" on="0"/>
        <pt x="573" y="25" on="0"/>
        <pt x="540" y="-53" on="0"/>
        <pt x="496" y="-135" on="0"/>
        <pt x="470" y="-172" on="1"/>
      </contour>
    </TTGlyph>
    <TTGlyph name="Eogonek" xMin="50" yMin="-220" xMax="530" yMax="740">
      <contour>
        <pt x="50" y="740" on="1"/>
        <pt x="521" y="740" on="1"/>
        <pt x="521" y="578" on="1"/>
        <pt x="245" y="578" on="1"/>
        <pt x="245" y="451" on="1"/>
        <pt x="490" y="451" on="1"/>
        <pt x="490" y="289" on="1"/>
        <pt x="245" y="289" on="1"/>
        <pt x="245" y="162" on="1"/>
        <pt x="530" y="162" on="1"/>
        <pt x="530" y="-5" on="1"/>
        <pt x="467" y="-30" on="0"/>
        <pt x="421" y="-82" on="0"/>
        <pt x="421" y="-95" on="1"/>
        <pt x="421" y="-105" on="0"/>
        <pt x="440" y="-113" on="0"/>
        <pt x="456" y="-113" on="1"/>
        <pt x="475" y="-113" on="0"/>
        <pt x="516" y="-105" on="0"/>
        <pt x="530" y="-100" on="1"/>
        <pt x="530" y="-208" on="1"/>
        <pt x="504" y="-213" on="0"/>
        <pt x="461" y="-220" on="0"/>
        <pt x="435" y="-220" on="1"/>
        <pt x="301" y="-220" on="0"/>
        <pt x="301" y="-116" on="1"/>
        <pt x="301" y="-84" on="0"/>
        <pt x="332" y="-32" on="0"/>
        <pt x="373" y="0" on="1"/>
        <pt x="50" y="0" on="1"/>
      </contour>
    </TTGlyph>
    <TTGlyph name="Eogonek.sc" xMin="49" yMin="-172" xMax="494" yMax="577">
      <contour>
        <pt x="406" y="-172" on="1"/>
        <pt x="281" y="-172" on="0"/>
        <pt x="281" y="-87" on="1"/>
        <pt x="281" y="-63" on="0"/>
        <pt x="308" y="-26" on="0"/>
        <pt x="342" y="0" on="1"/>
        <pt x="49" y="0" on="1"/>
        <pt x="49" y="577" on="1"/>
        <pt x="485" y="577" on="1"/>
        <pt x="485" y="432" on="1"/>
        <pt x="232" y="432" on="1"/>
        <pt x="232" y="358" on="1"/>
        <pt x="457" y="358" on="1"/>
        <pt x="457" y="218" on="1"/>
        <pt x="232" y="218" on="1"/>
        <pt x="232" y="145" on="1"/>
        <pt x="493" y="145" on="1"/>
        <pt x="493" y="-1" on="1"/>
        <pt x="464" y="-12" on="0"/>
        <pt x="425" y="-33" on="0"/>
        <pt x="403" y="-51" on="0"/>
        <pt x="394" y="-63" on="0"/>
        <pt x="394" y="-66" on="1"/>
        <pt x="394" y="-71" on="0"/>
        <pt x="410" y="-74" on="0"/>
        <pt x="424" y="-74" on="1"/>
        <pt x="441" y="-74" on="0"/>
        <pt x="480" y="-67" on="0"/>
        <pt x="494" y="-64" on="1"/>
        <pt x="494" y="-162" on="1"/>
        <pt x="469" y="-167" on="0"/>
        <pt x="429" y="-172" on="0"/>
      </contour>
    </TTGlyph>
    <TTGlyph name="Eth" xMin="-2" yMin="-12" xMax="655" yMax="749">
      <contour>
        <pt x="-2" y="446" on="1"/>
        <pt x="77" y="446" on="1"/>
        <pt x="77" y="740" on="1"/>
        <pt x="145" y="744" on="0"/>
        <pt x="236" y="749" on="0"/>
        <pt x="274" y="749" on="1"/>
        <pt x="379" y="749" on="0"/>
        <pt x="524" y="709" on="0"/>
        <pt x="615" y="619" on="0"/>
        <pt x="655" y="474" on="0"/>
        <pt x="655" y="369" on="1"/>
        <pt x="655" y="264" on="0"/>
        <pt x="614" y="119" on="0"/>
        <pt x="523" y="29" on="0"/>
        <pt x="377" y="-12" on="0"/>
        <pt x="272" y="-12" on="1"/>
        <pt x="234" y="-12" on="0"/>
        <pt x="143" y="-6" on="0"/>
        <pt x="77" y="0" on="1"/>
        <pt x="77" y="301" on="1"/>
        <pt x="-2" y="301" on="1"/>
      </contour>
      <contour>
        <pt x="341" y="144" on="1"/>
        <pt x="376" y="144" on="0"/>
        <pt x="421" y="162" on="0"/>
        <pt x="446" y="212" on="0"/>
        <pt x="455" y="300" on="0"/>
        <pt x="455" y="370" on="1"/>
        <pt x="455" y="439" on="0"/>
        <pt x="443" y="526" on="0"/>
        <pt x="412" y="576" on="0"/>
        <pt x="356" y="595" on="0"/>
        <pt x="312" y="595" on="1"/>
        <pt x="295" y="595" on="0"/>
        <pt x="276" y="593" on="0"/>
        <pt x="268" y="591" on="1"/>
        <pt x="268" y="446" on="1"/>
        <pt x="339" y="446" on="1"/>
        <pt x="339" y="301" on="1"/>
        <pt x="268" y="301" on="1"/>
        <pt x="268" y="149" on="1"/>
        <pt x="295" y="146" on="0"/>
        <pt x="327" y="144" on="0"/>
      </contour>
    </TTGlyph>
    <TTGlyph name="Eth.sc" xMin="2" yMin="-8" xMax="609" yMax="584">
      <contour>
        <pt x="2" y="360" on="1"/>
        <pt x="73" y="360" on="1"/>
        <pt x="73" y="579" on="1"/>
        <pt x="138" y="581" on="0"/>
        <pt x="223" y="584" on="0"/>
        <pt x="259" y="584" on="1"/>
        <pt x="355" y="584" on="0"/>
        <pt x="488" y="553" on="0"/>
        <pt x="572" y="484" on="0"/>
        <pt x="609" y="370" on="0"/>
        <pt x="609" y="288" on="1"/>
        <pt x="609" y="205" on="0"/>
        <pt x="571" y="92" on="0"/>
        <pt x="487" y="23" on="0"/>
        <pt x="352" y="-8" on="0"/>
        <pt x="255" y="-8" on="1"/>
        <pt x="219" y="-8" on="0"/>
        <pt x="133" y="-3" on="0"/>
        <pt x="73" y="2" on="1"/>
        <pt x="73" y="225" on="1"/>
        <pt x="2" y="225" on="1"/>
      </contour>
      <contour>
        <pt x="321" y="137" on="1"/>
        <pt x="352" y="137" on="0"/>
        <pt x="391" y="146" on="0"/>
        <pt x="413" y="178" on="0"/>
        <pt x="421" y="238" on="0"/>
        <pt x="421" y="289" on="1"/>
        <pt x="421" y="338" on="0"/>
        <pt x="411" y="398" on="0"/>
        <pt x="382" y="430" on="0"/>
        <pt x="333" y="441" on="0"/>
        <pt x="294" y="441" on="1"/>
        <pt x="279" y="441" on="0"/>
        <pt x="261" y="440" on="0"/>
        <pt x="253" y="439" on="1"/>
        <pt x="253" y="360" on="1"/>
        <pt x="315" y="360" on="1"/>
        <pt x="315" y="225" on="1"/>
        <pt x="253" y="225" on="1"/>
        <pt x="253" y="141" on="1"/>
        <pt x="277" y="138" on="0"/>
        <pt x="307" y="137" on="0"/>
      </contour>
    </TTGlyph>
    <TTGlyph name="Etilde" xMin="50" yMin="0" xMax="530" yMax="965">
      <contour>
        <pt x="103" y="833" on="1"/>
        <pt x="135" y="900" on="0"/>
        <pt x="214" y="965" on="0"/>
        <pt x="252" y="965" on="1"/>
        <pt x="271" y="965" on="0"/>
        <pt x="310" y="953" on="0"/>
        <pt x="349" y="939" on="0"/>
        <pt x="388" y="927" on="0"/>
        <pt x="408" y="927" on="1"/>
        <pt x="428" y="927" on="0"/>
        <pt x="464" y="943" on="0"/>
        <pt x="487" y="965" on="1"/>
        <pt x="510" y="944" on="1"/>
        <pt x="478" y="876" on="0"/>
        <pt x="400" y="812" on="0"/>
        <pt x="361" y="812" on="1"/>
        <pt x="341" y="812" on="0"/>
        <pt x="302" y="824" on="0"/>
        <pt x="263" y="837" on="0"/>
        <pt x="224" y="849" on="0"/>
        <pt x="205" y="849" on="1"/>
        <pt x="185" y="849" on="0"/>
        <pt x="148" y="834" on="0"/>
        <pt x="125" y="812" on="1"/>
      </contour>
      <contour>
        <pt x="50" y="740" on="1"/>
        <pt x="521" y="740" on="1"/>
        <pt x="521" y="578" on="1"/>
        <pt x="245" y="578" on="1"/>
        <pt x="245" y="451" on="1"/>
        <pt x="490" y="451" on="1"/>
        <pt x="490" y="289" on="1"/>
        <pt x="245" y="289" on="1"/>
        <pt x="245" y="162" on="1"/>
        <pt x="530" y="162" on="1"/>
        <pt x="530" y="0" on="1"/>
        <pt x="50" y="0" on="1"/>
      </contour>
    </TTGlyph>
    <TTGlyph name="Etilde.sc" xMin="48" yMin="0" xMax="492" yMax="768">
      <contour>
        <pt x="95" y="648" on="1"/>
        <pt x="124" y="710" on="0"/>
        <pt x="199" y="767" on="0"/>
        <pt x="234" y="767" on="1"/>
        <pt x="252" y="767" on="0"/>
        <pt x="288" y="758" on="0"/>
        <pt x="324" y="748" on="0"/>
        <pt x="361" y="739" on="0"/>
        <pt x="380" y="739" on="1"/>
        <pt x="398" y="739" on="0"/>
        <pt x="432" y="750" on="0"/>
        <pt x="453" y="768" on="1"/>
        <pt x="474" y="750" on="1"/>
        <pt x="445" y="689" on="0"/>
        <pt x="371" y="632" on="0"/>
        <pt x="335" y="632" on="1"/>
        <pt x="317" y="632" on="0"/>
        <pt x="281" y="641" on="0"/>
        <pt x="244" y="651" on="0"/>
        <pt x="207" y="660" on="0"/>
        <pt x="189" y="660" on="1"/>
        <pt x="170" y="660" on="0"/>
        <pt x="137" y="650" on="0"/>
        <pt x="115" y="632" on="1"/>
      </contour>
      <contour>
        <pt x="48" y="577" on="1"/>
        <pt x="484" y="577" on="1"/>
        <pt x="484" y="432" on="1"/>
        <pt x="231" y="432" on="1"/>
        <pt x="231" y="358" on="1"/>
        <pt x="456" y="358" on="1"/>
        <pt x="456" y="218" on="1"/>
        <pt x="231" y="218" on="1"/>
        <pt x="231" y="145" on="1"/>
        <pt x="492" y="145" on="1"/>
        <pt x="492" y="0" on="1"/>
        <pt x="48" y="0" on="1"/>
      </contour>
    </TTGlyph>
    <TTGlyph name="Euro" xMin="24" yMin="-10" xMax="577" yMax="750">
      <contour>
        <pt x="24" y="506" on="1"/>
        <pt x="109" y="506" on="1"/>
        <pt x="138" y="626" on="0"/>
        <pt x="306" y="750" on="0"/>
        <pt x="442" y="750" on="1"/>
        <pt x="481" y="750" on="0"/>
        <pt x="550" y="739" on="0"/>
        <pt x="577" y="728" on="1"/>
        <pt x="546" y="581" on="1"/>
        <pt x="519" y="584" on="0"/>
        <pt x="482" y="587" on="0"/>
        <pt x="465" y="587" on="1"/>
        <pt x="398" y="587" on="0"/>
        <pt x="324" y="552" on="0"/>
        <pt x="307" y="506" on="1"/>
        <pt x="510" y="506" on="1"/>
        <pt x="490" y="402" on="1"/>
        <pt x="290" y="402" on="1"/>
        <pt x="290" y="337" on="1"/>
        <pt x="478" y="337" on="1"/>
        <pt x="458" y="233" on="1"/>
        <pt x="306" y="233" on="1"/>
        <pt x="323" y="187" on="0"/>
        <pt x="398" y="152" on="0"/>
        <pt x="467" y="152" on="1"/>
        <pt x="497" y="152" on="0"/>
        <pt x="554" y="160" on="0"/>
        <pt x="577" y="168" on="1"/>
        <pt x="577" y="11" on="1"/>
        <pt x="549" y="0" on="0"/>
        <pt x="478" y="-10" on="0"/>
        <pt x="439" y="-10" on="1"/>
        <pt x="305" y="-10" on="0"/>
        <pt x="138" y="113" on="0"/>
        <pt x="109" y="233" on="1"/>
        <pt x="24" y="233" on="1"/>
        <pt x="24" y="337" on="1"/>
        <pt x="95" y="337" on="1"/>
        <pt x="94" y="345" on="0"/>
        <pt x="94" y="361" on="0"/>
        <pt x="94" y="370" on="1"/>
        <pt x="94" y="378" on="0"/>
        <pt x="94" y="394" on="0"/>
        <pt x="95" y="402" on="1"/>
        <pt x="24" y="402" on="1"/>
      </contour>
    </TTGlyph>
    <TTGlyph name="Euro.tab" xMin="21" yMin="-10" xMax="575" yMax="750">
      <contour>
        <pt x="21" y="506" on="1"/>
        <pt x="106" y="506" on="1"/>
        <pt x="135" y="626" on="0"/>
        <pt x="303" y="750" on="0"/>
        <pt x="440" y="750" on="1"/>
        <pt x="479" y="750" on="0"/>
        <pt x="548" y="739" on="0"/>
        <pt x="575" y="728" on="1"/>
        <pt x="544" y="581" on="1"/>
        <pt x="517" y="584" on="0"/>
        <pt x="480" y="587" on="0"/>
        <pt x="463" y="587" on="1"/>
        <pt x="396" y="587" on="0"/>
        <pt x="321" y="552" on="0"/>
        <pt x="304" y="506" on="1"/>
        <pt x="508" y="506" on="1"/>
        <pt x="488" y="402" on="1"/>
        <pt x="287" y="402" on="1"/>
        <pt x="287" y="337" on="1"/>
        <pt x="476" y="337" on="1"/>
        <pt x="456" y="233" on="1"/>
        <pt x="303" y="233" on="1"/>
        <pt x="320" y="187" on="0"/>
        <pt x="396" y="152" on="0"/>
        <pt x="465" y="152" on="1"/>
        <pt x="495" y="152" on="0"/>
        <pt x="552" y="160" on="0"/>
        <pt x="575" y="168" on="1"/>
        <pt x="575" y="11" on="1"/>
        <pt x="547" y="0" on="0"/>
        <pt x="476" y="-10" on="0"/>
        <pt x="437" y="-10" on="1"/>
        <pt x="302" y="-10" on="0"/>
        <pt x="135" y="113" on="0"/>
        <pt x="106" y="233" on="1"/>
        <pt x="21" y="233" on="1"/>
        <pt x="21" y="337" on="1"/>
        <pt x="92" y="337" on="1"/>
        <pt x="91" y="345" on="0"/>
        <pt x="91" y="361" on="0"/>
        <pt x="91" y="370" on="1"/>
        <pt x="91" y="378" on="0"/>
        <pt x="91" y="394" on="0"/>
        <pt x="92" y="402" on="1"/>
        <pt x="21" y="402" on="1"/>
      </contour>
    </TTGlyph>
    <TTGlyph name="F" xMin="50" yMin="0" xMax="511" yMax="740">
      <contour>
        <pt x="50" y="740" on="1"/>
        <pt x="511" y="740" on="1"/>
        <pt x="511" y="578" on="1"/>
        <pt x="245" y="578" on="1"/>
        <pt x="245" y="431" on="1"/>
        <pt x="480" y="431" on="1"/>
        <pt x="480" y="269" on="1"/>
        <pt x="245" y="269" on="1"/>
        <pt x="245" y="0" on="1"/>
        <pt x="50" y="0" on="1"/>
      </contour>
    </TTGlyph>
    <TTGlyph name="F.sc" xMin="48" yMin="0" xMax="476" yMax="577">
      <contour>
        <pt x="48" y="577" on="1"/>
        <pt x="476" y="577" on="1"/>
        <pt x="476" y="427" on="1"/>
        <pt x="231" y="427" on="1"/>
        <pt x="231" y="343" on="1"/>
        <pt x="447" y="343" on="1"/>
        <pt x="447" y="193" on="1"/>
        <pt x="231" y="193" on="1"/>
        <pt x="231" y="0" on="1"/>
        <pt x="48" y="0" on="1"/>
      </contour>
    </TTGlyph>
    <TTGlyph name="F_B.sc" xMin="49" yMin="-8" xMax="1036" yMax="585">
      <contour>
        <pt x="49" y="577" on="1"/>
        <pt x="477" y="577" on="1"/>
        <pt x="477" y="427" on="1"/>
        <pt x="232" y="427" on="1"/>
        <pt x="232" y="343" on="1"/>
        <pt x="448" y="343" on="1"/>
        <pt x="448" y="193" on="1"/>
        <pt x="232" y="193" on="1"/>
        <pt x="232" y="0" on="1"/>
        <pt x="49" y="0" on="1"/>
      </contour>
      <contour>
        <pt x="728" y="-8" on="1"/>
        <pt x="635" y="-8" on="0"/>
        <pt x="542" y="4" on="1"/>
        <pt x="542" y="573" on="1"/>
        <pt x="659" y="585" on="0"/>
        <pt x="740" y="585" on="1"/>
        <pt x="886" y="585" on="0"/>
        <pt x="1019" y="504" on="0"/>
        <pt x="1019" y="416" on="1"/>
        <pt x="1019" y="324" on="0"/>
        <pt x="923" y="299" on="1"/>
        <pt x="923" y="296" on="1"/>
        <pt x="1036" y="273" on="0"/>
        <pt x="1036" y="162" on="1"/>
        <pt x="1036" y="-8" on="0"/>
      </contour>
      <contour>
        <pt x="761" y="126" on="1"/>
        <pt x="809" y="126" on="0"/>
        <pt x="860" y="151" on="0"/>
        <pt x="860" y="175" on="1"/>
        <pt x="860" y="207" on="0"/>
        <pt x="815" y="229" on="0"/>
        <pt x="760" y="229" on="1"/>
        <pt x="710" y="229" on="1"/>
        <pt x="710" y="128" on="1"/>
        <pt x="718" y="126" on="0"/>
        <pt x="737" y="126" on="0"/>
      </contour>
      <contour>
        <pt x="757" y="349" on="1"/>
        <pt x="804" y="349" on="0"/>
        <pt x="839" y="371" on="0"/>
        <pt x="839" y="403" on="1"/>
        <pt x="839" y="429" on="0"/>
        <pt x="802" y="451" on="0"/>
        <pt x="763" y="451" on="1"/>
        <pt x="740" y="451" on="0"/>
        <pt x="710" y="448" on="1"/>
        <pt x="710" y="349" on="1"/>
      </contour>
    </TTGlyph>
    <TTGlyph name="F_F.sc" xMin="48" yMin="0" xMax="969" yMax="577">
      <contour>
        <pt x="48" y="577" on="1"/>
        <pt x="476" y="577" on="1"/>
        <pt x="476" y="427" on="1"/>
        <pt x="231" y="427" on="1"/>
        <pt x="231" y="343" on="1"/>
        <pt x="447" y="343" on="1"/>
        <pt x="447" y="193" on="1"/>
        <pt x="231" y="193" on="1"/>
        <pt x="231" y="0" on="1"/>
        <pt x="48" y="0" on="1"/>
      </contour>
      <contour>
        <pt x="541" y="577" on="1"/>
        <pt x="969" y="577" on="1"/>
        <pt x="969" y="427" on="1"/>
        <pt x="724" y="427" on="1"/>
        <pt x="724" y="343" on="1"/>
        <pt x="940" y="343" on="1"/>
        <pt x="940" y="193" on="1"/>
        <pt x="724" y="193" on="1"/>
        <pt x="724" y="0" on="1"/>
        <pt x="541" y="0" on="1"/>
      </contour>
    </TTGlyph>
    <TTGlyph name="F_F_B.sc" xMin="49" yMin="-8" xMax="1529" yMax="585">
      <contour>
        <pt x="49" y="577" on="1"/>
        <pt x="477" y="577" on="1"/>
        <pt x="477" y="427" on="1"/>
        <pt x="232" y="427" on="1"/>
        <pt x="232" y="343" on="1"/>
        <pt x="448" y="343" on="1"/>
        <pt x="448" y="193" on="1"/>
        <pt x="232" y="193" on="1"/>
        <pt x="232" y="0" on="1"/>
        <pt x="49" y="0" on="1"/>
      </contour>
      <contour>
        <pt x="542" y="577" on="1"/>
        <pt x="970" y="577" on="1"/>
        <pt x="970" y="427" on="1"/>
        <pt x="725" y="427" on="1"/>
        <pt x="725" y="343" on="1"/>
        <pt x="941" y="343" on="1"/>
        <pt x="941" y="193" on="1"/>
        <pt x="725" y="193" on="1"/>
        <pt x="725" y="0" on="1"/>
        <pt x="542" y="0" on="1"/>
      </contour>
      <contour>
        <pt x="1221" y="-8" on="1"/>
        <pt x="1128" y="-8" on="0"/>
        <pt x="1035" y="4" on="1"/>
        <pt x="1035" y="573" on="1"/>
        <pt x="1152" y="585" on="0"/>
        <pt x="1233" y="585" on="1"/>
        <pt x="1379" y="585" on="0"/>
        <pt x="1512" y="504" on="0"/>
        <pt x="1512" y="416" on="1"/>
        <pt x="1512" y="324" on="0"/>
        <pt x="1416" y="299" on="1"/>
        <pt x="1416" y="296" on="1"/>
        <pt x="1529" y="273" on="0"/>
        <pt x="1529" y="162" on="1"/>
        <pt x="1529" y="-8" on="0"/>
      </contour>
      <contour>
        <pt x="1254" y="126" on="1"/>
        <pt x="1302" y="126" on="0"/>
        <pt x="1353" y="151" on="0"/>
        <pt x="1353" y="175" on="1"/>
        <pt x="1353" y="207" on="0"/>
        <pt x="1308" y="229" on="0"/>
        <pt x="1253" y="229" on="1"/>
        <pt x="1203" y="229" on="1"/>
        <pt x="1203" y="128" on="1"/>
        <pt x="1211" y="126" on="0"/>
        <pt x="1230" y="126" on="0"/>
      </contour>
      <contour>
        <pt x="1250" y="349" on="1"/>
        <pt x="1297" y="349" on="0"/>
        <pt x="1332" y="371" on="0"/>
        <pt x="1332" y="403" on="1"/>
        <pt x="1332" y="429" on="0"/>
        <pt x="1295" y="451" on="0"/>
        <pt x="1256" y="451" on="1"/>
        <pt x="1233" y="451" on="0"/>
        <pt x="1203" y="448" on="1"/>
        <pt x="1203" y="349" on="1"/>
      </contour>
    </TTGlyph>
    <TTGlyph name="F_F_H.sc" xMin="48" yMin="0" xMax="1581" yMax="577">
      <contour>
        <pt x="48" y="577" on="1"/>
        <pt x="476" y="577" on="1"/>
        <pt x="476" y="427" on="1"/>
        <pt x="231" y="427" on="1"/>
        <pt x="231" y="343" on="1"/>
        <pt x="447" y="343" on="1"/>
        <pt x="447" y="193" on="1"/>
        <pt x="231" y="193" on="1"/>
        <pt x="231" y="0" on="1"/>
        <pt x="48" y="0" on="1"/>
      </contour>
      <contour>
        <pt x="541" y="577" on="1"/>
        <pt x="969" y="577" on="1"/>
        <pt x="969" y="427" on="1"/>
        <pt x="724" y="427" on="1"/>
        <pt x="724" y="343" on="1"/>
        <pt x="940" y="343" on="1"/>
        <pt x="940" y="193" on="1"/>
        <pt x="724" y="193" on="1"/>
        <pt x="724" y="0" on="1"/>
        <pt x="541" y="0" on="1"/>
      </contour>
      <contour>
        <pt x="1034" y="577" on="1"/>
        <pt x="1217" y="577" on="1"/>
        <pt x="1217" y="370" on="1"/>
        <pt x="1397" y="370" on="1"/>
        <pt x="1397" y="577" on="1"/>
        <pt x="1581" y="577" on="1"/>
        <pt x="1581" y="0" on="1"/>
        <pt x="1397" y="0" on="1"/>
        <pt x="1397" y="220" on="1"/>
        <pt x="1217" y="220" on="1"/>
        <pt x="1217" y="0" on="1"/>
        <pt x="1034" y="0" on="1"/>
      </contour>
    </TTGlyph>
    <TTGlyph name="F_F_I.sc" xMin="48" yMin="0" xMax="1217" yMax="577">
      <contour>
        <pt x="48" y="577" on="1"/>
        <pt x="476" y="577" on="1"/>
        <pt x="476" y="427" on="1"/>
        <pt x="231" y="427" on="1"/>
        <pt x="231" y="343" on="1"/>
        <pt x="447" y="343" on="1"/>
        <pt x="447" y="193" on="1"/>
        <pt x="231" y="193" on="1"/>
        <pt x="231" y="0" on="1"/>
        <pt x="48" y="0" on="1"/>
      </contour>
      <contour>
        <pt x="541" y="577" on="1"/>
        <pt x="969" y="577" on="1"/>
        <pt x="969" y="427" on="1"/>
        <pt x="724" y="427" on="1"/>
        <pt x="724" y="343" on="1"/>
        <pt x="940" y="343" on="1"/>
        <pt x="940" y="193" on="1"/>
        <pt x="724" y="193" on="1"/>
        <pt x="724" y="0" on="1"/>
        <pt x="541" y="0" on="1"/>
      </contour>
      <contour>
        <pt x="1034" y="577" on="1"/>
        <pt x="1217" y="577" on="1"/>
        <pt x="1217" y="0" on="1"/>
        <pt x="1034" y="0" on="1"/>
      </contour>
    </TTGlyph>
    <TTGlyph name="F_F_J.sc" xMin="49" yMin="-174" xMax="1228" yMax="577">
      <contour>
        <pt x="49" y="577" on="1"/>
        <pt x="477" y="577" on="1"/>
        <pt x="477" y="427" on="1"/>
        <pt x="232" y="427" on="1"/>
        <pt x="232" y="343" on="1"/>
        <pt x="448" y="343" on="1"/>
        <pt x="448" y="193" on="1"/>
        <pt x="232" y="193" on="1"/>
        <pt x="232" y="0" on="1"/>
        <pt x="49" y="0" on="1"/>
      </contour>
      <contour>
        <pt x="542" y="577" on="1"/>
        <pt x="970" y="577" on="1"/>
        <pt x="970" y="427" on="1"/>
        <pt x="725" y="427" on="1"/>
        <pt x="725" y="343" on="1"/>
        <pt x="941" y="343" on="1"/>
        <pt x="941" y="193" on="1"/>
        <pt x="725" y="193" on="1"/>
        <pt x="725" y="0" on="1"/>
        <pt x="542" y="0" on="1"/>
      </contour>
      <contour>
        <pt x="978" y="-125" on="1"/>
        <pt x="997" y="-87" on="0"/>
        <pt x="1023" y="-21" on="0"/>
        <pt x="1038" y="45" on="0"/>
        <pt x="1044" y="116" on="0"/>
        <pt x="1044" y="158" on="1"/>
        <pt x="1044" y="577" on="1"/>
        <pt x="1228" y="577" on="1"/>
        <pt x="1228" y="141" on="1"/>
        <pt x="1228" y="99" on="0"/>
        <pt x="1214" y="24" on="0"/>
        <pt x="1183" y="-49" on="0"/>
        <pt x="1131" y="-128" on="0"/>
        <pt x="1093" y="-174" on="1"/>
      </contour>
    </TTGlyph>
    <TTGlyph name="F_F_K.sc" xMin="48" yMin="0" xMax="1590" yMax="577">
      <contour>
        <pt x="48" y="577" on="1"/>
        <pt x="476" y="577" on="1"/>
        <pt x="476" y="427" on="1"/>
        <pt x="231" y="427" on="1"/>
        <pt x="231" y="343" on="1"/>
        <pt x="447" y="343" on="1"/>
        <pt x="447" y="193" on="1"/>
        <pt x="231" y="193" on="1"/>
        <pt x="231" y="0" on="1"/>
        <pt x="48" y="0" on="1"/>
      </contour>
      <contour>
        <pt x="541" y="577" on="1"/>
        <pt x="969" y="577" on="1"/>
        <pt x="969" y="427" on="1"/>
        <pt x="724" y="427" on="1"/>
        <pt x="724" y="343" on="1"/>
        <pt x="940" y="343" on="1"/>
        <pt x="940" y="193" on="1"/>
        <pt x="724" y="193" on="1"/>
        <pt x="724" y="0" on="1"/>
        <pt x="541" y="0" on="1"/>
      </contour>
      <contour>
        <pt x="1034" y="577" on="1"/>
        <pt x="1217" y="577" on="1"/>
        <pt x="1217" y="370" on="1"/>
        <pt x="1280" y="370" on="1"/>
        <pt x="1371" y="577" on="1"/>
        <pt x="1571" y="577" on="1"/>
        <pt x="1448" y="320" on="1"/>
        <pt x="1381" y="297" on="1"/>
        <pt x="1381" y="291" on="1"/>
        <pt x="1449" y="268" on="1"/>
        <pt x="1590" y="0" on="1"/>
        <pt x="1387" y="0" on="1"/>
        <pt x="1273" y="220" on="1"/>
        <pt x="1217" y="220" on="1"/>
        <pt x="1217" y="0" on="1"/>
        <pt x="1034" y="0" on="1"/>
      </contour>
    </TTGlyph>
    <TTGlyph name="F_F_L.sc" xMin="48" yMin="0" xMax="1423" yMax="577">
      <contour>
        <pt x="1034" y="577" on="1"/>
        <pt x="1217" y="577" on="1"/>
        <pt x="1217" y="150" on="1"/>
        <pt x="1423" y="150" on="1"/>
        <pt x="1423" y="0" on="1"/>
        <pt x="1034" y="0" on="1"/>
      </contour>
      <contour>
        <pt x="48" y="577" on="1"/>
        <pt x="476" y="577" on="1"/>
        <pt x="476" y="427" on="1"/>
        <pt x="231" y="427" on="1"/>
        <pt x="231" y="343" on="1"/>
        <pt x="447" y="343" on="1"/>
        <pt x="447" y="193" on="1"/>
        <pt x="231" y="193" on="1"/>
        <pt x="231" y="0" on="1"/>
        <pt x="48" y="0" on="1"/>
      </contour>
      <contour>
        <pt x="541" y="577" on="1"/>
        <pt x="969" y="577" on="1"/>
        <pt x="969" y="427" on="1"/>
        <pt x="724" y="427" on="1"/>
        <pt x="724" y="343" on="1"/>
        <pt x="940" y="343" on="1"/>
        <pt x="940" y="193" on="1"/>
        <pt x="724" y="193" on="1"/>
        <pt x="724" y="0" on="1"/>
        <pt x="541" y="0" on="1"/>
      </contour>
    </TTGlyph>
    <TTGlyph name="F_F_T.sc" xMin="48" yMin="0" xMax="1459" yMax="577">
      <contour>
        <pt x="1127" y="424" on="1"/>
        <pt x="978" y="424" on="1"/>
        <pt x="978" y="577" on="1"/>
        <pt x="1459" y="577" on="1"/>
        <pt x="1459" y="424" on="1"/>
        <pt x="1310" y="424" on="1"/>
        <pt x="1310" y="0" on="1"/>
        <pt x="1127" y="0" on="1"/>
      </contour>
      <contour>
        <pt x="48" y="577" on="1"/>
        <pt x="476" y="577" on="1"/>
        <pt x="476" y="427" on="1"/>
        <pt x="231" y="427" on="1"/>
        <pt x="231" y="343" on="1"/>
        <pt x="447" y="343" on="1"/>
        <pt x="447" y="193" on="1"/>
        <pt x="231" y="193" on="1"/>
        <pt x="231" y="0" on="1"/>
        <pt x="48" y="0" on="1"/>
      </contour>
      <contour>
        <pt x="541" y="577" on="1"/>
        <pt x="969" y="577" on="1"/>
        <pt x="969" y="427" on="1"/>
        <pt x="724" y="427" on="1"/>
        <pt x="724" y="343" on="1"/>
        <pt x="940" y="343" on="1"/>
        <pt x="940" y="193" on="1"/>
        <pt x="724" y="193" on="1"/>
        <pt x="724" y="0" on="1"/>
        <pt x="541" y="0" on="1"/>
      </contour>
    </TTGlyph>
    <TTGlyph name="F_H.sc" xMin="48" yMin="0" xMax="1088" yMax="577">
      <contour>
        <pt x="48" y="577" on="1"/>
        <pt x="476" y="577" on="1"/>
        <pt x="476" y="427" on="1"/>
        <pt x="231" y="427" on="1"/>
        <pt x="231" y="343" on="1"/>
        <pt x="447" y="343" on="1"/>
        <pt x="447" y="193" on="1"/>
        <pt x="231" y="193" on="1"/>
        <pt x="231" y="0" on="1"/>
        <pt x="48" y="0" on="1"/>
      </contour>
      <contour>
        <pt x="541" y="577" on="1"/>
        <pt x="724" y="577" on="1"/>
        <pt x="724" y="370" on="1"/>
        <pt x="904" y="370" on="1"/>
        <pt x="904" y="577" on="1"/>
        <pt x="1088" y="577" on="1"/>
        <pt x="1088" y="0" on="1"/>
        <pt x="904" y="0" on="1"/>
        <pt x="904" y="220" on="1"/>
        <pt x="724" y="220" on="1"/>
        <pt x="724" y="0" on="1"/>
        <pt x="541" y="0" on="1"/>
      </contour>
    </TTGlyph>
    <TTGlyph name="F_I.sc" xMin="48" yMin="0" xMax="724" yMax="577">
      <contour>
        <pt x="48" y="577" on="1"/>
        <pt x="476" y="577" on="1"/>
        <pt x="476" y="427" on="1"/>
        <pt x="231" y="427" on="1"/>
        <pt x="231" y="343" on="1"/>
        <pt x="447" y="343" on="1"/>
        <pt x="447" y="193" on="1"/>
        <pt x="231" y="193" on="1"/>
        <pt x="231" y="0" on="1"/>
        <pt x="48" y="0" on="1"/>
      </contour>
      <contour>
        <pt x="541" y="577" on="1"/>
        <pt x="724" y="577" on="1"/>
        <pt x="724" y="0" on="1"/>
        <pt x="541" y="0" on="1"/>
      </contour>
    </TTGlyph>
    <TTGlyph name="F_J.sc" xMin="49" yMin="-174" xMax="735" yMax="577">
      <contour>
        <pt x="49" y="577" on="1"/>
        <pt x="477" y="577" on="1"/>
        <pt x="477" y="427" on="1"/>
        <pt x="232" y="427" on="1"/>
        <pt x="232" y="343" on="1"/>
        <pt x="448" y="343" on="1"/>
        <pt x="448" y="193" on="1"/>
        <pt x="232" y="193" on="1"/>
        <pt x="232" y="0" on="1"/>
        <pt x="49" y="0" on="1"/>
      </contour>
      <contour>
        <pt x="485" y="-125" on="1"/>
        <pt x="504" y="-87" on="0"/>
        <pt x="530" y="-21" on="0"/>
        <pt x="545" y="45" on="0"/>
        <pt x="551" y="116" on="0"/>
        <pt x="551" y="158" on="1"/>
        <pt x="551" y="577" on="1"/>
        <pt x="735" y="577" on="1"/>
        <pt x="735" y="141" on="1"/>
        <pt x="735" y="99" on="0"/>
        <pt x="721" y="24" on="0"/>
        <pt x="690" y="-49" on="0"/>
        <pt x="638" y="-128" on="0"/>
        <pt x="600" y="-174" on="1"/>
      </contour>
    </TTGlyph>
    <TTGlyph name="F_K.sc" xMin="48" yMin="0" xMax="1097" yMax="577">
      <contour>
        <pt x="48" y="577" on="1"/>
        <pt x="476" y="577" on="1"/>
        <pt x="476" y="427" on="1"/>
        <pt x="231" y="427" on="1"/>
        <pt x="231" y="343" on="1"/>
        <pt x="447" y="343" on="1"/>
        <pt x="447" y="193" on="1"/>
        <pt x="231" y="193" on="1"/>
        <pt x="231" y="0" on="1"/>
        <pt x="48" y="0" on="1"/>
      </contour>
      <contour>
        <pt x="541" y="577" on="1"/>
        <pt x="724" y="577" on="1"/>
        <pt x="724" y="370" on="1"/>
        <pt x="787" y="370" on="1"/>
        <pt x="878" y="577" on="1"/>
        <pt x="1078" y="577" on="1"/>
        <pt x="955" y="320" on="1"/>
        <pt x="888" y="297" on="1"/>
        <pt x="888" y="291" on="1"/>
        <pt x="956" y="268" on="1"/>
        <pt x="1097" y="0" on="1"/>
        <pt x="894" y="0" on="1"/>
        <pt x="780" y="220" on="1"/>
        <pt x="724" y="220" on="1"/>
        <pt x="724" y="0" on="1"/>
        <pt x="541" y="0" on="1"/>
      </contour>
    </TTGlyph>
    <TTGlyph name="F_L.sc" xMin="48" yMin="0" xMax="930" yMax="577">
      <contour>
        <pt x="541" y="577" on="1"/>
        <pt x="724" y="577" on="1"/>
        <pt x="724" y="150" on="1"/>
        <pt x="930" y="150" on="1"/>
        <pt x="930" y="0" on="1"/>
        <pt x="541" y="0" on="1"/>
      </contour>
      <contour>
        <pt x="48" y="577" on="1"/>
        <pt x="476" y="577" on="1"/>
        <pt x="476" y="427" on="1"/>
        <pt x="231" y="427" on="1"/>
        <pt x="231" y="343" on="1"/>
        <pt x="447" y="343" on="1"/>
        <pt x="447" y="193" on="1"/>
        <pt x="231" y="193" on="1"/>
        <pt x="231" y="0" on="1"/>
        <pt x="48" y="0" on="1"/>
      </contour>
    </TTGlyph>
    <TTGlyph name="F_T.sc" xMin="48" yMin="0" xMax="966" yMax="577">
      <contour>
        <pt x="634" y="424" on="1"/>
        <pt x="485" y="424" on="1"/>
        <pt x="485" y="577" on="1"/>
        <pt x="966" y="577" on="1"/>
        <pt x="966" y="424" on="1"/>
        <pt x="817" y="424" on="1"/>
        <pt x="817" y="0" on="1"/>
        <pt x="634" y="0" on="1"/>
      </contour>
      <contour>
        <pt x="48" y="577" on="1"/>
        <pt x="476" y="577" on="1"/>
        <pt x="476" y="427" on="1"/>
        <pt x="231" y="427" on="1"/>
        <pt x="231" y="343" on="1"/>
        <pt x="447" y="343" on="1"/>
        <pt x="447" y="193" on="1"/>
        <pt x="231" y="193" on="1"/>
        <pt x="231" y="0" on="1"/>
        <pt x="48" y="0" on="1"/>
      </contour>
    </TTGlyph>
    <TTGlyph name="G" xMin="25" yMin="-9" xMax="561" yMax="749">
      <contour>
        <pt x="329" y="-9" on="1"/>
        <pt x="25" y="-9" on="0"/>
        <pt x="25" y="370" on="1"/>
        <pt x="25" y="559" on="0"/>
        <pt x="202" y="749" on="0"/>
        <pt x="378" y="749" on="1"/>
        <pt x="418" y="749" on="0"/>
        <pt x="501" y="738" on="0"/>
        <pt x="548" y="726" on="1"/>
        <pt x="548" y="573" on="1"/>
        <pt x="497" y="582" on="0"/>
        <pt x="426" y="591" on="0"/>
        <pt x="397" y="591" on="1"/>
        <pt x="348" y="591" on="0"/>
        <pt x="282" y="569" on="0"/>
        <pt x="242" y="518" on="0"/>
        <pt x="225" y="432" on="0"/>
        <pt x="225" y="369" on="1"/>
        <pt x="225" y="304" on="0"/>
        <pt x="237" y="219" on="0"/>
        <pt x="267" y="169" on="0"/>
        <pt x="319" y="150" on="0"/>
        <pt x="358" y="150" on="1"/>
        <pt x="387" y="150" on="1"/>
        <pt x="387" y="376" on="1"/>
        <pt x="561" y="376" on="1"/>
        <pt x="561" y="9" on="1"/>
        <pt x="482" y="-1" on="0"/>
        <pt x="375" y="-9" on="0"/>
      </contour>
    </TTGlyph>
    <TTGlyph name="G.sc" xMin="25" yMin="-7" xMax="520" yMax="585">
      <contour>
        <pt x="306" y="-7" on="1"/>
        <pt x="25" y="-7" on="0"/>
        <pt x="25" y="289" on="1"/>
        <pt x="25" y="433" on="0"/>
        <pt x="188" y="585" on="0"/>
        <pt x="349" y="585" on="1"/>
        <pt x="387" y="585" on="0"/>
        <pt x="466" y="576" on="0"/>
        <pt x="508" y="565" on="1"/>
        <pt x="508" y="423" on="1"/>
        <pt x="460" y="431" on="0"/>
        <pt x="393" y="438" on="0"/>
        <pt x="367" y="438" on="1"/>
        <pt x="322" y="438" on="0"/>
        <pt x="263" y="424" on="0"/>
        <pt x="228" y="390" on="0"/>
        <pt x="213" y="332" on="0"/>
        <pt x="213" y="288" on="1"/>
        <pt x="213" y="242" on="0"/>
        <pt x="223" y="184" on="0"/>
        <pt x="250" y="152" on="0"/>
        <pt x="295" y="141" on="0"/>
        <pt x="331" y="141" on="1"/>
        <pt x="356" y="141" on="1"/>
        <pt x="356" y="293" on="1"/>
        <pt x="520" y="293" on="1"/>
        <pt x="520" y="10" on="1"/>
        <pt x="448" y="1" on="0"/>
        <pt x="348" y="-7" on="0"/>
      </contour>
    </TTGlyph>
    <TTGlyph name="Gacute" xMin="25" yMin="-9" xMax="561" yMax="988">
      <contour>
        <pt x="256" y="800" on="1"/>
        <pt x="320" y="988" on="1"/>
        <pt x="514" y="988" on="1"/>
        <pt x="391" y="790" on="1"/>
      </contour>
      <contour>
        <pt x="329" y="-9" on="1"/>
        <pt x="25" y="-9" on="0"/>
        <pt x="25" y="370" on="1"/>
        <pt x="25" y="559" on="0"/>
        <pt x="202" y="749" on="0"/>
        <pt x="378" y="749" on="1"/>
        <pt x="418" y="749" on="0"/>
        <pt x="501" y="738" on="0"/>
        <pt x="548" y="726" on="1"/>
        <pt x="548" y="573" on="1"/>
        <pt x="497" y="582" on="0"/>
        <pt x="426" y="591" on="0"/>
        <pt x="397" y="591" on="1"/>
        <pt x="348" y="591" on="0"/>
        <pt x="282" y="569" on="0"/>
        <pt x="242" y="518" on="0"/>
        <pt x="225" y="432" on="0"/>
        <pt x="225" y="369" on="1"/>
        <pt x="225" y="304" on="0"/>
        <pt x="237" y="219" on="0"/>
        <pt x="267" y="169" on="0"/>
        <pt x="319" y="150" on="0"/>
        <pt x="358" y="150" on="1"/>
        <pt x="387" y="150" on="1"/>
        <pt x="387" y="376" on="1"/>
        <pt x="561" y="376" on="1"/>
        <pt x="561" y="9" on="1"/>
        <pt x="482" y="-1" on="0"/>
        <pt x="375" y="-9" on="0"/>
      </contour>
    </TTGlyph>
    <TTGlyph name="Gacute.sc" xMin="25" yMin="-7" xMax="520" yMax="786">
      <contour>
        <pt x="306" y="-7" on="1"/>
        <pt x="25" y="-7" on="0"/>
        <pt x="25" y="289" on="1"/>
        <pt x="25" y="433" on="0"/>
        <pt x="188" y="585" on="0"/>
        <pt x="349" y="585" on="1"/>
        <pt x="387" y="585" on="0"/>
        <pt x="466" y="576" on="0"/>
        <pt x="508" y="565" on="1"/>
        <pt x="508" y="423" on="1"/>
        <pt x="460" y="431" on="0"/>
        <pt x="393" y="438" on="0"/>
        <pt x="367" y="438" on="1"/>
        <pt x="322" y="438" on="0"/>
        <pt x="263" y="424" on="0"/>
        <pt x="228" y="390" on="0"/>
        <pt x="213" y="332" on="0"/>
        <pt x="213" y="288" on="1"/>
        <pt x="213" y="242" on="0"/>
        <pt x="223" y="184" on="0"/>
        <pt x="250" y="152" on="0"/>
        <pt x="295" y="141" on="0"/>
        <pt x="331" y="141" on="1"/>
        <pt x="356" y="141" on="1"/>
        <pt x="356" y="293" on="1"/>
        <pt x="520" y="293" on="1"/>
        <pt x="520" y="10" on="1"/>
        <pt x="448" y="1" on="0"/>
        <pt x="348" y="-7" on="0"/>
      </contour>
      <contour>
        <pt x="235" y="627" on="1"/>
        <pt x="292" y="786" on="1"/>
        <pt x="474" y="786" on="1"/>
        <pt x="361" y="618" on="1"/>
      </contour>
    </TTGlyph>
    <TTGlyph name="Gbreve" xMin="25" yMin="-9" xMax="561" yMax="976">
      <contour>
        <pt x="331" y="790" on="1"/>
        <pt x="237" y="790" on="0"/>
        <pt x="142" y="888" on="0"/>
        <pt x="142" y="976" on="1"/>
        <pt x="269" y="976" on="1"/>
        <pt x="269" y="947" on="0"/>
        <pt x="274" y="909" on="0"/>
        <pt x="288" y="886" on="0"/>
        <pt x="312" y="876" on="0"/>
        <pt x="331" y="876" on="1"/>
        <pt x="367" y="876" on="0"/>
        <pt x="392" y="919" on="0"/>
        <pt x="392" y="976" on="1"/>
        <pt x="520" y="976" on="1"/>
        <pt x="520" y="889" on="0"/>
        <pt x="423" y="790" on="0"/>
      </contour>
      <contour>
        <pt x="329" y="-9" on="1"/>
        <pt x="25" y="-9" on="0"/>
        <pt x="25" y="370" on="1"/>
        <pt x="25" y="559" on="0"/>
        <pt x="202" y="749" on="0"/>
        <pt x="378" y="749" on="1"/>
        <pt x="418" y="749" on="0"/>
        <pt x="501" y="738" on="0"/>
        <pt x="548" y="726" on="1"/>
        <pt x="548" y="573" on="1"/>
        <pt x="497" y="582" on="0"/>
        <pt x="426" y="591" on="0"/>
        <pt x="397" y="591" on="1"/>
        <pt x="348" y="591" on="0"/>
        <pt x="282" y="569" on="0"/>
        <pt x="242" y="518" on="0"/>
        <pt x="225" y="432" on="0"/>
        <pt x="225" y="369" on="1"/>
        <pt x="225" y="304" on="0"/>
        <pt x="237" y="219" on="0"/>
        <pt x="267" y="169" on="0"/>
        <pt x="319" y="150" on="0"/>
        <pt x="358" y="150" on="1"/>
        <pt x="387" y="150" on="1"/>
        <pt x="387" y="376" on="1"/>
        <pt x="561" y="376" on="1"/>
        <pt x="561" y="9" on="1"/>
        <pt x="482" y="-1" on="0"/>
        <pt x="375" y="-9" on="0"/>
      </contour>
    </TTGlyph>
    <TTGlyph name="Gbreve.sc" xMin="25" yMin="-7" xMax="520" yMax="768">
      <contour>
        <pt x="306" y="-7" on="1"/>
        <pt x="25" y="-7" on="0"/>
        <pt x="25" y="289" on="1"/>
        <pt x="25" y="433" on="0"/>
        <pt x="188" y="585" on="0"/>
        <pt x="349" y="585" on="1"/>
        <pt x="387" y="585" on="0"/>
        <pt x="466" y="576" on="0"/>
        <pt x="508" y="565" on="1"/>
        <pt x="508" y="423" on="1"/>
        <pt x="460" y="431" on="0"/>
        <pt x="393" y="438" on="0"/>
        <pt x="367" y="438" on="1"/>
        <pt x="322" y="438" on="0"/>
        <pt x="263" y="424" on="0"/>
        <pt x="228" y="390" on="0"/>
        <pt x="213" y="332" on="0"/>
        <pt x="213" y="288" on="1"/>
        <pt x="213" y="242" on="0"/>
        <pt x="223" y="184" on="0"/>
        <pt x="250" y="152" on="0"/>
        <pt x="295" y="141" on="0"/>
        <pt x="331" y="141" on="1"/>
        <pt x="356" y="141" on="1"/>
        <pt x="356" y="293" on="1"/>
        <pt x="520" y="293" on="1"/>
        <pt x="520" y="10" on="1"/>
        <pt x="448" y="1" on="0"/>
        <pt x="348" y="-7" on="0"/>
      </contour>
      <contour>
        <pt x="306" y="613" on="1"/>
        <pt x="218" y="613" on="0"/>
        <pt x="130" y="696" on="0"/>
        <pt x="130" y="768" on="1"/>
        <pt x="249" y="768" on="1"/>
        <pt x="249" y="722" on="0"/>
        <pt x="271" y="690" on="0"/>
        <pt x="306" y="690" on="1"/>
        <pt x="340" y="690" on="0"/>
        <pt x="362" y="722" on="0"/>
        <pt x="362" y="768" on="1"/>
        <pt x="482" y="768" on="1"/>
        <pt x="482" y="696" on="0"/>
        <pt x="394" y="613" on="0"/>
      </contour>
    </TTGlyph>
    <TTGlyph name="Gcircumflex" xMin="25" yMin="-9" xMax="561" yMax="981">
      <contour>
        <pt x="329" y="-9" on="1"/>
        <pt x="25" y="-9" on="0"/>
        <pt x="25" y="370" on="1"/>
        <pt x="25" y="559" on="0"/>
        <pt x="202" y="749" on="0"/>
        <pt x="378" y="749" on="1"/>
        <pt x="418" y="749" on="0"/>
        <pt x="501" y="738" on="0"/>
        <pt x="548" y="726" on="1"/>
        <pt x="548" y="573" on="1"/>
        <pt x="497" y="582" on="0"/>
        <pt x="426" y="591" on="0"/>
        <pt x="397" y="591" on="1"/>
        <pt x="348" y="591" on="0"/>
        <pt x="282" y="569" on="0"/>
        <pt x="242" y="518" on="0"/>
        <pt x="225" y="432" on="0"/>
        <pt x="225" y="369" on="1"/>
        <pt x="225" y="304" on="0"/>
        <pt x="237" y="219" on="0"/>
        <pt x="267" y="169" on="0"/>
        <pt x="319" y="150" on="0"/>
        <pt x="358" y="150" on="1"/>
        <pt x="387" y="150" on="1"/>
        <pt x="387" y="376" on="1"/>
        <pt x="561" y="376" on="1"/>
        <pt x="561" y="9" on="1"/>
        <pt x="482" y="-1" on="0"/>
        <pt x="375" y="-9" on="0"/>
      </contour>
      <contour>
        <pt x="160" y="910" on="1"/>
        <pt x="332" y="981" on="1"/>
        <pt x="502" y="910" on="1"/>
        <pt x="502" y="786" on="1"/>
        <pt x="331" y="857" on="1"/>
        <pt x="160" y="786" on="1"/>
      </contour>
    </TTGlyph>
    <TTGlyph name="Gcircumflex.sc" xMin="25" yMin="-7" xMax="520" yMax="777">
      <contour>
        <pt x="306" y="-7" on="1"/>
        <pt x="25" y="-7" on="0"/>
        <pt x="25" y="289" on="1"/>
        <pt x="25" y="433" on="0"/>
        <pt x="188" y="585" on="0"/>
        <pt x="349" y="585" on="1"/>
        <pt x="387" y="585" on="0"/>
        <pt x="466" y="576" on="0"/>
        <pt x="508" y="565" on="1"/>
        <pt x="508" y="423" on="1"/>
        <pt x="460" y="431" on="0"/>
        <pt x="393" y="438" on="0"/>
        <pt x="367" y="438" on="1"/>
        <pt x="322" y="438" on="0"/>
        <pt x="263" y="424" on="0"/>
        <pt x="228" y="390" on="0"/>
        <pt x="213" y="332" on="0"/>
        <pt x="213" y="288" on="1"/>
        <pt x="213" y="242" on="0"/>
        <pt x="223" y="184" on="0"/>
        <pt x="250" y="152" on="0"/>
        <pt x="295" y="141" on="0"/>
        <pt x="331" y="141" on="1"/>
        <pt x="356" y="141" on="1"/>
        <pt x="356" y="293" on="1"/>
        <pt x="520" y="293" on="1"/>
        <pt x="520" y="10" on="1"/>
        <pt x="448" y="1" on="0"/>
        <pt x="348" y="-7" on="0"/>
      </contour>
      <contour>
        <pt x="146" y="721" on="1"/>
        <pt x="306" y="777" on="1"/>
        <pt x="464" y="721" on="1"/>
        <pt x="464" y="608" on="1"/>
        <pt x="305" y="664" on="1"/>
        <pt x="146" y="608" on="1"/>
      </contour>
    </TTGlyph>
    <TTGlyph name="Gcommaaccent" xMin="25" yMin="-220" xMax="561" yMax="749">
      <contour>
        <pt x="245" y="-70" on="1"/>
        <pt x="439" y="-70" on="1"/>
        <pt x="345" y="-220" on="1"/>
        <pt x="204" y="-220" on="1"/>
      </contour>
      <contour>
        <pt x="329" y="-9" on="1"/>
        <pt x="25" y="-9" on="0"/>
        <pt x="25" y="370" on="1"/>
        <pt x="25" y="559" on="0"/>
        <pt x="202" y="749" on="0"/>
        <pt x="378" y="749" on="1"/>
        <pt x="418" y="749" on="0"/>
        <pt x="501" y="738" on="0"/>
        <pt x="548" y="726" on="1"/>
        <pt x="548" y="573" on="1"/>
        <pt x="497" y="582" on="0"/>
        <pt x="426" y="591" on="0"/>
        <pt x="397" y="591" on="1"/>
        <pt x="348" y="591" on="0"/>
        <pt x="282" y="569" on="0"/>
        <pt x="242" y="518" on="0"/>
        <pt x="225" y="432" on="0"/>
        <pt x="225" y="369" on="1"/>
        <pt x="225" y="304" on="0"/>
        <pt x="237" y="219" on="0"/>
        <pt x="267" y="169" on="0"/>
        <pt x="319" y="150" on="0"/>
        <pt x="358" y="150" on="1"/>
        <pt x="387" y="150" on="1"/>
        <pt x="387" y="376" on="1"/>
        <pt x="561" y="376" on="1"/>
        <pt x="561" y="9" on="1"/>
        <pt x="482" y="-1" on="0"/>
        <pt x="375" y="-9" on="0"/>
      </contour>
    </TTGlyph>
    <TTGlyph name="Gcommaaccent.sc" xMin="25" yMin="-172" xMax="520" yMax="585">
      <contour>
        <pt x="306" y="-7" on="1"/>
        <pt x="25" y="-7" on="0"/>
        <pt x="25" y="289" on="1"/>
        <pt x="25" y="433" on="0"/>
        <pt x="188" y="585" on="0"/>
        <pt x="349" y="585" on="1"/>
        <pt x="387" y="585" on="0"/>
        <pt x="466" y="576" on="0"/>
        <pt x="508" y="565" on="1"/>
        <pt x="508" y="423" on="1"/>
        <pt x="460" y="431" on="0"/>
        <pt x="393" y="438" on="0"/>
        <pt x="367" y="438" on="1"/>
        <pt x="322" y="438" on="0"/>
        <pt x="263" y="424" on="0"/>
        <pt x="228" y="390" on="0"/>
        <pt x="213" y="332" on="0"/>
        <pt x="213" y="288" on="1"/>
        <pt x="213" y="242" on="0"/>
        <pt x="223" y="184" on="0"/>
        <pt x="250" y="152" on="0"/>
        <pt x="295" y="141" on="0"/>
        <pt x="331" y="141" on="1"/>
        <pt x="356" y="141" on="1"/>
        <pt x="356" y="293" on="1"/>
        <pt x="520" y="293" on="1"/>
        <pt x="520" y="10" on="1"/>
        <pt x="448" y="1" on="0"/>
        <pt x="348" y="-7" on="0"/>
      </contour>
      <contour>
        <pt x="223" y="-55" on="1"/>
        <pt x="406" y="-55" on="1"/>
        <pt x="319" y="-172" on="1"/>
        <pt x="187" y="-172" on="1"/>
      </contour>
    </TTGlyph>
    <TTGlyph name="Gdotaccent" xMin="25" yMin="-9" xMax="561" yMax="997">
      <contour>
        <pt x="331" y="798" on="1"/>
        <pt x="276" y="798" on="0"/>
        <pt x="229" y="845" on="0"/>
        <pt x="229" y="898" on="1"/>
        <pt x="229" y="951" on="0"/>
        <pt x="276" y="997" on="0"/>
        <pt x="331" y="997" on="1"/>
        <pt x="385" y="997" on="0"/>
        <pt x="434" y="951" on="0"/>
        <pt x="434" y="898" on="1"/>
        <pt x="434" y="844" on="0"/>
        <pt x="385" y="798" on="0"/>
      </contour>
      <contour>
        <pt x="329" y="-9" on="1"/>
        <pt x="25" y="-9" on="0"/>
        <pt x="25" y="370" on="1"/>
        <pt x="25" y="559" on="0"/>
        <pt x="202" y="749" on="0"/>
        <pt x="378" y="749" on="1"/>
        <pt x="418" y="749" on="0"/>
        <pt x="501" y="738" on="0"/>
        <pt x="548" y="726" on="1"/>
        <pt x="548" y="573" on="1"/>
        <pt x="497" y="582" on="0"/>
        <pt x="426" y="591" on="0"/>
        <pt x="397" y="591" on="1"/>
        <pt x="348" y="591" on="0"/>
        <pt x="282" y="569" on="0"/>
        <pt x="242" y="518" on="0"/>
        <pt x="225" y="432" on="0"/>
        <pt x="225" y="369" on="1"/>
        <pt x="225" y="304" on="0"/>
        <pt x="237" y="219" on="0"/>
        <pt x="267" y="169" on="0"/>
        <pt x="319" y="150" on="0"/>
        <pt x="358" y="150" on="1"/>
        <pt x="387" y="150" on="1"/>
        <pt x="387" y="376" on="1"/>
        <pt x="561" y="376" on="1"/>
        <pt x="561" y="9" on="1"/>
        <pt x="482" y="-1" on="0"/>
        <pt x="375" y="-9" on="0"/>
      </contour>
    </TTGlyph>
    <TTGlyph name="Gdotaccent.sc" xMin="25" yMin="-7" xMax="520" yMax="804">
      <contour>
        <pt x="306" y="-7" on="1"/>
        <pt x="25" y="-7" on="0"/>
        <pt x="25" y="289" on="1"/>
        <pt x="25" y="433" on="0"/>
        <pt x="188" y="585" on="0"/>
        <pt x="349" y="585" on="1"/>
        <pt x="387" y="585" on="0"/>
        <pt x="466" y="576" on="0"/>
        <pt x="508" y="565" on="1"/>
        <pt x="508" y="423" on="1"/>
        <pt x="460" y="431" on="0"/>
        <pt x="393" y="438" on="0"/>
        <pt x="367" y="438" on="1"/>
        <pt x="322" y="438" on="0"/>
        <pt x="263" y="424" on="0"/>
        <pt x="228" y="390" on="0"/>
        <pt x="213" y="332" on="0"/>
        <pt x="213" y="288" on="1"/>
        <pt x="213" y="242" on="0"/>
        <pt x="223" y="184" on="0"/>
        <pt x="250" y="152" on="0"/>
        <pt x="295" y="141" on="0"/>
        <pt x="331" y="141" on="1"/>
        <pt x="356" y="141" on="1"/>
        <pt x="356" y="293" on="1"/>
        <pt x="520" y="293" on="1"/>
        <pt x="520" y="10" on="1"/>
        <pt x="448" y="1" on="0"/>
        <pt x="348" y="-7" on="0"/>
      </contour>
      <contour>
        <pt x="306" y="622" on="1"/>
        <pt x="255" y="622" on="0"/>
        <pt x="211" y="665" on="0"/>
        <pt x="211" y="714" on="1"/>
        <pt x="211" y="762" on="0"/>
        <pt x="255" y="804" on="0"/>
        <pt x="306" y="804" on="1"/>
        <pt x="357" y="804" on="0"/>
        <pt x="402" y="762" on="0"/>
        <pt x="402" y="714" on="1"/>
        <pt x="402" y="665" on="0"/>
        <pt x="357" y="622" on="0"/>
      </contour>
    </TTGlyph>
    <TTGlyph name="H" xMin="50" yMin="0" xMax="640" yMax="740">
      <contour>
        <pt x="50" y="740" on="1"/>
        <pt x="245" y="740" on="1"/>
        <pt x="245" y="459" on="1"/>
        <pt x="445" y="459" on="1"/>
        <pt x="445" y="740" on="1"/>
        <pt x="640" y="740" on="1"/>
        <pt x="640" y="0" on="1"/>
        <pt x="445" y="0" on="1"/>
        <pt x="445" y="297" on="1"/>
        <pt x="245" y="297" on="1"/>
        <pt x="245" y="0" on="1"/>
        <pt x="50" y="0" on="1"/>
      </contour>
    </TTGlyph>
    <TTGlyph name="H.sc" xMin="48" yMin="0" xMax="595" yMax="577">
      <contour>
        <pt x="48" y="577" on="1"/>
        <pt x="231" y="577" on="1"/>
        <pt x="231" y="370" on="1"/>
        <pt x="411" y="370" on="1"/>
        <pt x="411" y="577" on="1"/>
        <pt x="595" y="577" on="1"/>
        <pt x="595" y="0" on="1"/>
        <pt x="411" y="0" on="1"/>
        <pt x="411" y="220" on="1"/>
        <pt x="231" y="220" on="1"/>
        <pt x="231" y="0" on="1"/>
        <pt x="48" y="0" on="1"/>
      </contour>
    </TTGlyph>
    <TTGlyph name="Hbar" xMin="-3" yMin="0" xMax="726" yMax="740">
      <contour>
        <pt x="-3" y="624" on="1"/>
        <pt x="59" y="624" on="1"/>
        <pt x="59" y="740" on="1"/>
        <pt x="254" y="740" on="1"/>
        <pt x="254" y="624" on="1"/>
        <pt x="454" y="624" on="1"/>
        <pt x="454" y="740" on="1"/>
        <pt x="649" y="740" on="1"/>
        <pt x="649" y="624" on="1"/>
        <pt x="726" y="624" on="1"/>
        <pt x="726" y="537" on="1"/>
        <pt x="649" y="537" on="1"/>
        <pt x="649" y="0" on="1"/>
        <pt x="454" y="0" on="1"/>
        <pt x="454" y="297" on="1"/>
        <pt x="254" y="297" on="1"/>
        <pt x="254" y="0" on="1"/>
        <pt x="59" y="0" on="1"/>
        <pt x="59" y="537" on="1"/>
        <pt x="-3" y="537" on="1"/>
      </contour>
      <contour>
        <pt x="454" y="459" on="1"/>
        <pt x="454" y="537" on="1"/>
        <pt x="254" y="537" on="1"/>
        <pt x="254" y="459" on="1"/>
      </contour>
    </TTGlyph>
    <TTGlyph name="Hbar.sc" xMin="4" yMin="0" xMax="673" yMax="577">
      <contour>
        <pt x="4" y="496" on="1"/>
        <pt x="59" y="496" on="1"/>
        <pt x="59" y="577" on="1"/>
        <pt x="242" y="577" on="1"/>
        <pt x="242" y="496" on="1"/>
        <pt x="422" y="496" on="1"/>
        <pt x="422" y="577" on="1"/>
        <pt x="605" y="577" on="1"/>
        <pt x="605" y="496" on="1"/>
        <pt x="673" y="496" on="1"/>
        <pt x="673" y="416" on="1"/>
        <pt x="605" y="416" on="1"/>
        <pt x="605" y="0" on="1"/>
        <pt x="422" y="0" on="1"/>
        <pt x="422" y="220" on="1"/>
        <pt x="242" y="220" on="1"/>
        <pt x="242" y="0" on="1"/>
        <pt x="59" y="0" on="1"/>
        <pt x="59" y="416" on="1"/>
        <pt x="4" y="416" on="1"/>
      </contour>
      <contour>
        <pt x="422" y="370" on="1"/>
        <pt x="422" y="416" on="1"/>
        <pt x="242" y="416" on="1"/>
        <pt x="242" y="370" on="1"/>
      </contour>
    </TTGlyph>
    <TTGlyph name="Hcircumflex" xMin="50" yMin="0" xMax="640" yMax="981">
      <contour>
        <pt x="50" y="740" on="1"/>
        <pt x="245" y="740" on="1"/>
        <pt x="245" y="459" on="1"/>
        <pt x="445" y="459" on="1"/>
        <pt x="445" y="740" on="1"/>
        <pt x="640" y="740" on="1"/>
        <pt x="640" y="0" on="1"/>
        <pt x="445" y="0" on="1"/>
        <pt x="445" y="297" on="1"/>
        <pt x="245" y="297" on="1"/>
        <pt x="245" y="0" on="1"/>
        <pt x="50" y="0" on="1"/>
      </contour>
      <contour>
        <pt x="174" y="910" on="1"/>
        <pt x="346" y="981" on="1"/>
        <pt x="516" y="910" on="1"/>
        <pt x="516" y="786" on="1"/>
        <pt x="345" y="857" on="1"/>
        <pt x="174" y="786" on="1"/>
      </contour>
    </TTGlyph>
    <TTGlyph name="Hcircumflex.sc" xMin="48" yMin="0" xMax="595" yMax="777">
      <contour>
        <pt x="48" y="577" on="1"/>
        <pt x="231" y="577" on="1"/>
        <pt x="231" y="370" on="1"/>
        <pt x="411" y="370" on="1"/>
        <pt x="411" y="577" on="1"/>
        <pt x="595" y="577" on="1"/>
        <pt x="595" y="0" on="1"/>
        <pt x="411" y="0" on="1"/>
        <pt x="411" y="220" on="1"/>
        <pt x="231" y="220" on="1"/>
        <pt x="231" y="0" on="1"/>
        <pt x="48" y="0" on="1"/>
      </contour>
      <contour>
        <pt x="162" y="721" on="1"/>
        <pt x="322" y="777" on="1"/>
        <pt x="481" y="721" on="1"/>
        <pt x="481" y="608" on="1"/>
        <pt x="322" y="664" on="1"/>
        <pt x="162" y="608" on="1"/>
      </contour>
    </TTGlyph>
    <TTGlyph name="Hdotbelow" xMin="50" yMin="-220" xMax="640" yMax="740">
      <contour>
        <pt x="50" y="740" on="1"/>
        <pt x="245" y="740" on="1"/>
        <pt x="245" y="459" on="1"/>
        <pt x="445" y="459" on="1"/>
        <pt x="445" y="740" on="1"/>
        <pt x="640" y="740" on="1"/>
        <pt x="640" y="0" on="1"/>
        <pt x="445" y="0" on="1"/>
        <pt x="445" y="297" on="1"/>
        <pt x="245" y="297" on="1"/>
        <pt x="245" y="0" on="1"/>
        <pt x="50" y="0" on="1"/>
      </contour>
      <contour>
        <pt x="345" y="-220" on="1"/>
        <pt x="302" y="-220" on="0"/>
        <pt x="266" y="-184" on="0"/>
        <pt x="266" y="-143" on="1"/>
        <pt x="266" y="-102" on="0"/>
        <pt x="302" y="-67" on="0"/>
        <pt x="345" y="-67" on="1"/>
        <pt x="387" y="-67" on="0"/>
        <pt x="425" y="-101" on="0"/>
        <pt x="425" y="-143" on="1"/>
        <pt x="425" y="-185" on="0"/>
        <pt x="387" y="-220" on="0"/>
      </contour>
    </TTGlyph>
    <TTGlyph name="Hdotbelow.sc" xMin="48" yMin="-182" xMax="595" yMax="577">
      <contour>
        <pt x="48" y="577" on="1"/>
        <pt x="231" y="577" on="1"/>
        <pt x="231" y="370" on="1"/>
        <pt x="411" y="370" on="1"/>
        <pt x="411" y="577" on="1"/>
        <pt x="595" y="577" on="1"/>
        <pt x="595" y="0" on="1"/>
        <pt x="411" y="0" on="1"/>
        <pt x="411" y="220" on="1"/>
        <pt x="231" y="220" on="1"/>
        <pt x="231" y="0" on="1"/>
        <pt x="48" y="0" on="1"/>
      </contour>
      <contour>
        <pt x="321" y="-182" on="1"/>
        <pt x="281" y="-182" on="0"/>
        <pt x="248" y="-150" on="0"/>
        <pt x="248" y="-114" on="1"/>
        <pt x="248" y="-79" on="0"/>
        <pt x="281" y="-47" on="0"/>
        <pt x="321" y="-47" on="1"/>
        <pt x="360" y="-47" on="0"/>
        <pt x="395" y="-78" on="0"/>
        <pt x="395" y="-114" on="1"/>
        <pt x="395" y="-151" on="0"/>
        <pt x="360" y="-182" on="0"/>
      </contour>
    </TTGlyph>
    <TTGlyph name="I" xMin="50" yMin="0" xMax="245" yMax="740">
      <contour>
        <pt x="50" y="740" on="1"/>
        <pt x="245" y="740" on="1"/>
        <pt x="245" y="0" on="1"/>
        <pt x="50" y="0" on="1"/>
      </contour>
    </TTGlyph>
    <TTGlyph name="I.sc" xMin="48" yMin="0" xMax="231" yMax="577">
      <contour>
        <pt x="48" y="577" on="1"/>
        <pt x="231" y="577" on="1"/>
        <pt x="231" y="0" on="1"/>
        <pt x="48" y="0" on="1"/>
      </contour>
    </TTGlyph>
    <TTGlyph name="IJ" xMin="50" yMin="-214" xMax="543" yMax="740">
      <contour>
        <pt x="50" y="740" on="1"/>
        <pt x="245" y="740" on="1"/>
        <pt x="245" y="0" on="1"/>
        <pt x="50" y="0" on="1"/>
      </contour>
      <contour>
        <pt x="273" y="-160" on="1"/>
        <pt x="294" y="-111" on="0"/>
        <pt x="323" y="-26" on="0"/>
        <pt x="340" y="57" on="0"/>
        <pt x="347" y="145" on="0"/>
        <pt x="347" y="198" on="1"/>
        <pt x="347" y="740" on="1"/>
        <pt x="543" y="740" on="1"/>
        <pt x="543" y="180" on="1"/>
        <pt x="543" y="127" on="0"/>
        <pt x="528" y="34" on="0"/>
        <pt x="493" y="-59" on="0"/>
        <pt x="436" y="-157" on="0"/>
        <pt x="395" y="-214" on="1"/>
      </contour>
    </TTGlyph>
    <TTGlyph name="Iacute" xMin="50" yMin="0" xMax="331" yMax="988">
      <contour>
        <pt x="50" y="740" on="1"/>
        <pt x="245" y="740" on="1"/>
        <pt x="245" y="0" on="1"/>
        <pt x="50" y="0" on="1"/>
      </contour>
      <contour>
        <pt x="73" y="800" on="1"/>
        <pt x="137" y="988" on="1"/>
        <pt x="331" y="988" on="1"/>
        <pt x="208" y="790" on="1"/>
      </contour>
    </TTGlyph>
    <TTGlyph name="Iacute.sc" xMin="48" yMin="0" xMax="309" yMax="786">
      <contour>
        <pt x="48" y="577" on="1"/>
        <pt x="231" y="577" on="1"/>
        <pt x="231" y="0" on="1"/>
        <pt x="48" y="0" on="1"/>
      </contour>
      <contour>
        <pt x="70" y="627" on="1"/>
        <pt x="127" y="786" on="1"/>
        <pt x="309" y="786" on="1"/>
        <pt x="196" y="618" on="1"/>
      </contour>
    </TTGlyph>
    <TTGlyph name="Ibreve" xMin="-41" yMin="0" xMax="337" yMax="976">
      <contour>
        <pt x="50" y="740" on="1"/>
        <pt x="245" y="740" on="1"/>
        <pt x="245" y="0" on="1"/>
        <pt x="50" y="0" on="1"/>
      </contour>
      <contour>
        <pt x="148" y="790" on="1"/>
        <pt x="54" y="790" on="0"/>
        <pt x="-41" y="888" on="0"/>
        <pt x="-41" y="976" on="1"/>
        <pt x="86" y="976" on="1"/>
        <pt x="86" y="947" on="0"/>
        <pt x="91" y="909" on="0"/>
        <pt x="105" y="886" on="0"/>
        <pt x="129" y="876" on="0"/>
        <pt x="148" y="876" on="1"/>
        <pt x="184" y="876" on="0"/>
        <pt x="209" y="919" on="0"/>
        <pt x="209" y="976" on="1"/>
        <pt x="337" y="976" on="1"/>
        <pt x="337" y="889" on="0"/>
        <pt x="240" y="790" on="0"/>
      </contour>
    </TTGlyph>
    <TTGlyph name="Ibreve.sc" xMin="-36" yMin="0" xMax="316" yMax="768">
      <contour>
        <pt x="48" y="577" on="1"/>
        <pt x="231" y="577" on="1"/>
        <pt x="231" y="0" on="1"/>
        <pt x="48" y="0" on="1"/>
      </contour>
      <contour>
        <pt x="140" y="613" on="1"/>
        <pt x="51" y="613" on="0"/>
        <pt x="-36" y="696" on="0"/>
        <pt x="-36" y="768" on="1"/>
        <pt x="83" y="768" on="1"/>
        <pt x="83" y="722" on="0"/>
        <pt x="105" y="690" on="0"/>
        <pt x="140" y="690" on="1"/>
        <pt x="174" y="690" on="0"/>
        <pt x="196" y="722" on="0"/>
        <pt x="196" y="768" on="1"/>
        <pt x="316" y="768" on="1"/>
        <pt x="316" y="696" on="0"/>
        <pt x="227" y="613" on="0"/>
      </contour>
    </TTGlyph>
    <TTGlyph name="Icircumflex" xMin="-23" yMin="0" xMax="319" yMax="981">
      <contour>
        <pt x="50" y="740" on="1"/>
        <pt x="245" y="740" on="1"/>
        <pt x="245" y="0" on="1"/>
        <pt x="50" y="0" on="1"/>
      </contour>
      <contour>
        <pt x="-23" y="910" on="1"/>
        <pt x="149" y="981" on="1"/>
        <pt x="319" y="910" on="1"/>
        <pt x="319" y="786" on="1"/>
        <pt x="148" y="857" on="1"/>
        <pt x="-23" y="786" on="1"/>
      </contour>
    </TTGlyph>
    <TTGlyph name="Icircumflex.sc" xMin="-19" yMin="0" xMax="300" yMax="777">
      <contour>
        <pt x="48" y="577" on="1"/>
        <pt x="231" y="577" on="1"/>
        <pt x="231" y="0" on="1"/>
        <pt x="48" y="0" on="1"/>
      </contour>
      <contour>
        <pt x="-19" y="721" on="1"/>
        <pt x="141" y="777" on="1"/>
        <pt x="300" y="721" on="1"/>
        <pt x="300" y="608" on="1"/>
        <pt x="140" y="664" on="1"/>
        <pt x="-19" y="608" on="1"/>
      </contour>
    </TTGlyph>
    <TTGlyph name="Idblgrave" xMin="-112" yMin="0" xMax="307" yMax="988">
      <contour>
        <pt x="50" y="740" on="1"/>
        <pt x="245" y="740" on="1"/>
        <pt x="245" y="0" on="1"/>
        <pt x="50" y="0" on="1"/>
      </contour>
      <contour>
        <pt x="12" y="790" on="1"/>
        <pt x="-112" y="988" on="1"/>
        <pt x="45" y="988" on="1"/>
        <pt x="109" y="800" on="1"/>
      </contour>
      <contour>
        <pt x="210" y="790" on="1"/>
        <pt x="86" y="988" on="1"/>
        <pt x="243" y="988" on="1"/>
        <pt x="307" y="800" on="1"/>
      </contour>
    </TTGlyph>
    <TTGlyph name="Idblgrave.sc" xMin="-101" yMin="0" xMax="289" yMax="786">
      <contour>
        <pt x="48" y="577" on="1"/>
        <pt x="231" y="577" on="1"/>
        <pt x="231" y="0" on="1"/>
        <pt x="48" y="0" on="1"/>
      </contour>
      <contour>
        <pt x="12" y="618" on="1"/>
        <pt x="-101" y="786" on="1"/>
        <pt x="49" y="786" on="1"/>
        <pt x="105" y="625" on="1"/>
      </contour>
      <contour>
        <pt x="196" y="618" on="1"/>
        <pt x="83" y="786" on="1"/>
        <pt x="232" y="786" on="1"/>
        <pt x="289" y="625" on="1"/>
      </contour>
    </TTGlyph>
    <TTGlyph name="Idieresis" xMin="-87" yMin="0" xMax="382" yMax="997">
      <contour>
        <pt x="50" y="740" on="1"/>
        <pt x="245" y="740" on="1"/>
        <pt x="245" y="0" on="1"/>
        <pt x="50" y="0" on="1"/>
      </contour>
      <contour>
        <pt x="15" y="798" on="1"/>
        <pt x="-40" y="798" on="0"/>
        <pt x="-87" y="845" on="0"/>
        <pt x="-87" y="898" on="1"/>
        <pt x="-87" y="951" on="0"/>
        <pt x="-40" y="997" on="0"/>
        <pt x="15" y="997" on="1"/>
        <pt x="69" y="997" on="0"/>
        <pt x="118" y="951" on="0"/>
        <pt x="118" y="898" on="1"/>
        <pt x="118" y="844" on="0"/>
        <pt x="69" y="798" on="0"/>
      </contour>
      <contour>
        <pt x="279" y="798" on="1"/>
        <pt x="224" y="798" on="0"/>
        <pt x="177" y="845" on="0"/>
        <pt x="177" y="898" on="1"/>
        <pt x="177" y="951" on="0"/>
        <pt x="224" y="997" on="0"/>
        <pt x="279" y="997" on="1"/>
        <pt x="333" y="997" on="0"/>
        <pt x="382" y="951" on="0"/>
        <pt x="382" y="898" on="1"/>
        <pt x="382" y="844" on="0"/>
        <pt x="333" y="798" on="0"/>
      </contour>
    </TTGlyph>
    <TTGlyph name="Idieresis.sc" xMin="-78" yMin="0" xMax="358" yMax="802">
      <contour>
        <pt x="48" y="577" on="1"/>
        <pt x="231" y="577" on="1"/>
        <pt x="231" y="0" on="1"/>
        <pt x="48" y="0" on="1"/>
      </contour>
      <contour>
        <pt x="17" y="619" on="1"/>
        <pt x="-34" y="619" on="0"/>
        <pt x="-78" y="663" on="0"/>
        <pt x="-78" y="711" on="1"/>
        <pt x="-78" y="759" on="0"/>
        <pt x="-34" y="802" on="0"/>
        <pt x="17" y="802" on="1"/>
        <pt x="68" y="802" on="0"/>
        <pt x="113" y="759" on="0"/>
        <pt x="113" y="711" on="1"/>
        <pt x="113" y="662" on="0"/>
        <pt x="68" y="619" on="0"/>
      </contour>
      <contour>
        <pt x="261" y="619" on="1"/>
        <pt x="210" y="619" on="0"/>
        <pt x="166" y="663" on="0"/>
        <pt x="166" y="711" on="1"/>
        <pt x="166" y="759" on="0"/>
        <pt x="210" y="802" on="0"/>
        <pt x="261" y="802" on="1"/>
        <pt x="312" y="802" on="0"/>
        <pt x="358" y="759" on="0"/>
        <pt x="358" y="711" on="1"/>
        <pt x="358" y="662" on="0"/>
        <pt x="312" y="619" on="0"/>
      </contour>
    </TTGlyph>
    <TTGlyph name="Idotaccent" xMin="46" yMin="0" xMax="251" yMax="997">
      <contour>
        <pt x="50" y="740" on="1"/>
        <pt x="245" y="740" on="1"/>
        <pt x="245" y="0" on="1"/>
        <pt x="50" y="0" on="1"/>
      </contour>
      <contour>
        <pt x="148" y="798" on="1"/>
        <pt x="93" y="798" on="0"/>
        <pt x="46" y="845" on="0"/>
        <pt x="46" y="898" on="1"/>
        <pt x="46" y="951" on="0"/>
        <pt x="93" y="997" on="0"/>
        <pt x="148" y="997" on="1"/>
        <pt x="202" y="997" on="0"/>
        <pt x="251" y="951" on="0"/>
        <pt x="251" y="898" on="1"/>
        <pt x="251" y="844" on="0"/>
        <pt x="202" y="798" on="0"/>
      </contour>
    </TTGlyph>
    <TTGlyph name="Idotaccent.sc" xMin="45" yMin="0" xMax="236" yMax="804">
      <contour>
        <pt x="48" y="577" on="1"/>
        <pt x="231" y="577" on="1"/>
        <pt x="231" y="0" on="1"/>
        <pt x="48" y="0" on="1"/>
      </contour>
      <contour>
        <pt x="140" y="622" on="1"/>
        <pt x="89" y="622" on="0"/>
        <pt x="45" y="665" on="0"/>
        <pt x="45" y="714" on="1"/>
        <pt x="45" y="762" on="0"/>
        <pt x="89" y="804" on="0"/>
        <pt x="140" y="804" on="1"/>
        <pt x="191" y="804" on="0"/>
        <pt x="236" y="762" on="0"/>
        <pt x="236" y="714" on="1"/>
        <pt x="236" y="665" on="0"/>
        <pt x="191" y="622" on="0"/>
      </contour>
    </TTGlyph>
    <TTGlyph name="Idotbelow" xMin="50" yMin="-220" xMax="245" yMax="740">
      <contour>
        <pt x="50" y="740" on="1"/>
        <pt x="245" y="740" on="1"/>
        <pt x="245" y="0" on="1"/>
        <pt x="50" y="0" on="1"/>
      </contour>
      <contour>
        <pt x="148" y="-220" on="1"/>
        <pt x="105" y="-220" on="0"/>
        <pt x="69" y="-184" on="0"/>
        <pt x="69" y="-143" on="1"/>
        <pt x="69" y="-102" on="0"/>
        <pt x="105" y="-67" on="0"/>
        <pt x="148" y="-67" on="1"/>
        <pt x="190" y="-67" on="0"/>
        <pt x="228" y="-101" on="0"/>
        <pt x="228" y="-143" on="1"/>
        <pt x="228" y="-185" on="0"/>
        <pt x="190" y="-220" on="0"/>
      </contour>
    </TTGlyph>
    <TTGlyph name="Idotbelow.sc" xMin="48" yMin="-182" xMax="231" yMax="577">
      <contour>
        <pt x="48" y="577" on="1"/>
        <pt x="231" y="577" on="1"/>
        <pt x="231" y="0" on="1"/>
        <pt x="48" y="0" on="1"/>
      </contour>
      <contour>
        <pt x="140" y="-182" on="1"/>
        <pt x="100" y="-182" on="0"/>
        <pt x="67" y="-150" on="0"/>
        <pt x="67" y="-114" on="1"/>
        <pt x="67" y="-79" on="0"/>
        <pt x="100" y="-47" on="0"/>
        <pt x="140" y="-47" on="1"/>
        <pt x="179" y="-47" on="0"/>
        <pt x="214" y="-78" on="0"/>
        <pt x="214" y="-114" on="1"/>
        <pt x="214" y="-151" on="0"/>
        <pt x="179" y="-182" on="0"/>
      </contour>
    </TTGlyph>
    <TTGlyph name="Igrave" xMin="-46" yMin="0" xMax="245" yMax="988">
      <contour>
        <pt x="50" y="740" on="1"/>
        <pt x="245" y="740" on="1"/>
        <pt x="245" y="0" on="1"/>
        <pt x="50" y="0" on="1"/>
      </contour>
      <contour>
        <pt x="77" y="790" on="1"/>
        <pt x="-46" y="988" on="1"/>
        <pt x="148" y="988" on="1"/>
        <pt x="212" y="800" on="1"/>
      </contour>
    </TTGlyph>
    <TTGlyph name="Igrave.sc" xMin="-38" yMin="0" xMax="231" yMax="786">
      <contour>
        <pt x="48" y="577" on="1"/>
        <pt x="231" y="577" on="1"/>
        <pt x="231" y="0" on="1"/>
        <pt x="48" y="0" on="1"/>
      </contour>
      <contour>
        <pt x="75" y="618" on="1"/>
        <pt x="-38" y="786" on="1"/>
        <pt x="144" y="786" on="1"/>
        <pt x="201" y="625" on="1"/>
      </contour>
    </TTGlyph>
    <TTGlyph name="Iinvertedbreve" xMin="-40" yMin="0" xMax="338" yMax="986">
      <contour>
        <pt x="50" y="740" on="1"/>
        <pt x="245" y="740" on="1"/>
        <pt x="245" y="0" on="1"/>
        <pt x="50" y="0" on="1"/>
      </contour>
      <contour>
        <pt x="210" y="800" on="1"/>
        <pt x="210" y="857" on="0"/>
        <pt x="185" y="900" on="0"/>
        <pt x="149" y="900" on="1"/>
        <pt x="130" y="900" on="0"/>
        <pt x="106" y="890" on="0"/>
        <pt x="92" y="867" on="0"/>
        <pt x="87" y="828" on="0"/>
        <pt x="87" y="800" on="1"/>
        <pt x="-40" y="800" on="1"/>
        <pt x="-40" y="888" on="0"/>
        <pt x="55" y="986" on="0"/>
        <pt x="149" y="986" on="1"/>
        <pt x="241" y="986" on="0"/>
        <pt x="338" y="888" on="0"/>
        <pt x="338" y="800" on="1"/>
      </contour>
    </TTGlyph>
    <TTGlyph name="Iinvertedbreve.sc" xMin="-35" yMin="0" xMax="317" yMax="776">
      <contour>
        <pt x="48" y="577" on="1"/>
        <pt x="231" y="577" on="1"/>
        <pt x="231" y="0" on="1"/>
        <pt x="48" y="0" on="1"/>
      </contour>
      <contour>
        <pt x="197" y="621" on="1"/>
        <pt x="197" y="666" on="0"/>
        <pt x="175" y="698" on="0"/>
        <pt x="141" y="698" on="1"/>
        <pt x="106" y="698" on="0"/>
        <pt x="84" y="666" on="0"/>
        <pt x="84" y="621" on="1"/>
        <pt x="-35" y="621" on="1"/>
        <pt x="-35" y="693" on="0"/>
        <pt x="52" y="776" on="0"/>
        <pt x="141" y="776" on="1"/>
        <pt x="228" y="776" on="0"/>
        <pt x="317" y="693" on="0"/>
        <pt x="317" y="621" on="1"/>
      </contour>
    </TTGlyph>
    <TTGlyph name="Imacron" xMin="-24" yMin="0" xMax="319" yMax="960">
      <contour>
        <pt x="50" y="740" on="1"/>
        <pt x="245" y="740" on="1"/>
        <pt x="245" y="0" on="1"/>
        <pt x="50" y="0" on="1"/>
      </contour>
      <contour>
        <pt x="-24" y="960" on="1"/>
        <pt x="319" y="960" on="1"/>
        <pt x="319" y="836" on="1"/>
        <pt x="-24" y="836" on="1"/>
      </contour>
    </TTGlyph>
    <TTGlyph name="Imacron.sc" xMin="-20" yMin="0" xMax="300" yMax="766">
      <contour>
        <pt x="48" y="577" on="1"/>
        <pt x="231" y="577" on="1"/>
        <pt x="231" y="0" on="1"/>
        <pt x="48" y="0" on="1"/>
      </contour>
      <contour>
        <pt x="-20" y="766" on="1"/>
        <pt x="300" y="766" on="1"/>
        <pt x="300" y="651" on="1"/>
        <pt x="-20" y="651" on="1"/>
      </contour>
    </TTGlyph>
    <TTGlyph name="Iogonek" xMin="16" yMin="-220" xMax="245" yMax="740">
      <contour>
        <pt x="50" y="740" on="1"/>
        <pt x="245" y="740" on="1"/>
        <pt x="245" y="-5" on="1"/>
        <pt x="182" y="-30" on="0"/>
        <pt x="136" y="-82" on="0"/>
        <pt x="136" y="-95" on="1"/>
        <pt x="136" y="-105" on="0"/>
        <pt x="155" y="-113" on="0"/>
        <pt x="171" y="-113" on="1"/>
        <pt x="190" y="-113" on="0"/>
        <pt x="231" y="-105" on="0"/>
        <pt x="245" y="-100" on="1"/>
        <pt x="245" y="-208" on="1"/>
        <pt x="219" y="-213" on="0"/>
        <pt x="176" y="-220" on="0"/>
        <pt x="150" y="-220" on="1"/>
        <pt x="16" y="-220" on="0"/>
        <pt x="16" y="-116" on="1"/>
        <pt x="16" y="-84" on="0"/>
        <pt x="47" y="-32" on="0"/>
        <pt x="88" y="0" on="1"/>
        <pt x="50" y="0" on="1"/>
      </contour>
    </TTGlyph>
    <TTGlyph name="Iogonek.sc" xMin="20" yMin="-172" xMax="232" yMax="577">
      <contour>
        <pt x="49" y="577" on="1"/>
        <pt x="232" y="577" on="1"/>
        <pt x="232" y="-1" on="1"/>
        <pt x="202" y="-12" on="0"/>
        <pt x="164" y="-33" on="0"/>
        <pt x="141" y="-51" on="0"/>
        <pt x="132" y="-63" on="0"/>
        <pt x="132" y="-66" on="1"/>
        <pt x="132" y="-74" on="0"/>
        <pt x="163" y="-74" on="1"/>
        <pt x="180" y="-74" on="0"/>
        <pt x="218" y="-67" on="0"/>
        <pt x="232" y="-64" on="1"/>
        <pt x="232" y="-162" on="1"/>
        <pt x="208" y="-167" on="0"/>
        <pt x="168" y="-172" on="0"/>
        <pt x="145" y="-172" on="1"/>
        <pt x="20" y="-172" on="0"/>
        <pt x="20" y="-87" on="1"/>
        <pt x="20" y="-63" on="0"/>
        <pt x="47" y="-26" on="0"/>
        <pt x="81" y="0" on="1"/>
        <pt x="49" y="0" on="1"/>
      </contour>
    </TTGlyph>
    <TTGlyph name="Itilde" xMin="-41" yMin="0" xMax="366" yMax="965">
      <contour>
        <pt x="50" y="740" on="1"/>
        <pt x="245" y="740" on="1"/>
        <pt x="245" y="0" on="1"/>
        <pt x="50" y="0" on="1"/>
      </contour>
      <contour>
        <pt x="-41" y="833" on="1"/>
        <pt x="-9" y="900" on="0"/>
        <pt x="70" y="965" on="0"/>
        <pt x="108" y="965" on="1"/>
        <pt x="127" y="965" on="0"/>
        <pt x="166" y="953" on="0"/>
        <pt x="205" y="939" on="0"/>
        <pt x="244" y="927" on="0"/>
        <pt x="264" y="927" on="1"/>
        <pt x="284" y="927" on="0"/>
        <pt x="320" y="943" on="0"/>
        <pt x="343" y="965" on="1"/>
        <pt x="366" y="944" on="1"/>
        <pt x="334" y="876" on="0"/>
        <pt x="256" y="812" on="0"/>
        <pt x="217" y="812" on="1"/>
        <pt x="197" y="812" on="0"/>
        <pt x="158" y="824" on="0"/>
        <pt x="119" y="837" on="0"/>
        <pt x="80" y="849" on="0"/>
        <pt x="61" y="849" on="1"/>
        <pt x="41" y="849" on="0"/>
        <pt x="4" y="834" on="0"/>
        <pt x="-19" y="812" on="1"/>
      </contour>
    </TTGlyph>
    <TTGlyph name="Itilde.sc" xMin="-37" yMin="0" xMax="342" yMax="768">
      <contour>
        <pt x="48" y="577" on="1"/>
        <pt x="231" y="577" on="1"/>
        <pt x="231" y="0" on="1"/>
        <pt x="48" y="0" on="1"/>
      </contour>
      <contour>
        <pt x="-37" y="648" on="1"/>
        <pt x="-8" y="710" on="0"/>
        <pt x="66" y="767" on="0"/>
        <pt x="101" y="767" on="1"/>
        <pt x="119" y="767" on="0"/>
        <pt x="156" y="758" on="0"/>
        <pt x="192" y="748" on="0"/>
        <pt x="229" y="739" on="0"/>
        <pt x="247" y="739" on="1"/>
        <pt x="265" y="739" on="0"/>
        <pt x="300" y="750" on="0"/>
        <pt x="321" y="768" on="1"/>
        <pt x="342" y="750" on="1"/>
        <pt x="312" y="689" on="0"/>
        <pt x="239" y="632" on="0"/>
        <pt x="203" y="632" on="1"/>
        <pt x="185" y="632" on="0"/>
        <pt x="149" y="641" on="0"/>
        <pt x="112" y="651" on="0"/>
        <pt x="75" y="660" on="0"/>
        <pt x="57" y="660" on="1"/>
        <pt x="38" y="660" on="0"/>
        <pt x="5" y="650" on="0"/>
        <pt x="-17" y="632" on="1"/>
      </contour>
    </TTGlyph>
    <TTGlyph name="J" xMin="-22" yMin="-214" xMax="248" yMax="740">
      <contour>
        <pt x="-22" y="-160" on="1"/>
        <pt x="-1" y="-111" on="0"/>
        <pt x="28" y="-26" on="0"/>
        <pt x="45" y="57" on="0"/>
        <pt x="52" y="145" on="0"/>
        <pt x="52" y="198" on="1"/>
        <pt x="52" y="740" on="1"/>
        <pt x="248" y="740" on="1"/>
        <pt x="248" y="180" on="1"/>
        <pt x="248" y="127" on="0"/>
        <pt x="233" y="34" on="0"/>
        <pt x="198" y="-59" on="0"/>
        <pt x="141" y="-157" on="0"/>
        <pt x="100" y="-214" on="1"/>
      </contour>
    </TTGlyph>
    <TTGlyph name="J.sc" xMin="-16" yMin="-174" xMax="234" yMax="577">
      <contour>
        <pt x="-16" y="-125" on="1"/>
        <pt x="3" y="-87" on="0"/>
        <pt x="29" y="-21" on="0"/>
        <pt x="44" y="45" on="0"/>
        <pt x="50" y="116" on="0"/>
        <pt x="50" y="158" on="1"/>
        <pt x="50" y="577" on="1"/>
        <pt x="234" y="577" on="1"/>
        <pt x="234" y="141" on="1"/>
        <pt x="234" y="99" on="0"/>
        <pt x="220" y="24" on="0"/>
        <pt x="189" y="-49" on="0"/>
        <pt x="137" y="-128" on="0"/>
        <pt x="99" y="-174" on="1"/>
      </contour>
    </TTGlyph>
    <TTGlyph name="Jcircumflex" xMin="-22" yMin="-214" xMax="325" yMax="981">
      <contour>
        <pt x="-22" y="-160" on="1"/>
        <pt x="-1" y="-111" on="0"/>
        <pt x="28" y="-26" on="0"/>
        <pt x="45" y="57" on="0"/>
        <pt x="52" y="145" on="0"/>
        <pt x="52" y="198" on="1"/>
        <pt x="52" y="740" on="1"/>
        <pt x="248" y="740" on="1"/>
        <pt x="248" y="180" on="1"/>
        <pt x="248" y="127" on="0"/>
        <pt x="233" y="34" on="0"/>
        <pt x="198" y="-59" on="0"/>
        <pt x="141" y="-157" on="0"/>
        <pt x="100" y="-214" on="1"/>
      </contour>
      <contour>
        <pt x="-17" y="910" on="1"/>
        <pt x="155" y="981" on="1"/>
        <pt x="325" y="910" on="1"/>
        <pt x="325" y="786" on="1"/>
        <pt x="154" y="857" on="1"/>
        <pt x="-17" y="786" on="1"/>
      </contour>
    </TTGlyph>
    <TTGlyph name="Jcircumflex.sc" xMin="-16" yMin="-174" xMax="305" yMax="777">
      <contour>
        <pt x="-16" y="-125" on="1"/>
        <pt x="3" y="-87" on="0"/>
        <pt x="29" y="-21" on="0"/>
        <pt x="44" y="45" on="0"/>
        <pt x="50" y="116" on="0"/>
        <pt x="50" y="158" on="1"/>
        <pt x="50" y="577" on="1"/>
        <pt x="234" y="577" on="1"/>
        <pt x="234" y="141" on="1"/>
        <pt x="234" y="99" on="0"/>
        <pt x="220" y="24" on="0"/>
        <pt x="189" y="-49" on="0"/>
        <pt x="137" y="-128" on="0"/>
        <pt x="99" y="-174" on="1"/>
      </contour>
      <contour>
        <pt x="-13" y="721" on="1"/>
        <pt x="147" y="777" on="1"/>
        <pt x="305" y="721" on="1"/>
        <pt x="305" y="608" on="1"/>
        <pt x="146" y="664" on="1"/>
        <pt x="-13" y="608" on="1"/>
      </contour>
    </TTGlyph>
    <TTGlyph name="K" xMin="50" yMin="0" xMax="652" yMax="740">
      <contour>
        <pt x="50" y="740" on="1"/>
        <pt x="245" y="740" on="1"/>
        <pt x="245" y="459" on="1"/>
        <pt x="314" y="459" on="1"/>
        <pt x="417" y="740" on="1"/>
        <pt x="631" y="740" on="1"/>
        <pt x="494" y="408" on="1"/>
        <pt x="430" y="380" on="1"/>
        <pt x="430" y="373" on="1"/>
        <pt x="495" y="345" on="1"/>
        <pt x="652" y="0" on="1"/>
        <pt x="436" y="0" on="1"/>
        <pt x="305" y="297" on="1"/>
        <pt x="245" y="297" on="1"/>
        <pt x="245" y="0" on="1"/>
        <pt x="50" y="0" on="1"/>
      </contour>
    </TTGlyph>
    <TTGlyph name="K.sc" xMin="48" yMin="0" xMax="604" yMax="577">
      <contour>
        <pt x="48" y="577" on="1"/>
        <pt x="231" y="577" on="1"/>
        <pt x="231" y="370" on="1"/>
        <pt x="294" y="370" on="1"/>
        <pt x="385" y="577" on="1"/>
        <pt x="585" y="577" on="1"/>
        <pt x="462" y="320" on="1"/>
        <pt x="395" y="297" on="1"/>
        <pt x="395" y="291" on="1"/>
        <pt x="463" y="268" on="1"/>
        <pt x="604" y="0" on="1"/>
        <pt x="401" y="0" on="1"/>
        <pt x="287" y="220" on="1"/>
        <pt x="231" y="220" on="1"/>
        <pt x="231" y="0" on="1"/>
        <pt x="48" y="0" on="1"/>
      </contour>
    </TTGlyph>
    <TTGlyph name="Kcommaaccent" xMin="50" yMin="-220" xMax="652" yMax="740">
      <contour>
        <pt x="238" y="-70" on="1"/>
        <pt x="432" y="-70" on="1"/>
        <pt x="338" y="-220" on="1"/>
        <pt x="197" y="-220" on="1"/>
      </contour>
      <contour>
        <pt x="50" y="740" on="1"/>
        <pt x="245" y="740" on="1"/>
        <pt x="245" y="459" on="1"/>
        <pt x="314" y="459" on="1"/>
        <pt x="417" y="740" on="1"/>
        <pt x="631" y="740" on="1"/>
        <pt x="494" y="408" on="1"/>
        <pt x="430" y="380" on="1"/>
        <pt x="430" y="373" on="1"/>
        <pt x="495" y="345" on="1"/>
        <pt x="652" y="0" on="1"/>
        <pt x="436" y="0" on="1"/>
        <pt x="305" y="297" on="1"/>
        <pt x="245" y="297" on="1"/>
        <pt x="245" y="0" on="1"/>
        <pt x="50" y="0" on="1"/>
      </contour>
    </TTGlyph>
    <TTGlyph name="Kcommaaccent.sc" xMin="48" yMin="-172" xMax="604" yMax="577">
      <contour>
        <pt x="48" y="577" on="1"/>
        <pt x="231" y="577" on="1"/>
        <pt x="231" y="370" on="1"/>
        <pt x="294" y="370" on="1"/>
        <pt x="385" y="577" on="1"/>
        <pt x="585" y="577" on="1"/>
        <pt x="462" y="320" on="1"/>
        <pt x="395" y="297" on="1"/>
        <pt x="395" y="291" on="1"/>
        <pt x="463" y="268" on="1"/>
        <pt x="604" y="0" on="1"/>
        <pt x="401" y="0" on="1"/>
        <pt x="287" y="220" on="1"/>
        <pt x="231" y="220" on="1"/>
        <pt x="231" y="0" on="1"/>
        <pt x="48" y="0" on="1"/>
      </contour>
      <contour>
        <pt x="217" y="-55" on="1"/>
        <pt x="400" y="-55" on="1"/>
        <pt x="313" y="-172" on="1"/>
        <pt x="181" y="-172" on="1"/>
      </contour>
    </TTGlyph>
    <TTGlyph name="L" xMin="50" yMin="0" xMax="468" yMax="740">
      <contour>
        <pt x="50" y="740" on="1"/>
        <pt x="245" y="740" on="1"/>
        <pt x="245" y="162" on="1"/>
        <pt x="468" y="162" on="1"/>
        <pt x="468" y="0" on="1"/>
        <pt x="50" y="0" on="1"/>
      </contour>
    </TTGlyph>
    <TTGlyph name="L.sc" xMin="48" yMin="0" xMax="437" yMax="577">
      <contour>
        <pt x="48" y="577" on="1"/>
        <pt x="231" y="577" on="1"/>
        <pt x="231" y="150" on="1"/>
        <pt x="437" y="150" on="1"/>
        <pt x="437" y="0" on="1"/>
        <pt x="48" y="0" on="1"/>
      </contour>
    </TTGlyph>
    <TTGlyph name="Lacute" xMin="50" yMin="0" xMax="468" yMax="988">
      <contour>
        <pt x="77" y="800" on="1"/>
        <pt x="141" y="988" on="1"/>
        <pt x="335" y="988" on="1"/>
        <pt x="212" y="790" on="1"/>
      </contour>
      <contour>
        <pt x="50" y="740" on="1"/>
        <pt x="245" y="740" on="1"/>
        <pt x="245" y="162" on="1"/>
        <pt x="468" y="162" on="1"/>
        <pt x="468" y="0" on="1"/>
        <pt x="50" y="0" on="1"/>
      </contour>
    </TTGlyph>
    <TTGlyph name="Lacute.sc" xMin="48" yMin="0" xMax="437" yMax="786">
      <contour>
        <pt x="48" y="577" on="1"/>
        <pt x="231" y="577" on="1"/>
        <pt x="231" y="150" on="1"/>
        <pt x="437" y="150" on="1"/>
        <pt x="437" y="0" on="1"/>
        <pt x="48" y="0" on="1"/>
      </contour>
      <contour>
        <pt x="73" y="627" on="1"/>
        <pt x="130" y="786" on="1"/>
        <pt x="312" y="786" on="1"/>
        <pt x="200" y="618" on="1"/>
      </contour>
    </TTGlyph>
    <TTGlyph name="Lcaron" xMin="50" yMin="0" xMax="547" yMax="808">
      <contour>
        <pt x="399" y="808" on="1"/>
        <pt x="547" y="808" on="1"/>
        <pt x="500" y="580" on="1"/>
        <pt x="399" y="580" on="1"/>
      </contour>
      <contour>
        <pt x="50" y="740" on="1"/>
        <pt x="245" y="740" on="1"/>
        <pt x="245" y="162" on="1"/>
        <pt x="468" y="162" on="1"/>
        <pt x="468" y="0" on="1"/>
        <pt x="50" y="0" on="1"/>
      </contour>
    </TTGlyph>
    <TTGlyph name="Lcaron.sc" xMin="49" yMin="0" xMax="507" yMax="642">
      <contour>
        <pt x="49" y="577" on="1"/>
        <pt x="232" y="577" on="1"/>
        <pt x="232" y="150" on="1"/>
        <pt x="438" y="150" on="1"/>
        <pt x="438" y="0" on="1"/>
        <pt x="49" y="0" on="1"/>
      </contour>
      <contour>
        <pt x="368" y="642" on="1"/>
        <pt x="507" y="642" on="1"/>
        <pt x="463" y="465" on="1"/>
        <pt x="368" y="465" on="1"/>
      </contour>
    </TTGlyph>
    <TTGlyph name="Lcommaaccent" xMin="50" yMin="-220" xMax="468" yMax="740">
      <contour>
        <pt x="168" y="-70" on="1"/>
        <pt x="362" y="-70" on="1"/>
        <pt x="268" y="-220" on="1"/>
        <pt x="127" y="-220" on="1"/>
      </contour>
      <contour>
        <pt x="50" y="740" on="1"/>
        <pt x="245" y="740" on="1"/>
        <pt x="245" y="162" on="1"/>
        <pt x="468" y="162" on="1"/>
        <pt x="468" y="0" on="1"/>
        <pt x="50" y="0" on="1"/>
      </contour>
    </TTGlyph>
    <TTGlyph name="Lcommaaccent.sc" xMin="48" yMin="-172" xMax="437" yMax="577">
      <contour>
        <pt x="48" y="577" on="1"/>
        <pt x="231" y="577" on="1"/>
        <pt x="231" y="150" on="1"/>
        <pt x="437" y="150" on="1"/>
        <pt x="437" y="0" on="1"/>
        <pt x="48" y="0" on="1"/>
      </contour>
      <contour>
        <pt x="154" y="-55" on="1"/>
        <pt x="336" y="-55" on="1"/>
        <pt x="250" y="-172" on="1"/>
        <pt x="118" y="-172" on="1"/>
      </contour>
    </TTGlyph>
    <TTGlyph name="Ldot" xMin="50" yMin="0" xMax="502" yMax="740">
      <contour>
        <pt x="50" y="740" on="1"/>
        <pt x="245" y="740" on="1"/>
        <pt x="245" y="162" on="1"/>
        <pt x="468" y="162" on="1"/>
        <pt x="468" y="0" on="1"/>
        <pt x="50" y="0" on="1"/>
      </contour>
      <contour>
        <pt x="399" y="270" on="1"/>
        <pt x="344" y="270" on="0"/>
        <pt x="297" y="317" on="0"/>
        <pt x="297" y="370" on="1"/>
        <pt x="297" y="423" on="0"/>
        <pt x="344" y="470" on="0"/>
        <pt x="399" y="470" on="1"/>
        <pt x="453" y="470" on="0"/>
        <pt x="502" y="424" on="0"/>
        <pt x="502" y="370" on="1"/>
        <pt x="502" y="316" on="0"/>
        <pt x="453" y="270" on="0"/>
      </contour>
    </TTGlyph>
    <TTGlyph name="Ldot.sc" xMin="48" yMin="0" xMax="470" yMax="577">
      <contour>
        <pt x="48" y="577" on="1"/>
        <pt x="231" y="577" on="1"/>
        <pt x="231" y="150" on="1"/>
        <pt x="437" y="150" on="1"/>
        <pt x="437" y="0" on="1"/>
        <pt x="48" y="0" on="1"/>
      </contour>
      <contour>
        <pt x="374" y="199" on="1"/>
        <pt x="322" y="199" on="0"/>
        <pt x="279" y="243" on="0"/>
        <pt x="279" y="291" on="1"/>
        <pt x="279" y="339" on="0"/>
        <pt x="322" y="382" on="0"/>
        <pt x="374" y="382" on="1"/>
        <pt x="425" y="382" on="0"/>
        <pt x="470" y="340" on="0"/>
        <pt x="470" y="291" on="1"/>
        <pt x="470" y="242" on="0"/>
        <pt x="425" y="199" on="0"/>
      </contour>
    </TTGlyph>
    <TTGlyph name="Lslash" xMin="6" yMin="0" xMax="483" yMax="740">
      <contour>
        <pt x="6" y="363" on="1"/>
        <pt x="65" y="395" on="1"/>
        <pt x="65" y="740" on="1"/>
        <pt x="260" y="740" on="1"/>
        <pt x="260" y="500" on="1"/>
        <pt x="362" y="556" on="1"/>
        <pt x="362" y="419" on="1"/>
        <pt x="260" y="363" on="1"/>
        <pt x="260" y="162" on="1"/>
        <pt x="483" y="162" on="1"/>
        <pt x="483" y="0" on="1"/>
        <pt x="65" y="0" on="1"/>
        <pt x="65" y="258" on="1"/>
        <pt x="6" y="226" on="1"/>
      </contour>
    </TTGlyph>
    <TTGlyph name="Lslash.sc" xMin="9" yMin="0" xMax="451" yMax="577">
      <contour>
        <pt x="9" y="302" on="1"/>
        <pt x="62" y="325" on="1"/>
        <pt x="62" y="577" on="1"/>
        <pt x="245" y="577" on="1"/>
        <pt x="245" y="406" on="1"/>
        <pt x="339" y="447" on="1"/>
        <pt x="339" y="323" on="1"/>
        <pt x="245" y="281" on="1"/>
        <pt x="245" y="150" on="1"/>
        <pt x="451" y="150" on="1"/>
        <pt x="451" y="0" on="1"/>
        <pt x="62" y="0" on="1"/>
        <pt x="62" y="200" on="1"/>
        <pt x="9" y="177" on="1"/>
      </contour>
    </TTGlyph>
    <TTGlyph name="M" xMin="50" yMin="0" xMax="851" yMax="740">
      <contour>
        <pt x="50" y="740" on="1"/>
        <pt x="331" y="740" on="1"/>
        <pt x="425" y="419" on="1"/>
        <pt x="446" y="289" on="1"/>
        <pt x="454" y="289" on="1"/>
        <pt x="475" y="419" on="1"/>
        <pt x="570" y="740" on="1"/>
        <pt x="851" y="740" on="1"/>
        <pt x="851" y="0" on="1"/>
        <pt x="669" y="0" on="1"/>
        <pt x="669" y="510" on="1"/>
        <pt x="663" y="510" on="1"/>
        <pt x="631" y="379" on="1"/>
        <pt x="529" y="40" on="1"/>
        <pt x="368" y="40" on="1"/>
        <pt x="268" y="379" on="1"/>
        <pt x="234" y="510" on="1"/>
        <pt x="228" y="510" on="1"/>
        <pt x="228" y="0" on="1"/>
        <pt x="50" y="0" on="1"/>
      </contour>
    </TTGlyph>
    <TTGlyph name="M.sc" xMin="48" yMin="0" xMax="785" yMax="577">
      <contour>
        <pt x="48" y="577" on="1"/>
        <pt x="310" y="577" on="1"/>
        <pt x="394" y="335" on="1"/>
        <pt x="411" y="256" on="1"/>
        <pt x="420" y="256" on="1"/>
        <pt x="438" y="335" on="1"/>
        <pt x="522" y="577" on="1"/>
        <pt x="785" y="577" on="1"/>
        <pt x="785" y="0" on="1"/>
        <pt x="616" y="0" on="1"/>
        <pt x="616" y="376" on="1"/>
        <pt x="607" y="375" on="1"/>
        <pt x="569" y="257" on="1"/>
        <pt x="491" y="32" on="1"/>
        <pt x="341" y="32" on="1"/>
        <pt x="264" y="257" on="1"/>
        <pt x="225" y="375" on="1"/>
        <pt x="216" y="376" on="1"/>
        <pt x="216" y="0" on="1"/>
        <pt x="48" y="0" on="1"/>
      </contour>
    </TTGlyph>
    <TTGlyph name="N" xMin="50" yMin="0" xMax="639" yMax="740">
      <contour>
        <pt x="50" y="740" on="1"/>
        <pt x="210" y="740" on="1"/>
        <pt x="421" y="418" on="1"/>
        <pt x="458" y="341" on="1"/>
        <pt x="469" y="341" on="1"/>
        <pt x="469" y="740" on="1"/>
        <pt x="639" y="740" on="1"/>
        <pt x="639" y="0" on="1"/>
        <pt x="480" y="0" on="1"/>
        <pt x="266" y="327" on="1"/>
        <pt x="231" y="402" on="1"/>
        <pt x="220" y="402" on="1"/>
        <pt x="220" y="0" on="1"/>
        <pt x="50" y="0" on="1"/>
      </contour>
    </TTGlyph>
    <TTGlyph name="N.sc" xMin="48" yMin="0" xMax="591" yMax="577">
      <contour>
        <pt x="48" y="577" on="1"/>
        <pt x="195" y="577" on="1"/>
        <pt x="376" y="355" on="1"/>
        <pt x="419" y="293" on="1"/>
        <pt x="429" y="293" on="1"/>
        <pt x="429" y="577" on="1"/>
        <pt x="591" y="577" on="1"/>
        <pt x="591" y="0" on="1"/>
        <pt x="445" y="0" on="1"/>
        <pt x="262" y="227" on="1"/>
        <pt x="220" y="287" on="1"/>
        <pt x="210" y="288" on="1"/>
        <pt x="210" y="0" on="1"/>
        <pt x="48" y="0" on="1"/>
      </contour>
    </TTGlyph>
    <TTGlyph name="Nacute" xMin="50" yMin="0" xMax="639" yMax="988">
      <contour>
        <pt x="257" y="800" on="1"/>
        <pt x="321" y="988" on="1"/>
        <pt x="515" y="988" on="1"/>
        <pt x="392" y="790" on="1"/>
      </contour>
      <contour>
        <pt x="50" y="740" on="1"/>
        <pt x="210" y="740" on="1"/>
        <pt x="421" y="418" on="1"/>
        <pt x="458" y="341" on="1"/>
        <pt x="469" y="341" on="1"/>
        <pt x="469" y="740" on="1"/>
        <pt x="639" y="740" on="1"/>
        <pt x="639" y="0" on="1"/>
        <pt x="480" y="0" on="1"/>
        <pt x="266" y="327" on="1"/>
        <pt x="231" y="402" on="1"/>
        <pt x="220" y="402" on="1"/>
        <pt x="220" y="0" on="1"/>
        <pt x="50" y="0" on="1"/>
      </contour>
    </TTGlyph>
    <TTGlyph name="Nacute.sc" xMin="48" yMin="0" xMax="591" yMax="786">
      <contour>
        <pt x="48" y="577" on="1"/>
        <pt x="195" y="577" on="1"/>
        <pt x="376" y="355" on="1"/>
        <pt x="419" y="293" on="1"/>
        <pt x="429" y="293" on="1"/>
        <pt x="429" y="577" on="1"/>
        <pt x="591" y="577" on="1"/>
        <pt x="591" y="0" on="1"/>
        <pt x="445" y="0" on="1"/>
        <pt x="262" y="227" on="1"/>
        <pt x="220" y="287" on="1"/>
        <pt x="210" y="288" on="1"/>
        <pt x="210" y="0" on="1"/>
        <pt x="48" y="0" on="1"/>
      </contour>
      <contour>
        <pt x="237" y="627" on="1"/>
        <pt x="294" y="786" on="1"/>
        <pt x="476" y="786" on="1"/>
        <pt x="363" y="618" on="1"/>
      </contour>
    </TTGlyph>
    <TTGlyph name="Ncaron" xMin="50" yMin="0" xMax="639" yMax="981">
      <contour>
        <pt x="171" y="981" on="1"/>
        <pt x="342" y="910" on="1"/>
        <pt x="513" y="981" on="1"/>
        <pt x="513" y="857" on="1"/>
        <pt x="343" y="786" on="1"/>
        <pt x="171" y="857" on="1"/>
      </contour>
      <contour>
        <pt x="50" y="740" on="1"/>
        <pt x="210" y="740" on="1"/>
        <pt x="421" y="418" on="1"/>
        <pt x="458" y="341" on="1"/>
        <pt x="469" y="341" on="1"/>
        <pt x="469" y="740" on="1"/>
        <pt x="639" y="740" on="1"/>
        <pt x="639" y="0" on="1"/>
        <pt x="480" y="0" on="1"/>
        <pt x="266" y="327" on="1"/>
        <pt x="231" y="402" on="1"/>
        <pt x="220" y="402" on="1"/>
        <pt x="220" y="0" on="1"/>
        <pt x="50" y="0" on="1"/>
      </contour>
    </TTGlyph>
    <TTGlyph name="Ncaron.sc" xMin="48" yMin="0" xMax="591" yMax="780">
      <contour>
        <pt x="48" y="577" on="1"/>
        <pt x="195" y="577" on="1"/>
        <pt x="376" y="355" on="1"/>
        <pt x="419" y="293" on="1"/>
        <pt x="429" y="293" on="1"/>
        <pt x="429" y="577" on="1"/>
        <pt x="591" y="577" on="1"/>
        <pt x="591" y="0" on="1"/>
        <pt x="445" y="0" on="1"/>
        <pt x="262" y="227" on="1"/>
        <pt x="220" y="287" on="1"/>
        <pt x="210" y="288" on="1"/>
        <pt x="210" y="0" on="1"/>
        <pt x="48" y="0" on="1"/>
      </contour>
      <contour>
        <pt x="158" y="667" on="1"/>
        <pt x="158" y="780" on="1"/>
        <pt x="317" y="724" on="1"/>
        <pt x="477" y="780" on="1"/>
        <pt x="477" y="667" on="1"/>
        <pt x="318" y="611" on="1"/>
      </contour>
    </TTGlyph>
    <TTGlyph name="Ncommaaccent" xMin="50" yMin="-220" xMax="639" yMax="740">
      <contour>
        <pt x="256" y="-70" on="1"/>
        <pt x="450" y="-70" on="1"/>
        <pt x="356" y="-220" on="1"/>
        <pt x="215" y="-220" on="1"/>
      </contour>
      <contour>
        <pt x="50" y="740" on="1"/>
        <pt x="210" y="740" on="1"/>
        <pt x="421" y="418" on="1"/>
        <pt x="458" y="341" on="1"/>
        <pt x="469" y="341" on="1"/>
        <pt x="469" y="740" on="1"/>
        <pt x="639" y="740" on="1"/>
        <pt x="639" y="0" on="1"/>
        <pt x="480" y="0" on="1"/>
        <pt x="266" y="327" on="1"/>
        <pt x="231" y="402" on="1"/>
        <pt x="220" y="402" on="1"/>
        <pt x="220" y="0" on="1"/>
        <pt x="50" y="0" on="1"/>
      </contour>
    </TTGlyph>
    <TTGlyph name="Ncommaaccent.sc" xMin="48" yMin="-172" xMax="591" yMax="577">
      <contour>
        <pt x="48" y="577" on="1"/>
        <pt x="195" y="577" on="1"/>
        <pt x="376" y="355" on="1"/>
        <pt x="419" y="293" on="1"/>
        <pt x="429" y="293" on="1"/>
        <pt x="429" y="577" on="1"/>
        <pt x="591" y="577" on="1"/>
        <pt x="591" y="0" on="1"/>
        <pt x="445" y="0" on="1"/>
        <pt x="262" y="227" on="1"/>
        <pt x="220" y="287" on="1"/>
        <pt x="210" y="288" on="1"/>
        <pt x="210" y="0" on="1"/>
        <pt x="48" y="0" on="1"/>
      </contour>
      <contour>
        <pt x="235" y="-55" on="1"/>
        <pt x="417" y="-55" on="1"/>
        <pt x="331" y="-172" on="1"/>
        <pt x="199" y="-172" on="1"/>
      </contour>
    </TTGlyph>
    <TTGlyph name="Ndotaccent" xMin="50" yMin="0" xMax="639" yMax="997">
      <contour>
        <pt x="332" y="798" on="1"/>
        <pt x="277" y="798" on="0"/>
        <pt x="230" y="845" on="0"/>
        <pt x="230" y="898" on="1"/>
        <pt x="230" y="951" on="0"/>
        <pt x="277" y="997" on="0"/>
        <pt x="332" y="997" on="1"/>
        <pt x="386" y="997" on="0"/>
        <pt x="435" y="951" on="0"/>
        <pt x="435" y="898" on="1"/>
        <pt x="435" y="844" on="0"/>
        <pt x="386" y="798" on="0"/>
      </contour>
      <contour>
        <pt x="50" y="740" on="1"/>
        <pt x="210" y="740" on="1"/>
        <pt x="421" y="418" on="1"/>
        <pt x="458" y="341" on="1"/>
        <pt x="469" y="341" on="1"/>
        <pt x="469" y="740" on="1"/>
        <pt x="639" y="740" on="1"/>
        <pt x="639" y="0" on="1"/>
        <pt x="480" y="0" on="1"/>
        <pt x="266" y="327" on="1"/>
        <pt x="231" y="402" on="1"/>
        <pt x="220" y="402" on="1"/>
        <pt x="220" y="0" on="1"/>
        <pt x="50" y="0" on="1"/>
      </contour>
    </TTGlyph>
    <TTGlyph name="Ndotaccent.sc" xMin="48" yMin="0" xMax="591" yMax="804">
      <contour>
        <pt x="48" y="577" on="1"/>
        <pt x="195" y="577" on="1"/>
        <pt x="376" y="355" on="1"/>
        <pt x="419" y="293" on="1"/>
        <pt x="429" y="293" on="1"/>
        <pt x="429" y="577" on="1"/>
        <pt x="591" y="577" on="1"/>
        <pt x="591" y="0" on="1"/>
        <pt x="445" y="0" on="1"/>
        <pt x="262" y="227" on="1"/>
        <pt x="220" y="287" on="1"/>
        <pt x="210" y="288" on="1"/>
        <pt x="210" y="0" on="1"/>
        <pt x="48" y="0" on="1"/>
      </contour>
      <contour>
        <pt x="309" y="622" on="1"/>
        <pt x="257" y="622" on="0"/>
        <pt x="213" y="665" on="0"/>
        <pt x="213" y="714" on="1"/>
        <pt x="213" y="762" on="0"/>
        <pt x="257" y="804" on="0"/>
        <pt x="309" y="804" on="1"/>
        <pt x="360" y="804" on="0"/>
        <pt x="405" y="762" on="0"/>
        <pt x="405" y="714" on="1"/>
        <pt x="405" y="665" on="0"/>
        <pt x="360" y="622" on="0"/>
      </contour>
    </TTGlyph>
    <TTGlyph name="Ntilde" xMin="50" yMin="0" xMax="639" yMax="965">
      <contour>
        <pt x="143" y="833" on="1"/>
        <pt x="175" y="900" on="0"/>
        <pt x="254" y="965" on="0"/>
        <pt x="292" y="965" on="1"/>
        <pt x="311" y="965" on="0"/>
        <pt x="350" y="953" on="0"/>
        <pt x="389" y="939" on="0"/>
        <pt x="428" y="927" on="0"/>
        <pt x="448" y="927" on="1"/>
        <pt x="468" y="927" on="0"/>
        <pt x="504" y="943" on="0"/>
        <pt x="527" y="965" on="1"/>
        <pt x="550" y="944" on="1"/>
        <pt x="518" y="876" on="0"/>
        <pt x="440" y="812" on="0"/>
        <pt x="401" y="812" on="1"/>
        <pt x="381" y="812" on="0"/>
        <pt x="342" y="824" on="0"/>
        <pt x="303" y="837" on="0"/>
        <pt x="264" y="849" on="0"/>
        <pt x="245" y="849" on="1"/>
        <pt x="225" y="849" on="0"/>
        <pt x="188" y="834" on="0"/>
        <pt x="165" y="812" on="1"/>
      </contour>
      <contour>
        <pt x="50" y="740" on="1"/>
        <pt x="210" y="740" on="1"/>
        <pt x="421" y="418" on="1"/>
        <pt x="458" y="341" on="1"/>
        <pt x="469" y="341" on="1"/>
        <pt x="469" y="740" on="1"/>
        <pt x="639" y="740" on="1"/>
        <pt x="639" y="0" on="1"/>
        <pt x="480" y="0" on="1"/>
        <pt x="266" y="327" on="1"/>
        <pt x="231" y="402" on="1"/>
        <pt x="220" y="402" on="1"/>
        <pt x="220" y="0" on="1"/>
        <pt x="50" y="0" on="1"/>
      </contour>
    </TTGlyph>
    <TTGlyph name="Ntilde.sc" xMin="48" yMin="0" xMax="591" yMax="768">
      <contour>
        <pt x="132" y="648" on="1"/>
        <pt x="161" y="710" on="0"/>
        <pt x="235" y="767" on="0"/>
        <pt x="271" y="767" on="1"/>
        <pt x="289" y="767" on="0"/>
        <pt x="325" y="758" on="0"/>
        <pt x="361" y="748" on="0"/>
        <pt x="398" y="739" on="0"/>
        <pt x="417" y="739" on="1"/>
        <pt x="435" y="739" on="0"/>
        <pt x="469" y="750" on="0"/>
        <pt x="490" y="768" on="1"/>
        <pt x="511" y="750" on="1"/>
        <pt x="481" y="689" on="0"/>
        <pt x="408" y="632" on="0"/>
        <pt x="372" y="632" on="1"/>
        <pt x="354" y="632" on="0"/>
        <pt x="318" y="641" on="0"/>
        <pt x="281" y="651" on="0"/>
        <pt x="244" y="660" on="0"/>
        <pt x="226" y="660" on="1"/>
        <pt x="207" y="660" on="0"/>
        <pt x="174" y="650" on="0"/>
        <pt x="152" y="632" on="1"/>
      </contour>
      <contour>
        <pt x="48" y="577" on="1"/>
        <pt x="195" y="577" on="1"/>
        <pt x="376" y="355" on="1"/>
        <pt x="419" y="293" on="1"/>
        <pt x="429" y="293" on="1"/>
        <pt x="429" y="577" on="1"/>
        <pt x="591" y="577" on="1"/>
        <pt x="591" y="0" on="1"/>
        <pt x="445" y="0" on="1"/>
        <pt x="262" y="227" on="1"/>
        <pt x="220" y="287" on="1"/>
        <pt x="210" y="288" on="1"/>
        <pt x="210" y="0" on="1"/>
        <pt x="48" y="0" on="1"/>
      </contour>
    </TTGlyph>
    <TTGlyph name="O" xMin="26" yMin="-10" xMax="662" yMax="750">
      <contour>
        <pt x="343" y="-10" on="1"/>
        <pt x="182" y="-10" on="0"/>
        <pt x="26" y="177" on="0"/>
        <pt x="26" y="369" on="1"/>
        <pt x="26" y="562" on="0"/>
        <pt x="182" y="750" on="0"/>
        <pt x="343" y="750" on="1"/>
        <pt x="507" y="750" on="0"/>
        <pt x="662" y="564" on="0"/>
        <pt x="662" y="369" on="1"/>
        <pt x="662" y="175" on="0"/>
        <pt x="506" y="-10" on="0"/>
      </contour>
      <contour>
        <pt x="343" y="149" on="1"/>
        <pt x="377" y="149" on="0"/>
        <pt x="422" y="171" on="0"/>
        <pt x="450" y="222" on="0"/>
        <pt x="462" y="306" on="0"/>
        <pt x="462" y="369" on="1"/>
        <pt x="462" y="433" on="0"/>
        <pt x="451" y="519" on="0"/>
        <pt x="423" y="570" on="0"/>
        <pt x="377" y="591" on="0"/>
        <pt x="343" y="591" on="1"/>
        <pt x="310" y="591" on="0"/>
        <pt x="265" y="569" on="0"/>
        <pt x="238" y="517" on="0"/>
        <pt x="226" y="432" on="0"/>
        <pt x="226" y="369" on="1"/>
        <pt x="226" y="307" on="0"/>
        <pt x="238" y="223" on="0"/>
        <pt x="265" y="171" on="0"/>
        <pt x="310" y="149" on="0"/>
      </contour>
    </TTGlyph>
</ttFont>
